<svg xmlns="http://www.w3.org/2000/svg" viewBox="0 0 61.5 90.48"><defs><style>.cls-1{fill:#231f20;}.cls-2{fill:#2b799d;}.cls-3{fill:#b8f4ff;}.cls-4{fill:none;stroke:#231f20;stroke-linecap:round;stroke-linejoin:round;}</style></defs><g id="Layer_2" data-name="Layer 2"><g id="OBJECTS"><path class="cls-1" d="M22.75,76.48,16,71.73l.38,11.73,2.84.57V76a.55.55,0,0,1,.33-.5.52.52,0,0,1,.21,0,.54.54,0,0,1,.38.15s1,.94,2.48,2.25Z"/><ellipse class="cls-1" cx="28.25" cy="86.73" rx="28.25" ry="3.75"/><path class="cls-2" d="M42.55,72.35c-7.95-2.39-13.3-13.5-13.94-29C28,28,32.06,6.57,32.71,3.32A23.6,23.6,0,0,0,22.78,1C11.6,1,3.55,9.69,2.29,11.14c2.17,8.48,11.08,49.57,9.31,56.31-1.5,5.68-.35,13.31-.06,15L19.22,84V76a.55.55,0,0,1,.33-.5.52.52,0,0,1,.21,0,.54.54,0,0,1,.38.15c.1.1,10.43,10,18.2,12.38a32.22,32.22,0,0,0,9.09,1.24c6.66,0,11.7-1.73,12.85-4.41a2.47,2.47,0,0,0-.12-2.08C58.26,78.68,48.53,74.14,42.55,72.35Z"/><path class="cls-1" d="M47.43,89.23a24.93,24.93,0,0,0,9.43-1.56C45,89.23,38,86.8,24,72.48,13.25,61.48,6.91,19,6.75,7a33.19,33.19,0,0,0-4.46,4.12c2.17,8.48,11.08,49.57,9.31,56.31-.13.5-.24,1-.33,1.55,3.65,4.94,7,6.19,8.28,6.5h0a.52.52,0,0,1,.21,0,.54.54,0,0,1,.38.15c.1.1,10.43,10,18.2,12.38A32.22,32.22,0,0,0,47.43,89.23Z"/><path class="cls-3" d="M52.63,76.56a57,57,0,0,0-10.08-4.21c-7.95-2.39-13.3-13.5-13.94-29C28,28,32.06,6.57,32.71,3.32A23.6,23.6,0,0,0,22.78,1c-6.58,0-12,3-15.71,5.75C11.69,4.77,19,.23,30,5c0,0-8.49,37.85-1,54.5C35.75,74.48,45.5,76,52.63,76.56Z"/><path class="cls-3" d="M54.65,77.72a56,56,0,0,0-12.1-5.37,11,11,0,0,1-1.35-.51,1.85,1.85,0,0,0-.59.84C40,74.52,42.74,77,46.68,78.31,50.27,79.46,53.64,79.18,54.65,77.72Z"/><path class="cls-4" d="M1.69,11S15.25-5.68,33.32,3c0,0-4.87,23.63-4.17,40.32s6.6,26.41,13.55,28.5S62.86,80.17,60.78,85s-14.6,5.9-22.59,3.47S19.76,76,19.76,76v8.69L11.07,83s-1.73-9,0-15.64S3.78,19,1.69,11Z"/></g></g></svg>