<svg xmlns="http://www.w3.org/2000/svg" viewBox="0 0 45.38 85.35"><defs><style>.cls-1{fill:#e6305e;}.cls-2{fill:#33ab4d;}.cls-3{fill:#231f20;}.cls-4{fill:#97305e;}.cls-5{fill:none;stroke:#231f20;stroke-linecap:round;stroke-linejoin:round;}</style></defs><g id="Layer_2" data-name="Layer 2"><g id="OBJECTS"><path class="cls-1" d="M24.33,30.11a13.23,13.23,0,0,0,1.23.76c-.23-1-.54-2.52-.78-4.23l-.19-.29-.2-.3c-.08-.12-.15-.26-.23-.39L24,25.35c-.08-.13-.14-.27-.21-.4s-.12-.22-.17-.33-.12-.26-.18-.4-.11-.23-.16-.34-.11-.27-.16-.41a3.65,3.65,0,0,1-.14-.35l-.15-.4-.12-.37c-.05-.14-.09-.27-.13-.4s-.08-.25-.11-.38-.07-.27-.11-.4-.07-.26-.1-.39l-.09-.39L22.06,20c0-.13,0-.26-.07-.39s0-.27-.07-.4-.05-.26-.07-.39l-.06-.4c0-.13,0-.25-.05-.38s0-.26,0-.4,0-.25,0-.37,0-.27,0-.4l0-.37,0-.39c0-.12,0-.24,0-.36s0-.26,0-.38,0-.24,0-.35,0-.26,0-.39v-.34c0-.12,0-.24,0-.37s0-.23,0-.35v-.33c0-.12,0-.24,0-.35s0-.21,0-.31,0-.23,0-.34,0-.2,0-.3,0-.22,0-.32,0-.19,0-.28l0-.31a2.11,2.11,0,0,1,0-.26c0-.1,0-.2,0-.3a1.94,1.94,0,0,0,0-.24l0-.3a1.23,1.23,0,0,0,0-.19c0-.12,0-.22,0-.33s0-.08,0-.12,0-.24,0-.36v0c0-.11,0-.2,0-.3V8.52c0-.11,0-.21,0-.3h0A1.5,1.5,0,0,1,22,8h0c0-.23.06-.38.07-.42a.67.67,0,0,1,.09-.21h0s0-.09,0-.14a3.65,3.65,0,0,1,.14-.5,6,6,0,0,0-3-1c-3,0-3.69,4.11-3.76,7.56a19.93,19.93,0,0,0,8.72,16.85Z"/><path class="cls-1" d="M24.75,4.51l.16,0a4.69,4.69,0,0,1,.54-.11h.14c.18,0,.36,0,.55,0a8.17,8.17,0,0,1,4.43,1.45h0c.13.09.26.18.38.28L31,6.1l.32.27.13.11.26.25.15.15.22.25.16.2.19.24.16.23.15.25c0,.09.11.17.15.26a2.1,2.1,0,0,1,.13.26c0,.06.07.13.11.2h0l.27.08.19.05.12-.05.8-.34.09,0a0,0,0,0,0,0,0c0-.15-.1-.3-.16-.46a.88.88,0,0,0-.05-.15l-.14-.38-.1-.25-.12-.31c0-.1-.09-.21-.14-.32l-.1-.24-.18-.39-.09-.18-.21-.44a.54.54,0,0,0-.07-.13c-.08-.16-.16-.32-.25-.48-1.15-2-2.77-3.87-4.87-3.65a4.82,4.82,0,0,0-4.47,3.88A3.73,3.73,0,0,1,24.75,4.51Z"/><path class="cls-1" d="M35.71,8.08h0L37,7.66l.17,0,1-.25.2,0a10.14,10.14,0,0,1,2-.23h.09C40.35,4.6,39,4.27,38.56,4.16a6.22,6.22,0,0,0-4.29.5A25.29,25.29,0,0,1,35.7,8.05Z"/><path class="cls-1" d="M43.58,17.27c0-.05,0-.1,0-.15s-.11-.36-.17-.53l0-.09A4.56,4.56,0,0,0,42.5,15l0,0a2.91,2.91,0,0,0-.27-.24l-.09-.06a1.49,1.49,0,0,0-.25-.13l-.09,0a1,1,0,0,0-.34-.06,1.48,1.48,0,0,0-.72.21,5.46,5.46,0,0,1-.64.32l-.38.15-.32.11-.57.16-.2.06-.66.13-.15,0a4.12,4.12,0,0,1-2.29,1h0a5.92,5.92,0,0,1-1,.08A8.3,8.3,0,0,1,33,16.58l-.15,0-.58-.13-.07,0q-.3-.08-.6-.18c-.12,0-.41-.06-.83-.15a11.67,11.67,0,0,0-1.67.27l-.18,0-.2.06a2.4,2.4,0,0,0-.38.12l-.09,0-.44.18-.09,0a3.84,3.84,0,0,0-.39.22l-.1.06a3.25,3.25,0,0,0-.42.31,2.71,2.71,0,0,0-.35.4l-.07.09c-.08.14-.16.29-.23.44a2.29,2.29,0,0,0-.1.23,4.13,4.13,0,0,0-.14.42c0,.13-.08.27-.11.41a2,2,0,0,0,0,.24c-.05.22-.08.45-.11.68s0,.2,0,.3,0,.27,0,.42,0,.3,0,.46,0,.27,0,.42,0,.46,0,.7v.28l0,.73a1.21,1.21,0,0,1,0,.19c0,.32,0,.63.07.94,0,.12,0,.24,0,.36l.06.52c0,.24.06.49.09.75v.05c.28,2.13.7,4,.89,4.81,1.77-.07,8.74-.56,13.78-4.08,3.15-2.2,3.72-6.53,3.14-9.42C43.65,17.58,43.62,17.42,43.58,17.27Z"/><path class="cls-2" d="M1.3,80c2-5.88,6.4-16.86,13.25-25.5h0l.33-.42c.35-.43.69-.87,1-1.3l.45-.59.35-.48c.45-.61.89-1.23,1.35-1.89,0,0,0,0,0,0a73.45,73.45,0,0,0,8.75-17.45h-.49l-.14,0A4.68,4.68,0,0,1,25,31.81c-.22-.12-.46-.26-.71-.42a92.49,92.49,0,0,1-13,23.77A50.92,50.92,0,0,0,1.3,80Z"/><path class="cls-3" d="M26.34,32.34h0l-.14,0a2.36,2.36,0,0,1-.34-.12A73.41,73.41,0,0,1,17.32,49s0,0,0,0c-.46.66-.9,1.28-1.35,1.89l-.35.48-.45.59c-.33.43-.67.87-1,1.3l-.33.42h0c-5.39,6.8-9.24,15-11.63,21.11A50.2,50.2,0,0,0,1.3,80c2-5.88,6.4-16.86,13.25-25.5h0l.33-.42c.35-.43.69-.87,1-1.3l.45-.59.35-.48c.45-.61.89-1.23,1.35-1.89,0,0,0,0,0,0a73.45,73.45,0,0,0,8.75-17.45Z"/><path class="cls-1" d="M40.91,8.21a5.49,5.49,0,0,0-.58,0,11.89,11.89,0,0,0-3.39.63l0,0c-.41.13-.84.28-1.27.45l-.2.07-.3.13h0A7.78,7.78,0,0,1,36,10l.23.16a6.07,6.07,0,0,1,.57.43l.21.17a7.71,7.71,0,0,1,.63.65l.29.39.09.13c.05.09.11.17.15.26l.08.16a2.56,2.56,0,0,1,.11.24,1.22,1.22,0,0,1,.07.17c0,.07,0,.15.07.23a.85.85,0,0,1,0,.17,1.7,1.7,0,0,1,0,.22,1,1,0,0,1,0,.17,1.62,1.62,0,0,1,0,.22v.17l0,.22a1,1,0,0,1,0,.16.64.64,0,0,0,0,.07l.2,0,.49-.16.27-.1c.24-.1.46-.2.67-.31h0a2.4,2.4,0,0,1,.63-.26,2,2,0,0,1,.63-.09h0a2.28,2.28,0,0,1,.45,0c.09,0,.18.06.27.09l.13,0a2.37,2.37,0,0,1,.35.19h0a4.37,4.37,0,0,1,1.58,2.06c.36-2.51-.2-5.53-1.92-7.07A2.41,2.41,0,0,0,41,8.21Z"/><path class="cls-1" d="M33.71,10.06,33.52,10h0l-.19-.06-.54-.14-.17,0c-.22,0-.44-.08-.66-.1h-.06a6.23,6.23,0,0,0-.74,0c-1.52,0-2.65.53-2.95,1.39a2.3,2.3,0,0,0,.65,2.17A6.72,6.72,0,0,0,31.45,15h0l.13,0,.32.14a7.67,7.67,0,0,0,.78.23h0c1.82.43,3.62.18,4.39-.64h0a1.59,1.59,0,0,0,.34-.52,1.64,1.64,0,0,0,.08-.5,2.32,2.32,0,0,0-.32-1.1,4.05,4.05,0,0,0-.41-.57A7,7,0,0,0,33.71,10.06Z"/><path class="cls-4" d="M33.84,13.53h0a7.49,7.49,0,0,1-.77-.23l-.33-.13-.13-.06h0A6.89,6.89,0,0,1,30,11.28a3,3,0,0,1-.68-1.34A1.91,1.91,0,0,0,28.19,11a2.3,2.3,0,0,0,.65,2.17A6.72,6.72,0,0,0,31.45,15h0l.13,0,.32.14a7.67,7.67,0,0,0,.78.23h0c1.82.43,3.62.18,4.39-.64h0a1.59,1.59,0,0,0,.34-.52,1.64,1.64,0,0,0,.08-.5,2.27,2.27,0,0,0-.05-.35A6.07,6.07,0,0,1,33.84,13.53Z"/><path class="cls-1" d="M23.47,6.75h0a2.85,2.85,0,0,0-.28.79l0,.11v0l0,.27c0,.14,0,.28,0,.43s0,.06,0,.09v0a4.62,4.62,0,0,0,.07.65,1.55,1.55,0,0,0,0,.21,3.45,3.45,0,0,0,.12.46l.06.21a4.83,4.83,0,0,0,.23.52l.17.31.12.19a9.15,9.15,0,0,0,4.41,3.15L28,13.85a3.29,3.29,0,0,1-.83-3.22c.46-1.33,1.95-2.12,4-2.12l.68,0h0a5.73,5.73,0,0,0-.47-.63,1,1,0,0,0-.08-.11c-.17-.19-.34-.36-.52-.53l-.14-.12L30,6.71l-.17-.1a5.84,5.84,0,0,0-.53-.33l-.23-.12-.48-.22-.26-.11-.53-.17-.33-.09-.36-.07a4.44,4.44,0,0,0-.49-.07h-.19l-.31,0A3,3,0,0,0,23.47,6.75Z"/><path class="cls-2" d="M9.46,25.79c-1.14,3.76-4.29,16.63,2.2,26.34C12.81,48.71,16.07,36.67,9.46,25.79Z"/><path class="cls-4" d="M24.57,20.33v0q.06-.48.15-.93l0-.14a7.6,7.6,0,0,1,.21-.76s0-.08,0-.12a5.55,5.55,0,0,1,.24-.56l.06-.14a5.13,5.13,0,0,1,.32-.52l.09-.12a2.8,2.8,0,0,1,.41-.43,5.47,5.47,0,0,1,.54-.41l.11-.07a5.46,5.46,0,0,1,.48-.27l.14-.06.48-.21.24-.08.27-.09c-2.06-.72-4.53-2-5.69-4.25v0c0,.26,0,.54-.05.82a1.62,1.62,0,0,0,0,.22q0,.42,0,.87v.08c0,.31,0,.64,0,1a2.09,2.09,0,0,0,0,.25c0,.28,0,.57,0,.86a1.48,1.48,0,0,0,0,.21c0,.35,0,.7.06,1.06l0,.24c0,.3.05.59.09.89l0,.27c.05.37.1.74.17,1.1l0,.18c.06.31.12.63.19.95,0,.09,0,.19.07.29.09.37.18.74.29,1.1v0c.11.36.23.71.36,1.06,0,.09.07.19.11.28.11.31.24.61.37.91,0,.05.05.11.08.16h0A20.36,20.36,0,0,1,24.57,20.33Z"/><path class="cls-1" d="M24.76,18.93c-.07-.37-.12-.74-.17-1.1l0-.27q-.06-.45-.09-.9l0-.24c0-.35-.05-.71-.06-1.06a1.34,1.34,0,0,1,0-.2c0-.29,0-.58,0-.86a2.26,2.26,0,0,1,0-.26c0-.29,0-.58,0-.86a6.79,6.79,0,0,1-1.66-2v0c0,.26,0,.54-.05.82a1.62,1.62,0,0,0,0,.22q0,.42,0,.87v.08c0,.31,0,.64,0,1a2.09,2.09,0,0,0,0,.25c0,.28,0,.57,0,.86a1.48,1.48,0,0,0,0,.21c0,.35,0,.7.06,1.06l0,.24c0,.3.05.59.09.89l0,.27c.05.37.1.74.17,1.1l0,.18c.06.31.12.63.19.95,0,.09,0,.19.07.29.09.37.18.74.29,1.1v0c.11.36.23.71.36,1.06,0,.09.07.19.11.28.11.31.24.61.37.91,0,.05.05.11.08.16h0a20.36,20.36,0,0,1,.06-3.68v0q.06-.48.15-.93l0-.14s0-.09,0-.14Z"/><path class="cls-2" d="M17.27,52.76l-.43.56c-.32.42-.64.84-1,1.25a15.55,15.55,0,0,0,4.89.83c9.73,0,15.51-10.51,16.89-13.34-.3,0-.61,0-.92,0-7.76,0-14,4.58-17.82,8.43-.39.57-.79,1.14-1.21,1.71Z"/><path class="cls-4" d="M40.54,27.16a7.8,7.8,0,0,0,3-4.53c-4.67,5.88-13.9,5.47-13.9,5.47,4.37-1.25,6.62-7.63,6.62-7.63A15.34,15.34,0,0,1,25.76,25.6v0c0,.24.06.49.09.75v.05c.28,2.13.7,4,.89,4.81C28.53,31.17,35.5,30.68,40.54,27.16Z"/><path class="cls-4" d="M24.78,26.64l-.19-.29-.2-.3c-.08-.12-.15-.26-.23-.39L24,25.35c-.08-.13-.14-.27-.21-.4l0,0c-3.39-2.72-4.5-11.06-4.5-11.06-1,3.75.88,8.75.88,8.75C18.73,21,16.81,17,15.58,14a20,20,0,0,0,8.71,16.09l0,0a13.23,13.23,0,0,0,1.23.76C25.33,29.88,25,28.35,24.78,26.64Z"/><path class="cls-4" d="M27.75,14.47S22.63,10.22,24.5,7.6s3.75-.88,3.75-.88-2.87,1.5-.75,5.38l2.38,3.25Z"/><path class="cls-4" d="M30.58,5.76l.44.11c1,.28,3.47,1.08,4.23,2.48l-2.62.87Z"/><path class="cls-4" d="M38,14.85c-.12.72,2.75-2.25,2.25-3.88s-5.5-1.87-5.5-1.87S38.63,11.1,38,14.85Z"/><path class="cls-4" d="M34.5,5.85s2.88-.38,3.38,2l-2.63,1Z"/><path class="cls-3" d="M11.75,52.85S8.88,39.22,10,33.47c0,0,2.75,12.13,2.38,18.38Z"/><path class="cls-3" d="M16.38,53.6s11.12-4,14.75-6.38c0,0-11,1.5-13.63,3.75Z"/><path class="cls-3" d="M18.25,82c-6.66,0-12.66.2-16.86.53a17.43,17.43,0,0,1-.62,2.22c4.22.35,10.48.58,17.48.58,12.7,0,23-.75,23-1.67S31,82,18.25,82Z"/><path class="cls-3" d="M26.33,32.34h0l-.14,0A4.68,4.68,0,0,1,25,31.81c-.22-.12-.46-.26-.71-.42-.22.59-.47,1.25-.75,2a6.55,6.55,0,0,0,1.53,1,6.27,6.27,0,0,0,.89.33c.33-.86.61-1.65.85-2.35h-.49Z"/><path class="cls-5" d="M38,14.42c-.6,1.7-3.38,2.26-6.22,1.26s-4.65-3.18-4.05-4.87,3.38-2.26,6.21-1.26S38.55,12.73,38,14.42Z"/><path class="cls-5" d="M40.43,14.2a8.32,8.32,0,0,1-2.93.92c-1,1.12-3.37,1.4-5.77.56-.17-.06-.32-.14-.48-.21A8,8,0,0,0,26.47,17c-3.21,2.79-.14,14.79-.14,14.79s8.52,0,14.52-4.18S44.34,12,40.43,14.2Z"/><path class="cls-5" d="M42.67,8.34c-1.9-1.7-6.5,0-9,1.15a1.06,1.06,0,0,1,.19.06c2.84,1,4.66,3.18,4.06,4.87a2,2,0,0,1-.45.71,8.4,8.4,0,0,0,2.93-.93c1.82-1,3.33.88,3.83,3.65C45.39,15,45,10.45,42.67,8.34Z"/><path class="cls-5" d="M27.68,10.81c.52-1.47,2.68-2.09,5.09-1.58-1.91-4.84-10.34-6.46-10.21-.75.14,6,9.17,7.2,9.17,7.2C28.9,14.68,27.08,12.5,27.68,10.81Z"/><path class="cls-5" d="M26.47,17a7.53,7.53,0,0,1,4.36-1.49c-2.29-.48-8.15-2.2-8.27-7a4.91,4.91,0,0,1,.07-.88l-.07,0s-2.31,11.8,2.77,18.83C24.84,22.88,24.7,18.54,26.47,17Z"/><path class="cls-5" d="M23,6.5c1.71-3.19,8.14-1.42,9.78,2.73a7.85,7.85,0,0,1,1.12.32,1.06,1.06,0,0,0-.19-.06c.49-.22,1-.46,1.67-.7C34.45,5.87,32.12.1,28.15.52c-5.31.56-5.16,6-5.16,6Z"/><path class="cls-5" d="M35.37,8.79A13.15,13.15,0,0,1,41,7.68c.06-1.8-.39-3.57-2.29-4a7,7,0,0,0-5.16.8A24.41,24.41,0,0,1,35.37,8.79Z"/><path class="cls-5" d="M22.56,7.64l.07,0a4.91,4.91,0,0,0-.07.88,3.9,3.9,0,0,1,.43-2h0S15.3.66,15,13.23,25.49,31.79,26.33,31.79a52.9,52.9,0,0,1-1-5.32C20.25,19.44,22.56,7.64,22.56,7.64Z"/><path class="cls-5" d="M26.33,31.79A7.62,7.62,0,0,1,24,30.56,91.09,91.09,0,0,1,10.84,54.83,50.1,50.1,0,0,0,.5,84.29S5.25,66.84,15.3,54.41A73.09,73.09,0,0,0,27.59,31.74C26.81,31.79,26.33,31.79,26.33,31.79Z"/><path class="cls-5" d="M11.81,53.29S18.24,37.94,9.3,24.53C9.3,24.53,3,41.43,11.81,53.29Z"/><path class="cls-5" d="M18.49,50.12c-1,1.42-2,2.86-3.19,4.29-.11.14-.21.28-.32.41,15.48,5.87,23.5-13.25,23.5-13.25C29.59,40.8,22.56,46,18.49,50.12Z"/></g></g></svg>