<svg xmlns="http://www.w3.org/2000/svg" viewBox="0 0 58.74 93.87"><defs><style>.cls-1{fill:#231f20;}.cls-2{fill:#eaab40;}.cls-3{fill:#33ab4d;}.cls-4{fill:#33744d;}.cls-5{fill:#fff460;}.cls-6{fill:none;stroke:#231f20;stroke-linecap:round;stroke-linejoin:round;}</style></defs><g id="Layer_2" data-name="Layer 2"><g id="OBJECTS"><ellipse class="cls-1" cx="29.88" cy="90.62" rx="17.5" ry="3.25"/><path class="cls-2" d="M32.26,52.92,45.15,39.05,43.59,37.5,33.08,48a.52.52,0,0,1-.61.09.51.51,0,0,1-.25-.55l4.69-21.61-1.1-.55-1.55,5.86a.51.51,0,0,1-.91.16c-.7-1.05-1.67-2.43-2.22-3.2l-.57.81,2.9,4.66a.54.54,0,0,1,.06.39L30.28,46.36a.5.5,0,0,1-.48.38.55.55,0,0,1-.5-.36l-3.36-11-2,.68,3.86,12.57a0,0,0,0,1,0,0,.53.53,0,0,1,0,.12.51.51,0,0,1-.37.49h-.16l-.09,0-.09,0L27,49.13l-8.19-7.07-1.15,1,8.64,10.34a.52.52,0,0,1,.11.32V91.4h5.77V53.26A.47.47,0,0,1,32.26,52.92Z"/><path class="cls-3" d="M8.24,42.74a7.69,7.69,0,0,1-.54-3.41.51.51,0,1,1,1,.09s-.21,2.44,1,3.7a2.66,2.66,0,0,0,2.17.77.53.53,0,0,1,.53.49.51.51,0,0,1-.49.52h-.22A3.65,3.65,0,0,1,9.17,44,11.62,11.62,0,0,0,9,45.66,11.29,11.29,0,0,0,25.35,55.77V54L16.52,43.38a.5.5,0,0,1,.05-.7L18.41,41a.5.5,0,0,1,.67,0l7.2,6.21-3.5-11.37a.51.51,0,0,1,.33-.63l3-1a.64.64,0,0,1,.2,0,.7.7,0,0,1,.19.06.5.5,0,0,1,.25.3l3,9.84L32.48,34l-2.95-4.76a.52.52,0,0,1,0-.56L30.71,27a.54.54,0,0,1,.42-.22.46.46,0,0,1,.41.22s1.07,1.5,2,2.88L35,24.52a.51.51,0,0,1,.28-.33.5.5,0,0,1,.43,0l2,1a.52.52,0,0,1,.27.57l-4.4,20.31,9.65-9.66a.53.53,0,0,1,.72,0l2.26,2.26a.51.51,0,0,1,0,.71L33.14,53.46v2.28A10.34,10.34,0,0,0,49.26,43.6a.5.5,0,0,1,0-.46.48.48,0,0,1,.38-.25,9.08,9.08,0,0,0,1.63-17.71,5.54,5.54,0,0,1-.09,1.92.5.5,0,0,1-.5.4h-.1a.51.51,0,0,1-.4-.6,3.14,3.14,0,0,0-.35-2.63A2.78,2.78,0,0,0,48,23.32a.51.51,0,0,1-.48-.53.5.5,0,0,1,.53-.48,3.77,3.77,0,0,1,2.6,1.32,2.92,2.92,0,0,1,.24.37,6.09,6.09,0,0,0-4-10.06.51.51,0,0,1-.45-.42A7.91,7.91,0,0,0,33.73,8.71a.5.5,0,0,1-.47.09.51.51,0,0,1-.33-.34,10.35,10.35,0,0,0-20.28,2.89,10.25,10.25,0,0,0,.12,1.45c1.87-.93,4.26.3,4.38.37a.51.51,0,1,1-.48.89s-2.55-1.31-3.93,0h0a2.79,2.79,0,0,0-.4,3.2.5.5,0,0,1-.22.68.46.46,0,0,1-.23.06.5.5,0,0,1-.45-.28,4,4,0,0,1,0-3.71,7,7,0,0,0-.91-.07A6.1,6.1,0,0,0,6.62,24.66a.51.51,0,0,1,.18.46.52.52,0,0,1-.3.39A9.08,9.08,0,0,0,8.24,42.74ZM19.44,22.8a6,6,0,0,1,2.87-3.2,3.61,3.61,0,0,1,2.77.07A6.31,6.31,0,0,1,28.73,17a3.63,3.63,0,0,1,3.06,1,.51.51,0,1,1-.66.77,2.67,2.67,0,0,0-2.23-.74,5,5,0,0,0-2.75,2,4.7,4.7,0,0,1,3.16.25.51.51,0,0,1-.38.94A3.45,3.45,0,0,0,26.07,21a4.39,4.39,0,0,0-2,2.43.5.5,0,0,1-.48.35.39.39,0,0,1-.15,0,.49.49,0,0,1-.33-.63,5.73,5.73,0,0,1,1.68-2.51,2.75,2.75,0,0,0-2.11-.12,5,5,0,0,0-2.3,2.62.51.51,0,0,1-.47.33.57.57,0,0,1-.18,0A.52.52,0,0,1,19.44,22.8Z"/><path class="cls-4" d="M16.52,43.38a.5.5,0,0,1,.05-.7L18.41,41a.5.5,0,0,1,.67,0l7.2,6.21-3.5-11.37a.51.51,0,0,1,.33-.63l3-1a.64.64,0,0,1,.2,0,.7.7,0,0,1,.19.06.5.5,0,0,1,.25.3l3,9.84L32.48,34l-2.95-4.76a.52.52,0,0,1,0-.56L30.71,27a.54.54,0,0,1,.42-.22.46.46,0,0,1,.41.22s1.07,1.5,2,2.88L35,24.52a.51.51,0,0,1,.28-.33.5.5,0,0,1,.43,0l2,1a.52.52,0,0,1,.27.57l-4.4,20.31,9.65-9.66a.53.53,0,0,1,.72,0l2.26,2.26a.51.51,0,0,1,0,.71L33.14,53.46v2.28c.23.2.47.38.72.56a7.91,7.91,0,0,0,6.52-7.18s5,.62,7.5-3.5-1.5-7.75-1.5-7.75a7.53,7.53,0,0,0,2-8.75c-2.25-5.38-6.5-4.25-6.5-4.25s2.13-6-3.25-9.25c-4-2.42-7.72-.07-9.36,1.3a3.77,3.77,0,0,1,2.52,1,.51.51,0,1,1-.66.77,2.67,2.67,0,0,0-2.23-.74,5,5,0,0,0-2.75,2,4.7,4.7,0,0,1,3.16.25.51.51,0,0,1-.38.94A3.45,3.45,0,0,0,26.07,21a4.39,4.39,0,0,0-2,2.43.5.5,0,0,1-.48.35.39.39,0,0,1-.15,0,.49.49,0,0,1-.33-.63,5.73,5.73,0,0,1,1.68-2.51,2.75,2.75,0,0,0-2.11-.12,5,5,0,0,0-2.3,2.62.51.51,0,0,1-.47.33.57.57,0,0,1-.18,0,.52.52,0,0,1-.3-.66,6,6,0,0,1,2.87-3.2,3.61,3.61,0,0,1,2.77.07,7.21,7.21,0,0,1,2.81-2.46c-.81-.7-2.7-1.72-6.38-.84-5.25,1.25-5.88,7.37-5.88,7.37a5.45,5.45,0,0,0-6.87,3c-2.38,4.75,3,7.25,3,7.25a10,10,0,0,0-3.09,5.19.49.49,0,0,1,0,.24s-.21,2.44,1,3.7a2.66,2.66,0,0,0,2.17.77.53.53,0,0,1,.53.49.51.51,0,0,1-.49.52h-.22a3.69,3.69,0,0,1-2.15-.63,6.61,6.61,0,0,0,5.22,3.6c.37,9.12,10.59,7.9,10.59,7.9V54Z"/><path class="cls-5" d="M11.48,14a7,7,0,0,0-.91-.07A6.1,6.1,0,0,0,6.62,24.66a.51.51,0,0,1,.18.46.52.52,0,0,1-.3.39A9.06,9.06,0,0,0,5,41.35C3.83,39,0,29.19,7.63,26c0,0-3.5-5.17-.33-8.75,1.83-2.07,3.21-2.75,4.05-2.95C11.4,14.16,11.43,14.07,11.48,14Z"/><path class="cls-5" d="M51.6,25.28c1.61,1.78,4.83,5.86,4.2,9.5s-3.28,6.45-4.73,7.83a9.07,9.07,0,0,0,.53-17.33Z"/><path class="cls-5" d="M50.63,17.87c1.34,2.07.58,5,.23,6.08l0,.05a6.09,6.09,0,0,0-4-10.06.51.51,0,0,1-.45-.42A7.91,7.91,0,0,0,33.73,8.71a.5.5,0,0,1-.47.09.51.51,0,0,1-.33-.34,10.35,10.35,0,0,0-20.28,2.89,10.25,10.25,0,0,0,.12,1.45A3.4,3.4,0,0,1,14,12.48c-.07-2,.18-8,6.13-9.36,8.92-2,12.25,6.5,12.25,6.5s5-3,9.42,1,3.66,6.25,3.66,6.25S49,15.28,50.63,17.87Z"/><path class="cls-1" d="M26.38,90.87h0v.52h5.77V80.34C31,84.6,29.21,89.1,26.38,90.87Z"/><path class="cls-5" d="M26.36,91.4h1.53L28,53.12,18.13,42.63l-.52.47,8.64,10.34a.52.52,0,0,1,.11.32V91.4Z"/><polyline class="cls-5" points="24.88 34.99 28.63 49.12 27.13 48.74 23.88 35.62 25.38 34.99"/><path class="cls-6" d="M43.59,36.78,32.72,47.66l4.76-22-2-1-1.71,6.47c-1-1.55-2.64-3.79-2.64-3.79L30,29,33,34,29.79,46.23,26.28,34.69l-3,1,4,13.05-8.53-7.36-1.84,1.68,9,10.7V91.9h6.77V53.26L45.85,39Z"/><path class="cls-6" d="M58.24,33.86a9.6,9.6,0,0,0-7.18-9.29,6.61,6.61,0,0,0-4.12-11.14,8.42,8.42,0,0,0-8.29-6.95,8.32,8.32,0,0,0-5.23,1.84,10.85,10.85,0,0,0-21,5.34,6.84,6.84,0,0,0-1.82-.26A6.61,6.61,0,0,0,6.29,25,9.6,9.6,0,0,0,8.75,43.35a11.68,11.68,0,0,0-.23,2.31A11.8,11.8,0,0,0,25.86,56.08V53.76l-8.95-10.7,1.84-1.68,8.53,7.36-4-13.05,3-1,3.51,11.54L33,34,30,29l1.17-1.67s1.6,2.24,2.64,3.79l1.71-6.47,2,1-4.76,22L43.59,36.78,45.85,39,32.63,53.26V56A10.85,10.85,0,0,0,49.72,43.39,9.6,9.6,0,0,0,58.24,33.86Z"/><path class="cls-6" d="M11.89,17.46s-1.17-2.24.5-3.8,4.52-.05,4.52-.05"/><path class="cls-6" d="M19.92,23s1.67-4.52,5.35-2.67c0,0,2.85-4.86,6.19-2"/><path class="cls-6" d="M23.6,23.32s1.34-4.35,5.52-2.68"/><path class="cls-6" d="M8.21,39.38s-.5,5.18,3.68,5"/><path class="cls-6" d="M48,22.81S51.54,23,50.7,27"/></g></g></svg>