<svg xmlns="http://www.w3.org/2000/svg" viewBox="0 0 58.16 85.39"><defs><style>.cls-1{fill:#2bc0e2;}.cls-2{fill:#231f20;}.cls-3{fill:#fff;}.cls-4{fill:none;stroke:#231f20;stroke-linecap:round;stroke-linejoin:round;}</style></defs><g id="Layer_2" data-name="Layer 2"><g id="OBJECTS"><path class="cls-1" d="M22.46,48.29C23,50,26.65,50.66,28,50.79a.53.53,0,0,1,.39.24.36.36,0,0,1,.07.17c2.43-.53,8.17-2.07,1.37-3.47-3.2-.66-4.82-1.62-5.57-2.6C23.07,46.26,22.17,47.42,22.46,48.29Z"/><path class="cls-2" d="M57.33,82.23c0,1.75-12.83,3.16-28.66,3.16S0,84,0,82.23s12.83-3.17,28.67-3.17S57.33,80.48,57.33,82.23Z"/><path class="cls-3" d="M16,1l-1.09,0C22,2.48,30.56,6.2,32.13,15.79c.92,5.61.15,7.2-.73,9.05a12.43,12.43,0,0,0-1.35,4.41,36.46,36.46,0,0,0-.19,6.22c.08,2.7.14,4.84-1.3,6.1-.43.38-1,.82-1.57,1.27-2,1.57-5,3.95-4.53,5.45C23,50,26.65,50.66,28,50.79a.53.53,0,0,1,.39.24.55.55,0,0,1,.08.45,20,20,0,0,0-.87,5.37c2.09.35,8.71,1.68,8.71,4.65a.55.55,0,0,1-.43.53,26.23,26.23,0,0,1-4.91.52A10.63,10.63,0,0,1,27.29,62a25.61,25.61,0,0,1-23,19.69A41.17,41.17,0,1,0,16,1ZM41.07,37.15a.54.54,0,0,1-.77-.07c-3.54-4.26-7-2.31-7.12-2.23a.54.54,0,1,1-.56-.93S37,31.4,41.14,36.39A.54.54,0,0,1,41.07,37.15Z"/><path class="cls-1" d="M54.79,42.21A41.2,41.2,0,0,0,15,1.08c2.07.3,31.25,5.1,33.18,35.32S35.68,80.92,6.43,81.4c-.7.12-1.4.22-2.14.3A40.94,40.94,0,0,0,15,83.34,41.21,41.21,0,0,0,54.79,42.21Z"/><path class="cls-4" d="M16,.5a42.42,42.42,0,0,0-5.89.42c6.7.59,19.62,3.26,21.54,15,1.43,8.75-1.31,7.3-2.09,13.3s.78,10.16-1.3,12-7,4.95-6.26,7.3,6,2.86,6,2.86-1.31,4.7-.79,6c0,0,8.61,1.3,8.61,4.17,0,0-6,1.3-8.87-.26,0,0-3.11,19.49-25.41,20.1A41.71,41.71,0,1,0,16,.5Z"/><path class="cls-4" d="M32.9,34.39s3.91-2.35,7.82,2.34"/></g></g></svg>