<svg xmlns="http://www.w3.org/2000/svg" viewBox="0 0 62.84 103.36"><defs><style>.cls-1{fill:#231f20;}.cls-2{fill:#fff460;}.cls-3{fill:#eaab40;}.cls-4{fill:#2b799d;}.cls-5{fill:#fff;}.cls-6{fill:none;stroke:#231f20;stroke-linecap:round;stroke-linejoin:round;}</style></defs><g id="Layer_2" data-name="Layer 2"><g id="OBJECTS"><path class="cls-1" d="M49,99.28c0,2.26-9.78,4.08-21.84,4.08S5.34,101.54,5.34,99.28s9.77-4.07,21.83-4.07S49,97,49,99.28Z"/><path class="cls-2" d="M41.5,62.29h0a6.26,6.26,0,0,1,.61.21l.15,0a4.84,4.84,0,0,1,.47.21l.26.12.35.2.33.2.26.18c.14.09.26.19.39.29l.19.15.4.37.14.14a5.22,5.22,0,0,1,.39.43l.11.13a5.6,5.6,0,0,1,.36.49l.09.12.32.52c0,.05,0,.1.08.14s.18.36.26.55.05.1.07.16a5.14,5.14,0,0,1,.2.55,1.34,1.34,0,0,1,.07.18c0,.19.1.37.14.56a1.6,1.6,0,0,1,0,.21,5.62,5.62,0,0,1,.09.57l0,.21a7.32,7.32,0,0,1,0,.81,8.06,8.06,0,0,1-16.12,0,8.28,8.28,0,0,1,.07-1,2.93,2.93,0,0,1,.05-.29,6.85,6.85,0,0,1,.16-.76l.06-.24a8.92,8.92,0,0,1,.33-.91c0-.08.08-.15.11-.22a5.7,5.7,0,0,1,.37-.69s0-.11.08-.16l-1.35-2.82L24,48l-.39.39c-.2.21-.4.42-.58.64s-.4.49-.59.74-.35.46-.51.7a8.57,8.57,0,0,0-.52.81c-.15.24-.31.49-.45.75s-.3.58-.45.87-.26.52-.37.79-.26.63-.39.94-.21.55-.31.83-.2.67-.3,1-.17.57-.25.86-.16.7-.23,1.06-.13.59-.18.89-.11.73-.15,1.1-.09.6-.12.91-.05.76-.08,1.15,0,.61-.05.92,0,.79,0,1.19,0,.62,0,.94.05.81.09,1.23,0,.62.07.93.11.85.17,1.27.08.61.14.92.17.88.26,1.32c.06.29.12.59.19.89.11.47.24.93.37,1.39.08.28.14.56.23.83.15.52.34,1,.52,1.54.08.23.14.46.23.68.27.74.57,1.48.9,2.21C26.19,89.79,35.73,97.27,45,97.27A15.51,15.51,0,0,0,51.3,96c.23-.1.45-.22.67-.33s.41-.21.63-.34h0c4.27-2.41,7.28-6.82,8.55-12.61a33.62,33.62,0,0,0-2.54-20.6C53.68,50.94,44.14,43.46,34.88,43.46a16,16,0,0,0-3.61.41l5.19,10.8L40,62A8.38,8.38,0,0,1,41.5,62.29ZM51.56,82a.56.56,0,0,1,.76.34l.87,3a.55.55,0,0,1-.31.65L44,89.73a.54.54,0,0,1-.22,0,.48.48,0,0,1-.2,0,.53.53,0,0,1-.3-.29l-1-2.43a.54.54,0,0,1,.27-.7Z"/><path class="cls-3" d="M32.38,65.92s0-.11.08-.16l0,0-.14.34A1.09,1.09,0,0,1,32.38,65.92Z"/><path class="cls-3" d="M35.09,80c4.92,2.19,8.06-1.2,9.75-4.16A8,8,0,0,1,31.23,70a7.48,7.48,0,0,1,.07-1C30.38,72.7,30.14,77.83,35.09,80Z"/><polygon class="cls-3" points="52.01 85.1 51.46 83.22 43.46 87.06 44.09 88.52 52.01 85.1"/><path class="cls-1" d="M48.33,98l-.34.06-.64.1-.36,0-.68.06-.32,0c-.33,0-.66,0-1,0h0c-9.68,0-19.62-7.74-24.73-19.26-.34-.76-.65-1.53-.94-2.3-.05-.14-.09-.29-.14-.43-.23-.63-.45-1.25-.64-1.88l-.2-.77c-.15-.51-.3-1-.42-1.55-.07-.3-.12-.6-.18-.9-.1-.47-.2-.94-.28-1.4s-.09-.65-.14-1-.13-.88-.17-1.32,0-.66-.07-1S17,65.74,17,65.32s0-.67,0-1,0-.81,0-1.22,0-.66.06-1,.05-.78.09-1.17.09-.65.13-1,.1-.76.17-1.13.13-.64.2-1,.15-.73.25-1.08.18-.61.27-.92.2-.69.32-1,.23-.58.34-.87.26-.66.4-1,.27-.55.41-.83.31-.62.48-.91.32-.52.48-.78.35-.58.55-.85.37-.48.55-.72.41-.53.62-.78.42-.44.63-.66.35-.39.53-.57l0-.07-.62-1.29a5.89,5.89,0,0,0-.58.24c-5.27,2.34-9,7.35-10.48,14.1a35.73,35.73,0,0,0,2.7,21.87C19.54,93.21,29.64,101.2,39,101.2a13.18,13.18,0,0,0,5.45-1.12l.81-.35c1.22-.54,2.66-1.19,4-1.91l-.16,0C48.85,97.92,48.59,98,48.33,98Z"/><path class="cls-3" d="M15,4.66l-3.37,2a.79.79,0,0,0-.12,1.06.8.8,0,0,0,1,.41l3-1.77h0l1.65-.95a.53.53,0,0,0,.25-.4,1,1,0,0,0-.13-.66.89.89,0,0,0-.73-.48.48.48,0,0,0-.24.07L15,4.66Z"/><path class="cls-1" d="M33.06,66.91l-.1.22a6.65,6.65,0,0,0-.33.84s0,0,0,.06a8.45,8.45,0,0,0-.19.84l0,.24a5.74,5.74,0,0,0-.07.93,7,7,0,0,0,14,0,5.53,5.53,0,0,0,0-.71.77.77,0,0,0,0-.15c0-.18-.05-.36-.08-.53s0-.09,0-.14S46,68.15,46,68s0-.07,0-.11a4.81,4.81,0,0,0-.2-.53.36.36,0,0,0,0-.09c-.07-.17-.16-.35-.25-.52a.43.43,0,0,0,0-.07l-.3-.5L45,66.08a5.3,5.3,0,0,0-.34-.45l-.09-.1a3.25,3.25,0,0,0-.35-.39L44.12,65c-.11-.1-.22-.21-.34-.3l-.21-.17a3.3,3.3,0,0,0-.3-.22l-.3-.2L42.74,64l-.41-.21-.15-.08-.52-.21-.07,0a6.75,6.75,0,0,0-2-.38h-.33a7.16,7.16,0,0,0-.8,0l-.22,0-.56.11-.25.06-.51.17-.24.08c-.18.07-.36.16-.54.25l-.17.08c-.22.12-.43.25-.64.39l-.21.16-.39.3-.24.22-.32.33a2.39,2.39,0,0,0-.22.23l-.36.47a1.34,1.34,0,0,1-.11.14Q33.27,66.51,33.06,66.91Z"/><path class="cls-4" d="M40.29,74.68a7,7,0,0,1-7-7,5.62,5.62,0,0,1,.07-.92l0-.24c0-.14.06-.27.09-.41q-.24.38-.45.78l-.1.22a6.65,6.65,0,0,0-.33.84s0,0,0,.06a8.45,8.45,0,0,0-.19.84l0,.24a5.74,5.74,0,0,0-.07.93,7,7,0,0,0,13.77,1.53A7,7,0,0,1,40.29,74.68Z"/><path class="cls-3" d="M7.12,10.35A1.05,1.05,0,0,0,7,9.69a1.55,1.55,0,0,0-.19-.24l0,0a.74.74,0,0,0-.22-.14h0a.61.61,0,0,0-.51,0L2.48,11.32h0L1.31,12a.77.77,0,0,0-.13,1.05.79.79,0,0,0,1,.41l4.7-2.72A.56.56,0,0,0,7.12,10.35Z"/><path class="cls-3" d="M13.71,12.54a.79.79,0,0,0,1,.41l2.93-1.69h0l1.78-1a.54.54,0,0,0,.24-.34,1,1,0,0,0-.12-.71.89.89,0,0,0-.73-.49.48.48,0,0,0-.24.07l-4.71,2.72A.78.78,0,0,0,13.71,12.54Z"/><path class="cls-3" d="M9.28,15.28a.94.94,0,0,0-.12-.72A.88.88,0,0,0,9,14.32l0,0a.77.77,0,0,0-.21-.14h0a.58.58,0,0,0-.5,0L5.37,15.77h0L3.49,16.87a.77.77,0,0,0-.13,1.05.79.79,0,0,0,1,.42L9,15.61A.49.49,0,0,0,9.28,15.28Z"/><path class="cls-3" d="M12.29,20.94l20.9,43.84a3.31,3.31,0,0,1,.26-.27l.2-.22L34,64l.23-.19c.12-.1.25-.19.38-.28a2.48,2.48,0,0,1,.26-.19l.37-.23.32-.17c.12-.07.24-.12.36-.18l.37-.16.35-.13.4-.13.37-.09a2.71,2.71,0,0,1,.41-.09l.39-.06.4-.05.16,0-1.45-3L18.13,19.06a.55.55,0,0,1,0-.4L19,15.8l-1.36-3.29-2.4,1.38a1.51,1.51,0,0,1-.79.21,2,2,0,0,1-1.66-1,1.85,1.85,0,0,1,.52-2.54l2.83-1.63-.56-1.35L13.05,9a2,2,0,0,1-.34.14l-.25,0h-.08l-.12,0-.19,0h0a2,2,0,0,1-.89-.38L11,8.73l-.17-.17a1.91,1.91,0,0,1-.27-.35,1.85,1.85,0,0,1,.52-2.54l3-1.71L13,1.29,1.29,8.42l1.1,1.7L5.47,8.33a1.88,1.88,0,0,1,2.46.82,2.07,2.07,0,0,1,.25,1.39,1.63,1.63,0,0,1-.77,1.14L4.49,13.37l.78,1.21.64-.37,1.74-1a1.74,1.74,0,0,1,.4-.15,1.09,1.09,0,0,1,.25,0,2,2,0,0,1,1.8,1,2.05,2.05,0,0,1,.23,1.54,1.6,1.6,0,0,1-.74,1L7.38,17.83l1.68,2.59,2.79.21A.55.55,0,0,1,12.29,20.94Z"/><path class="cls-3" d="M51.3,96c.23-.1.45-.22.67-.33s.41-.21.63-.34h0c4-2.23,6.8-6.19,8.21-11.35A30.44,30.44,0,0,1,49,88c-.43.07-.84.12-1.26.17L44,89.73a.54.54,0,0,1-.22,0,.48.48,0,0,1-.2,0,.53.53,0,0,1-.3-.29l-.5-1.18c-12.4-.72-19.91-9.93-24.33-19a5.21,5.21,0,0,0,.08.55c.07.44.17.88.26,1.32.06.29.12.59.19.89.11.47.24.93.37,1.39.08.28.14.56.23.83.15.52.34,1,.52,1.54.08.23.14.46.23.68.27.74.57,1.48.9,2.21C26.19,89.79,35.73,97.27,45,97.27A15.51,15.51,0,0,0,51.3,96Z"/><path class="cls-3" d="M20.26,79.1c-.34-.76-.65-1.53-.94-2.3-.05-.14-.09-.29-.14-.43-.23-.63-.45-1.25-.64-1.88l-.2-.77c-.15-.51-.3-1-.42-1.55-.07-.3-.12-.6-.18-.9-.1-.47-.2-.94-.28-1.4s-.09-.65-.14-1-.13-.88-.17-1.32,0-.66-.07-1S17,65.74,17,65.32s0-.67,0-1,0-.81,0-1.22,0-.66.06-1c0-.16,0-.32,0-.49a53.14,53.14,0,0,0-5.3,11.84,40.68,40.68,0,0,0,2.67,8.3c3.46,7.81,9.27,14,15.59,17.16,3.32,0,6.16-.81,7.64-2C30.6,94.2,24.08,87.71,20.26,79.1Z"/><polygon class="cls-1" points="11.85 20.63 18.1 18.66 19.17 19.95 12.51 22.28 11.85 20.63"/><polygon class="cls-1" points="13.34 21.28 45.84 86.45 47.17 86.28 13.84 20.62 13.34 21.28"/><path class="cls-5" d="M41,76.79a6.32,6.32,0,0,0,1.13-.4L35.85,64c-.16.09-.33.19-.49.3l-.21.16-.21.16Z"/><polygon class="cls-1" points="15.84 20.12 48.34 85.62 49.17 84.95 16.84 19.95 15.84 20.12"/><path class="cls-5" d="M43.4,75.66a6.63,6.63,0,0,0,.81-.68L38.32,63.14h0l-.56.11-.25.06-.16,0Z"/><path class="cls-6" d="M51.52,96.45c-10.6,4.71-24.37-3.16-30.77-17.57C15.3,66.61,17,53.55,24.13,47l-1-2.18c-.37.13-.73.27-1.08.43C10.78,50.28,7.18,66.7,14,82s21.34,22.83,30.73,18.6c2.48-1.12,6.47-2.74,8.18-4.82Q52.21,96.14,51.52,96.45Z"/><path class="cls-6" d="M46.81,70a7.52,7.52,0,1,1-7.52-7.52A7.52,7.52,0,0,1,46.81,70Z"/><path class="cls-6" d="M59.11,61.85c-6-13.46-18.38-21.2-28.62-18.34l9.15,19a7.52,7.52,0,1,1-6.56,3.27L24.13,47C17,53.55,15.3,66.61,20.75,78.88c6.4,14.41,20.17,22.28,30.77,17.57S65.51,76.25,59.11,61.85Z"/><polygon class="cls-6" points="42.76 86.8 51.8 82.45 52.67 85.41 43.8 89.23 42.76 86.8"/><path class="cls-6" d="M7.46,9.42a1.3,1.3,0,0,1-.32,1.79L2.43,13.93a1.28,1.28,0,0,1-1.71-.61h0A1.29,1.29,0,0,1,1,11.52L5.74,8.8a1.31,1.31,0,0,1,1.72.62Z"/><path class="cls-6" d="M9.63,14.29a1.28,1.28,0,0,1-.32,1.79L4.61,18.8a1.29,1.29,0,0,1-1.72-.61h0a1.3,1.3,0,0,1,.32-1.79l4.71-2.73a1.29,1.29,0,0,1,1.71.62Z"/><path class="cls-6" d="M17.8,4a1.3,1.3,0,0,1-.32,1.8l-4.7,2.72a1.3,1.3,0,0,1-1.72-.61h0a1.31,1.31,0,0,1,.32-1.8l4.71-2.72A1.29,1.29,0,0,1,17.8,4Z"/><path class="cls-6" d="M20,8.9a1.3,1.3,0,0,1-.32,1.8L15,13.42a1.29,1.29,0,0,1-1.71-.61h0a1.31,1.31,0,0,1,.32-1.8l4.7-2.72A1.3,1.3,0,0,1,20,8.9Z"/><path class="cls-6" d="M18.62,18.82l.94-3.05-1.68-4L15,13.42a1.29,1.29,0,0,1-1.71-.61,1.31,1.31,0,0,1,.32-1.8L16.8,9.14l-1-2.36L12.78,8.55a1.3,1.3,0,0,1-1.72-.61,1.31,1.31,0,0,1,.32-1.8l3.37-1.95L13.22.5.53,8.25l1.68,2.6,3.53-2a1.31,1.31,0,0,1,1.72.62,1.3,1.3,0,0,1-.32,1.79l-3.41,2L5.1,15.3l2.82-1.63a1.29,1.29,0,0,1,1.71.62,1.28,1.28,0,0,1-.32,1.79L6.62,17.64l2.13,3.3,3.06.23L33.08,65.81a7.49,7.49,0,0,1,6.21-3.29l.35,0Z"/></g></g></svg>