<svg xmlns="http://www.w3.org/2000/svg" viewBox="0 0 63.36 81.34"><defs><style>.cls-1{fill:#231f20;}.cls-2{fill:#eaab40;}.cls-3{fill:#e6305e;}.cls-4{fill:#2b799d;}.cls-5{fill:#fff460;}.cls-6{fill:#97305e;}.cls-7{fill:none;stroke:#231f20;stroke-linecap:round;stroke-linejoin:round;}</style></defs><g id="Layer_2" data-name="Layer 2"><g id="OBJECTS"><path class="cls-1" d="M58.19,77.88c0,1.59-9.74,2.87-21.75,2.87s-21.75-1.28-21.75-2.87S24.43,75,36.44,75,58.19,76.29,58.19,77.88Z"/><path class="cls-1" d="M18.44,60.36a7.5,7.5,0,0,0,7.33,5.09c6,.16,9.75.16,9.75.16a7.41,7.41,0,0,0,.59,5.46s.08-3.42,1.41-4.42a4.55,4.55,0,0,0,3.42,2.17s-2.25-2.5-2.33-4.21A23.08,23.08,0,0,0,42,62.32s-3.91.33-6.25.42c0,0-6.84.75-10.53-2.36L24.86,60c-3.5-3.5-6.75.17-6.75.17"/><path class="cls-2" d="M12.52,20.05l.16-.1a12.23,12.23,0,0,0,1.59-1.31l.3-.29s.09-.1.16-.16l.65-.73,0,0c-.21-1-1.32-5.26-5.58-5.26h-.2a8.92,8.92,0,0,0-1.39.17c-3.78.8-5.61,2.61-6.48,4a10.29,10.29,0,0,1,5.55-1.8A8.93,8.93,0,0,1,13,16.64a.5.5,0,0,1,.07.72A9,9,0,0,1,6.6,20.13H6.14a5.61,5.61,0,0,0,3.09,1,5.91,5.91,0,0,0,2.8-.77C12.19,20.25,12.36,20.16,12.52,20.05Z"/><path class="cls-3" d="M6.66,33.44h0a3.11,3.11,0,0,0,2.16,1.06c1.11,0,2.3-.83,3.36-2.34a14.81,14.81,0,0,0,1.74-3.52.3.3,0,0,1,0-.1c.08-.24.15-.47.22-.71a.84.84,0,0,0,.05-.17l.18-.65.06-.24c0-.2.09-.4.13-.61a2.74,2.74,0,0,0,.05-.28c0-.19.07-.38.1-.57s0-.22.05-.32,0-.36.06-.54,0-.24,0-.35l0-.51c0-.13,0-.25,0-.38v-.86l0-.47,0-.39c0-.15,0-.29-.05-.44s0-.26-.06-.38-.05-.29-.08-.43-.05-.25-.08-.38,0-.09,0-.14l-.23.18-.45.38c-.12.09-.24.19-.36.27s-.38.27-.58.39l-.41.24-.18.1s-6.51,3.77-7.21,8a4.5,4.5,0,0,0,1.25,3.87A2.73,2.73,0,0,0,6.66,33.44Z"/><path class="cls-3" d="M23.34,9.6l.16.13.45.36a.49.49,0,0,1,.32-.2c.37-.05,3.62-.61,4.37-2.11a1.71,1.71,0,0,0-.14-1.62,2,2,0,0,0-2-1c-2.43,0-5.89,2-6.89,2.62A10.58,10.58,0,0,1,23.34,9.6Z"/><path class="cls-3" d="M13.05,8h0c.23-.08.47-.15.73-.22l.16,0c.27-.06.54-.13.83-.18h0c.32-.06.65-.1,1-.13h.15c.27,0,.54,0,.82,0H17l.69,0,.68.08.16,0a.52.52,0,0,1,.16-.38c.7-.67,2.44-2.76,2.15-4.31a2.38,2.38,0,0,0-1.65-1.67,2.17,2.17,0,0,0-.9-.19C15.74,1,13,5.36,11.6,8.71A7.81,7.81,0,0,1,13.05,8Z"/><path class="cls-4" d="M20.46,14.44A1.49,1.49,0,1,0,19,16,1.52,1.52,0,0,0,20.46,14.44Z"/><path class="cls-3" d="M24.72,10.85c.23.25.45.52.67.8s.22.32.33.49.24.34.35.53l.32.58c.1.18.18.35.27.54a6.36,6.36,0,0,1,.28.65l.08.16h.12c2.49,0,2.64-1.45,2.69-1.93a1.38,1.38,0,0,0-.31-1.1,4.42,4.42,0,0,0-3.14-.84A12.74,12.74,0,0,0,24.72,10.85Z"/><path class="cls-5" d="M56.38,26.22a9.28,9.28,0,0,0-5.74-2c-3.66,0-7.38,2.07-10.68,4.47a23.31,23.31,0,0,1-2.81,19.56c-2.31,3.33-5.33,5.16-8.52,5.16a10.44,10.44,0,0,1-5.5-1.72,10.18,10.18,0,0,1-5-7c-1-5.38,1.81-12.45,8.33-21l.45-.61A.47.47,0,0,1,27,23l.06-1.15a16.8,16.8,0,0,0-1-6.9c-.07-.18-.14-.36-.22-.53s-.21-.45-.33-.68-.26-.47-.4-.69l-.27-.43c-.12-.16-.24-.33-.36-.48s-.18-.22-.28-.33a9.75,9.75,0,0,0-5.95-3.29l-.26,0-.39,0c-.27,0-.54,0-.82,0h0a9.89,9.89,0,0,0-1.8.17c-.29,0-.55.11-.81.18l-.27.07L13.43,9l-.28.09-.39.17-.55.28-.18.1-.36.25-.09.07-.36.3,0,0a4,4,0,0,0-.35.36h0a4,4,0,0,0-.41.56c5.07.43,6,6.25,6,6.31a.62.62,0,0,1,0,.19h0a.5.5,0,0,1-.1.19c-.27.34-.55.65-.77.88-.05.05-.09.11-.14.15s.06.2.08.29l.12.41c0,.15.07.3.1.46s.06.28.08.43l.06.46.06.45,0,.47c0,.15,0,.31,0,.47v.95l0,.44,0,.52c0,.14,0,.28-.05.42s0,.36-.07.55,0,.24,0,.36-.07.4-.11.6l-.06.3c0,.22-.09.43-.14.65l-.06.21c-.06.24-.12.48-.19.71l0,.11A16.47,16.47,0,0,1,13,32.76c-1.27,1.8-2.71,2.76-4.18,2.76h0a3.72,3.72,0,0,1-2.21-.78,28.58,28.58,0,0,0,.25,13.53c3.21,11.87,12.6,13.15,16.49,13.15a12.22,12.22,0,0,0,1.51-.08.51.51,0,0,1,.56.38l2.25,9.14a.46.46,0,0,1-.09.42.48.48,0,0,1-.38.2c-3.41.1-4.86,1.34-5.48,2.38A7.13,7.13,0,0,1,25.33,73a9.15,9.15,0,0,1,2,.23.5.5,0,0,1,.32.28.51.51,0,0,1,0,.42c-1.25,2.68-.74,4.4-.05,5.39a7.85,7.85,0,0,1,1.45-5.19.5.5,0,0,1,.65-.13,15.62,15.62,0,0,0,4.59,1.76,10.75,10.75,0,0,0-4.15-2.83.5.5,0,0,1-.32-.46c0-.53-.12-13,5.25-14.12a6,6,0,0,1,1.28-.13,11.76,11.76,0,0,1,4.83,1.42,9.11,9.11,0,0,0,3.52,1.13,3.48,3.48,0,0,0,2.74-1.53c3.47-4.23-5.23-11.95-5.31-12a.5.5,0,0,1-.15-.54.52.52,0,0,1,.45-.34c9.07-.39,11.45,7.5,12.09,11.66A13.49,13.49,0,0,0,54,48.69c-2.58-5.6-8.82-7.86-8.89-7.88a.51.51,0,0,1-.33-.51.5.5,0,0,1,.41-.46,16.38,16.38,0,0,1,3.13-.32c8.14,0,11.68,6.93,12.88,10.17C62.28,45.21,64.59,32.43,56.38,26.22ZM16.47,14.44A2.5,2.5,0,1,1,19,17,2.54,2.54,0,0,1,16.47,14.44Z"/><path class="cls-6" d="M19.14,44.54a9.24,9.24,0,0,0,4.51,6.3,9.49,9.49,0,0,0,5,1.57c2.85,0,5.58-1.68,7.7-4.73a22.33,22.33,0,0,0,2.79-18.37l0,0-1,.77h0c-1,.82-2,1.63-2.89,2.37-2.26,1.9-4,3.4-5.27,3.67s-2.1.14-2.67-.46a3.29,3.29,0,0,1-.71-1.85,40.55,40.55,0,0,1,.17-6.42c.06-.81.12-1.67.17-2.61C20.82,32.94,18.22,39.57,19.14,44.54Z"/><path class="cls-3" d="M39.73,31.85a22.61,22.61,0,0,1-3.65,13.33c-2.12,3-4.85,4.73-7.7,4.73a9.49,9.49,0,0,1-5-1.57,9.25,9.25,0,0,1-4.43-6,11,11,0,0,0,.17,2.17,9.24,9.24,0,0,0,4.51,6.3,9.49,9.49,0,0,0,5,1.57c2.85,0,5.58-1.68,7.7-4.73A22.7,22.7,0,0,0,39.73,31.85Z"/><path class="cls-4" d="M41.63,27.54c-.56.37-1.12.75-1.67,1.15a23.31,23.31,0,0,1-2.81,19.56c-2.31,3.33-5.33,5.16-8.52,5.16a10.44,10.44,0,0,1-5.5-1.72,10.18,10.18,0,0,1-5-7c-1-5.38,1.81-12.45,8.33-21,0,0-17.88,13-19.52,24.83,3.27,11.62,12.55,12.89,16.41,12.89a12.22,12.22,0,0,0,1.51-.08.51.51,0,0,1,.56.38l0,.11C32,60.33,38.21,56,40.94,50.9a19.35,19.35,0,0,0,1.44-3.51,3,3,0,0,1-.24-.23.5.5,0,0,1-.15-.54.52.52,0,0,1,.45-.34h.24C44.53,38.85,42.57,30.72,41.63,27.54Z"/><path class="cls-3" d="M39.12,29.31l0,0-1,.77h0c-1,.82-2,1.63-2.89,2.37-2.26,1.9-4,3.4-5.27,3.67s-2.1.14-2.67-.46a3.29,3.29,0,0,1-.71-1.85,40.55,40.55,0,0,1,.17-6.42c.06-.81.12-1.67.17-2.61-.45.61-.87,1.2-1.29,1.79A19.47,19.47,0,0,0,25,38.9c1.89,7.33,9.09,6.64,14.48,1.15A21.44,21.44,0,0,0,39.12,29.31Z"/><path class="cls-4" d="M54.69,33.57C49.36,32.59,46,38,45,39.76c0,.09-.08.16-.11.22a.48.48,0,0,1,.25-.14,16.38,16.38,0,0,1,3.13-.32c8.14,0,11.68,6.93,12.88,10.17.07-.27.15-.58.22-.92C61,44.34,59.59,34.47,54.69,33.57Z"/><path class="cls-2" d="M27.34,73.18a.5.5,0,0,1,.32.28.51.51,0,0,1,0,.42c-1.25,2.68-.74,4.4-.05,5.39a7.85,7.85,0,0,1,1.45-5.19.5.5,0,0,1,.65-.13,15.62,15.62,0,0,0,4.59,1.76,10.75,10.75,0,0,0-4.15-2.83.5.5,0,0,1-.32-.46,37.25,37.25,0,0,1,.42-5.78,11.26,11.26,0,0,1-3.52.31l1,3.91a.46.46,0,0,1-.09.42.48.48,0,0,1-.38.2c-3.41.1-4.86,1.34-5.48,2.38A7.13,7.13,0,0,1,25.33,73,9.15,9.15,0,0,1,27.34,73.18Z"/><path class="cls-5" d="M13.69,42.07s0,16.17,9.5,15C23.19,57.07,9.69,60.9,13.69,42.07Z"/><circle class="cls-1" cx="19.52" cy="14.4" r="1.25"/><path class="cls-6" d="M14.52,26.61c0-.14.07-.29.1-.44a2.74,2.74,0,0,0,.05-.28c0-.19.07-.38.1-.57s0-.22.05-.32,0-.36.06-.54,0-.24,0-.35l0-.51c0-.13,0-.25,0-.38v-.86l0-.47,0-.39c0-.15,0-.29-.05-.44s0-.26-.06-.38-.05-.29-.08-.43-.05-.25-.08-.38,0-.09,0-.14l-.23.18-.45.38c-.12.09-.24.19-.36.27s-.38.27-.58.39l-.41.24-.18.1a25.41,25.41,0,0,0-2.9,2c-.8,2.31-.92,4.64,1.37,5.41C12.35,29.23,13.62,28.22,14.52,26.61Z"/><path class="cls-6" d="M15.09,16.32c-.57-1.62-2-4.15-5.27-4.15h-.2a8.92,8.92,0,0,0-1.39.17c-3.76.79-5.59,2.59-6.47,4C3.62,14.76,7.59,12.06,11,13.4,13.58,14.41,14.64,15.52,15.09,16.32Z"/><path class="cls-6" d="M24.72,10.85c.23.25.45.52.67.8s.22.32.33.49.24.34.35.53l.32.58.09.18a2.8,2.8,0,0,0,1-1.69,1.14,1.14,0,0,0-.42-1q-.34,0-.72,0A12.74,12.74,0,0,0,24.72,10.85Z"/><path class="cls-6" d="M24.86,6.24a3.11,3.11,0,0,0-2-.15,25.27,25.27,0,0,0-3.25,1.69A10.58,10.58,0,0,1,23.34,9.6S26,7.07,24.86,6.24Z"/><path class="cls-6" d="M23.34,9.6l.16.13.45.36a.49.49,0,0,1,.32-.2l.48-.09A13.9,13.9,0,0,0,23.34,9.6Z"/><path class="cls-6" d="M13.08,8c.23-.08.47-.15.73-.22l.16,0c.27-.06.54-.13.83-.18h0c.32-.06.65-.1,1-.13h.15c.27,0,.54,0,.82,0H17l.69,0,.68.08.16,0a.52.52,0,0,1,.16-.38S20.19,3.4,18,3.57c-1.57.12-4.65,3.07-6.21,4.66l-.21.48A7.81,7.81,0,0,1,13.05,8Z"/><path class="cls-1" d="M37.15,48.25c-2.31,3.33-5.33,5.16-8.52,5.16a10.44,10.44,0,0,1-5.5-1.72,10.26,10.26,0,0,1-4.81-6.28c.05,4.7,1.6,9.74,7.62,11,7.9,1.65,11.69-6.46,13.35-12.2A20,20,0,0,1,37.15,48.25Z"/><path class="cls-4" d="M41.19,59.59a9.11,9.11,0,0,0,3.52,1.13,3.48,3.48,0,0,0,2.74-1.53,3.62,3.62,0,0,0,.8-2.72c-1,1.18-2.89,1.69-5.06.18-3.25-2.25-8.11,1.65-8.11,1.65a6,6,0,0,1,1.28-.13A11.76,11.76,0,0,1,41.19,59.59Z"/><path class="cls-2" d="M16.43,17.5a.62.62,0,0,1,0,.19h0a.5.5,0,0,1-.1.19c-.23.28-.46.54-.65.76.64,2.06,2.53,5.92,7.52,3.92A8.62,8.62,0,0,0,27,18.83,14.9,14.9,0,0,0,26.07,15c-.07-.18-.14-.36-.22-.53s-.21-.45-.33-.68-.26-.47-.4-.69l-.27-.43c-.12-.16-.24-.33-.36-.48s-.18-.22-.28-.33a9.75,9.75,0,0,0-5.95-3.29l-.26,0-.39,0c-.27,0-.54,0-.82,0h0a9.89,9.89,0,0,0-1.8.17c-.29,0-.55.11-.81.18l-.27.07L13.43,9l-.28.09-.39.17-.55.28-.18.1-.36.25-.09.07-.36.3,0,0a4,4,0,0,0-.35.36h0a4,4,0,0,0-.41.56C15.5,11.62,16.42,17.44,16.43,17.5ZM19,11.87a2.57,2.57,0,1,1-2.5,2.57A2.53,2.53,0,0,1,19,11.87Z"/><path class="cls-5" d="M21.46,14.44a2.49,2.49,0,1,1-5,.14,3.46,3.46,0,0,0-.3,1.41,3.1,3.1,0,0,0,2.92,3.25A3.1,3.1,0,0,0,22,16a3.43,3.43,0,0,0-.59-2A2.6,2.6,0,0,1,21.46,14.44Z"/><path class="cls-7" d="M.5,17.93S6.4,12,12.64,17a8.43,8.43,0,0,1-8.15,2.33s5,6.1,11.44-1.79c0,0-1-7.17-7.8-5.73S.5,17.93.5,17.93Z"/><path class="cls-7" d="M12.16,20.84c-.05,0-11.47,6.6-6.11,12.68s11.43-7.47,8.79-14.72A10.82,10.82,0,0,1,12.16,20.84Z"/><path class="cls-7" d="M56.69,25.82c-10.41-7.89-22.89,9-26.88,9.85S27,32.81,27.55,21.87,20.79,7,14.89,8.07c-3.46.64-4.76,2.32-5.25,3.6,5.4-.15,6.29,5.9,6.29,5.9-.63.78-1.35,1.49-1.09,1.23,2.59,7.12-3.28,20.24-8.51,15A29.21,29.21,0,0,0,6.4,48.4C10.56,63.81,25,61.84,25,61.84L27.21,71c-6.42.18-6.42,4.3-6.42,4.3,2.43-2.69,6.42-1.61,6.42-1.61-2.43,5.2,1.38,7.17,1.38,7.17-1.56-3.23.87-6.46.87-6.46a14.69,14.69,0,0,0,5.72,2c-.69-2.33-4.85-4-4.85-4s-.18-12.54,4.85-13.62,8.85,5.38,12.66.72-5.37-12.72-5.37-12.72C54.26,46.25,54.26,60.4,54.26,60.4c5.72-14.87-9-20.07-9-20.07,12.83-2.51,16,11.11,16,11.11S67.09,33.7,56.69,25.82Z"/><path class="cls-7" d="M14.89,8.07a10.38,10.38,0,0,1,11.78,7c1.41.09,3.43-.16,3.66-2.36.32-3.17-5.22-2.45-6-2.34.77-.12,6.37-1.13,4.59-4.47C27,2.34,19.06,7.54,19.06,7.54s5-4.84.34-6.82c-3.95-1.66-7.91,6.39-8.94,9.58A7.35,7.35,0,0,1,14.89,8.07Z"/><path class="cls-7" d="M39.37,28.5c-4.26,3.15-7.77,6.77-9.56,7.17-3.81.86-2.88-2.54-2.33-12.35h-.1c-.17.53-17,19.89-4,28C35.09,58.52,43.7,40.1,39.37,28.5Z"/><path class="cls-7" d="M21,14.44a2,2,0,1,1-2-2.07A2,2,0,0,1,21,14.44Z"/></g></g></svg>