<svg xmlns="http://www.w3.org/2000/svg" viewBox="0 0 78.51 89.21"><defs><style>.cls-1{fill:#231f20;}.cls-2{fill:#2b799d;}.cls-3{fill:#315b8b;}.cls-4{fill:#e6305e;}.cls-5{fill:#eaab40;}.cls-6{fill:#fff460;}.cls-7{fill:#97305e;}.cls-8{fill:none;stroke:#231f20;stroke-linecap:round;stroke-linejoin:round;}</style></defs><g id="Layer_2" data-name="Layer 2"><g id="OBJECTS"><ellipse class="cls-1" cx="40.93" cy="86.77" rx="34.75" ry="2.44"/><path class="cls-2" d="M37.72,37.34l-.5,0,.86,32.06.16-.05a3.06,3.06,0,0,1,.43-.13,1.46,1.46,0,0,1,.22,0,2.3,2.3,0,0,1,.45,0h.08l.18,0a2.33,2.33,0,0,1,.38,0l.33.07a.53.53,0,0,1,.12,0l.86-31.87a18.64,18.64,0,0,0-2.15-.14C38.67,37.3,38.19,37.32,37.72,37.34Z"/><path class="cls-1" d="M63.73,31.12A17.22,17.22,0,0,0,53.13,35h0l0,0-.11.06,0,0a.57.57,0,0,1-.18,0h0a.47.47,0,0,1-.16,0h-.05a.68.68,0,0,1-.18-.13c-4.7-5.14-9.6-7.75-14.57-7.75-8,0-13.58,6.9-13.64,7s0,0-.08.07l0,0a.55.55,0,0,1-.69,0c-.34-.33-.68-.63-1-.92a12.29,12.29,0,0,0-7.85-3q-.62,0-1.23.06h0c-.38,0-.76.1-1.13.17l-.11,0a11.43,11.43,0,0,0-1.15.3h0c-5.1,1.54-9,5.73-9.74,6.56v2.83C6,38,10.35,36.75,14,36.75c6.43,0,9.06,3.57,9.88,5.1A24.55,24.55,0,0,1,36.4,36.37a.44.44,0,0,1,.22-.07l1.48-.07.81,0h.26c.92,0,1.83.05,2.73.13a.46.46,0,0,1,.28.11,24.7,24.7,0,0,1,10.59,4.3,20.41,20.41,0,0,1,12.36-4.29,22.87,22.87,0,0,1,12.1,3.68V37.51C73,33.27,68.41,31.12,63.73,31.12Z"/><path class="cls-3" d="M53.13,35h0l0,0-.11.06,0,0a.57.57,0,0,1-.18,0h0a.47.47,0,0,1-.16,0h-.05a.68.68,0,0,1-.18-.13c-4.7-5.14-9.6-7.75-14.57-7.75-8,0-13.58,6.9-13.64,7s0,0-.08.07l0,0a.55.55,0,0,1-.69,0c-.34-.33-.68-.63-1-.92a12.29,12.29,0,0,0-7.85-3q-.62,0-1.23.06h0c-.38,0-.76.1-1.13.17l-.11,0a11.43,11.43,0,0,0-1.15.3h0a20.77,20.77,0,0,0-7,3.92A27.74,27.74,0,0,1,14,32.5c6.43,0,9.06,3.57,9.88,5.1A24.47,24.47,0,0,1,36.4,32.12a.44.44,0,0,1,.22-.07L38.1,32l.81,0h.26c.92,0,1.83.05,2.73.13a.46.46,0,0,1,.28.11,24.7,24.7,0,0,1,10.59,4.3,20.41,20.41,0,0,1,12.36-4.29,21.15,21.15,0,0,1,6.52,1.05,16.27,16.27,0,0,0-7.92-2.15A17.22,17.22,0,0,0,53.13,35Z"/><path class="cls-4" d="M44.89,7.07c7.19,5.19,8.27,21.06,8.42,26.44A18.07,18.07,0,0,1,63.73,30c.31,0,.61,0,.91,0l.3,0c.2,0,.4,0,.6.06l.36,0,.54.08.38.07.52.11.39.09.5.14.39.11.5.16.39.14.49.19.39.16.49.22.39.18.49.25.37.19.52.3.34.2c.19.11.38.24.57.36l.29.18.85.6,0,0c.28.2.55.4.82.62l.27.23c.19.15.38.3.57.47l.32.28.4.36C75.59,29.48,68.84,8.56,44.89,7.07Z"/><path class="cls-2" d="M42.73,74.2A5.84,5.84,0,0,1,45.17,79,5.58,5.58,0,1,1,34,79a5.82,5.82,0,0,1,2.17-4.57,0,0,0,0,0,0,0A3.39,3.39,0,0,1,36,73.9a2.41,2.41,0,0,1-.08-.25c0-.13,0-.26-.05-.38s0-.2,0-.3a7.26,7.26,0,0,0-3.11,6,6.85,6.85,0,1,0,13.68,0A7.11,7.11,0,0,0,43,72.76v.08a4,4,0,0,1-.06.7A4.58,4.58,0,0,1,42.73,74.2Z"/><path class="cls-2" d="M37.06,72.1h0a2.37,2.37,0,0,0-.08.34,2.56,2.56,0,0,0,0,.39,2.32,2.32,0,0,0,0,.46l0,.16a2.76,2.76,0,0,0,.08.27,1.34,1.34,0,0,0,.07.18l.12.24.06.11h0a2.48,2.48,0,0,0,2.07,1.17,2.45,2.45,0,0,0,2.13-1.29v0a3.38,3.38,0,0,0,.22-.52s0-.1,0-.15a1.16,1.16,0,0,0,0-.18,3.27,3.27,0,0,0,0-.44,3.13,3.13,0,0,0,0-.44,3.89,3.89,0,0,0-.11-.43h0a2.54,2.54,0,0,0-1.07-1.35h0a2.28,2.28,0,0,0-.91-.33l-.21,0h-.22l-.22,0a2.43,2.43,0,0,0-.86.29l0,0a2.73,2.73,0,0,0-.3.21h0A2.68,2.68,0,0,0,37.06,72.1Z"/><path class="cls-1" d="M41.86,72.4a3.89,3.89,0,0,0-.11-.43h0a2.55,2.55,0,0,0-1-1.32s0,0,0,.07h0a3.89,3.89,0,0,1,.11.43,3.13,3.13,0,0,1,0,.44,3.27,3.27,0,0,1,0,.44,1.16,1.16,0,0,1,0,.18c0,.05,0,.1,0,.15a3.38,3.38,0,0,1-.22.52v0a2.45,2.45,0,0,1-2.13,1.29,2.35,2.35,0,0,1-1.3-.4l.05.12.12.24.06.11h0a2.48,2.48,0,0,0,2.07,1.17,2.45,2.45,0,0,0,2.13-1.29v0a3.38,3.38,0,0,0,.22-.52s0-.1,0-.15a1.16,1.16,0,0,0,0-.18,3.27,3.27,0,0,0,0-.44A3.13,3.13,0,0,0,41.86,72.4Z"/><path class="cls-4" d="M12.38,29.44h0l.87-.11.27,0q.41,0,.81,0h.12a13.44,13.44,0,0,1,8.78,3.47C23.52,27,25,13.37,32.35,7.81c-22,4-28.89,20.86-30.75,27.53C3.66,33.37,7.6,30.2,12.38,29.44Z"/><path class="cls-5" d="M36.44,6.19h.06a2.89,2.89,0,0,0,.9,0h.11l.41,0h.18c.39,0,.82-.06,1.28-.06s.89,0,1.29.06h.17c.34,0,.65,0,.92,0,.47,0,.55-.08.55-.08l0,0s0,0,0-.1c0-.6-.79-1.25-2-1.5h0a4.63,4.63,0,0,0-.47-.08c-.16,0-.33,0-.5,0s-.35,0-.51,0a4.63,4.63,0,0,0-.47.08h0c-1.19.24-2,.89-2,1.49a.29.29,0,0,0,0,.14Z"/><path class="cls-5" d="M39.38,1.08a4.28,4.28,0,0,0-.55,2.31l.55,0,.54,0A4.42,4.42,0,0,0,39.38,1.08Z"/><path class="cls-6" d="M42.84,7.13a1.42,1.42,0,0,1-.38.14l-.11,0-.24,0h-.32c-.29,0-.63,0-1,0a18.83,18.83,0,0,0-2.81,0l-.86,0h-.45l-.35-.05-1.12.12c-8.76,3.83-10.5,18.61-10.84,25a21.86,21.86,0,0,1,7.79-5.17l.12,0c.26-.1.53-.19.8-.27l.41-.12.63-.17c.23-.06.46-.1.7-.15l.43-.08q.54-.09,1.11-.15h.11c.44,0,.88-.06,1.34-.06a15.8,15.8,0,0,1,3.85.48h0l.9.26.13,0,.79.28.2.08.73.3.24.12.68.32.28.15.63.35.32.18.59.37.34.22.57.38.36.26.54.41.38.3c.17.13.34.28.51.42l.4.33.49.44.41.38.48.45.42.42c0,.05.11.1.16.16C52,27.4,50.8,10.63,42.84,7.13Z"/><path class="cls-1" d="M37.72,37.34l-.5,0,.08,3.07a36.42,36.42,0,0,0,3.84,2.77l.15-5.76a18.64,18.64,0,0,0-2.15-.14C38.67,37.3,38.19,37.32,37.72,37.34Z"/><path class="cls-7" d="M14.47,29.27a13.44,13.44,0,0,1,8.78,3.47c.08-1.66.26-4,.64-6.57A124.16,124.16,0,0,1,6.6,24.35a40.13,40.13,0,0,0-5,11c2.06-2,6-5.14,10.78-5.9h0l.87-.11.27,0q.41,0,.81,0Z"/><path class="cls-5" d="M51.16,32.25l.48.45.42.42c0,.05.11.1.16.16a76.12,76.12,0,0,0-1.15-11c-2.32,1.8-5.71,3.11-10.52,3.53A134.13,134.13,0,0,1,25,26.21c-.36,2.39-.53,4.55-.62,6.18a21.86,21.86,0,0,1,7.79-5.17l.12,0c.26-.1.53-.19.8-.27l.41-.12.63-.17c.23-.06.46-.1.7-.15l.43-.08q.54-.09,1.11-.15h.11c.44,0,.88-.06,1.34-.06a15.8,15.8,0,0,1,3.85.48h0l.9.26.13,0,.79.28.2.08.73.3.24.12.68.32.28.15.63.35.32.18.59.37.34.22.57.38.36.26.54.41.38.3c.17.13.34.28.51.42l.4.33.49.44Z"/><path class="cls-7" d="M54.88,9.06c1.06,4.1.7,8.94-2.88,12.38a75.47,75.47,0,0,1,1.31,12.07A18.07,18.07,0,0,1,63.73,30c.31,0,.61,0,.91,0l.3,0c.2,0,.4,0,.6.06l.36,0,.54.08.38.07.52.11.39.09.5.14.39.11.5.16.39.14.49.19.39.16.49.22.39.18.49.25.37.19.52.3.34.2c.19.11.38.24.57.36l.29.18.85.6,0,0c.28.2.55.4.82.62l.27.23c.19.15.38.3.57.47l.32.28.4.36C75.83,30.48,70.82,14.73,54.88,9.06Z"/><path class="cls-3" d="M34.61,76.37a5.76,5.76,0,0,1,1.58-2,0,0,0,0,0,0,0A3.39,3.39,0,0,1,36,73.9a2.41,2.41,0,0,1-.08-.25c0-.13,0-.26-.05-.38s0-.2,0-.3a7.1,7.1,0,0,0-2.08,2.25A5.91,5.91,0,0,0,34.61,76.37Z"/><path class="cls-3" d="M44.45,76.15a6.18,6.18,0,0,0,.78-1.22A6.77,6.77,0,0,0,43,72.76v.08a4,4,0,0,1-.06.7,4.58,4.58,0,0,1-.19.66A5.75,5.75,0,0,1,44.45,76.15Z"/><path class="cls-8" d="M.5,37.29s11.85-14.24,23.23-3.41c0,0,13.15-16.63,29,.76,0,0,11.74-10.71,25,2.65v3.9s-12.21-9.57-25,.25c0,0-13.86-11.34-29,1.26,0,0-4-11.08-23.23-1.51Z"/><path class="cls-8" d="M42.89,6c0,1.19-1.57.63-3.51.63s-3.52.56-3.52-.63S37.44,3.9,39.38,3.9,42.89,4.86,42.89,6Z"/><path class="cls-8" d="M42.74,6.5c-.42.54-1.76.17-3.36.17a16.67,16.67,0,0,1-3,0l-1.3.14c-9.9,4.25-11.15,21.76-11.3,27,.41-.51,13.39-16.33,29,.78a.07.07,0,0,0,0,0C52.74,30.46,52,10.12,42.74,6.5Z"/><path class="cls-8" d="M78,37.66S73.68,6.86,42.79,6.44c-.36.63-1.75.23-3.41.23a15.12,15.12,0,0,1-3.06,0C7.45,9.58,1.36,33.5.6,37.17c1.09-1.26,12.32-13.58,23.13-3.29,0,0,13.15-16.63,29,.76,0,0,11.74-10.71,25,2.65v.32Z"/><path class="cls-8" d="M39.38,3.9A5.31,5.31,0,0,1,40.45,4c0-.13,0-.25,0-.37C40.47,1.91,40,.5,39.38.5s-1.09,1.41-1.09,3.15c0,.12,0,.24,0,.37A5.33,5.33,0,0,1,39.38,3.9Z"/><path class="cls-8" d="M42.44,72.84a3,3,0,1,1-3-3.14A3.08,3.08,0,0,1,42.44,72.84Z"/><path class="cls-8" d="M39.42,69.7a2.88,2.88,0,0,1,1.53.45l.9-33.27a34.31,34.31,0,0,0-5.19,0l.91,33.54A2.9,2.9,0,0,1,39.42,69.7Z"/><path class="cls-8" d="M42.26,71.8a3.2,3.2,0,0,1,.18,1A3.16,3.16,0,0,1,42,74.4,5.23,5.23,0,0,1,44.62,79a5,5,0,1,1-10.06,0,5.27,5.27,0,0,1,2.33-4.41A3.07,3.07,0,0,1,36.54,72a7.7,7.7,0,0,0-4.33,7A7.39,7.39,0,1,0,47,79,7.66,7.66,0,0,0,42.26,71.8Z"/></g></g></svg>