<svg xmlns="http://www.w3.org/2000/svg" viewBox="0 0 65.61 75.22"><defs><style>.cls-1{fill:#231f20;}.cls-2,.cls-6{fill:#eaab40;}.cls-3{fill:#33ab4d;}.cls-4{fill:#e6305e;}.cls-5{fill:#fff460;}.cls-6{stroke:#262262;stroke-width:0;}.cls-6,.cls-9{stroke-linecap:round;stroke-linejoin:round;}.cls-7{fill:#ff90bd;}.cls-8{fill:#33744d;}.cls-9{fill:none;stroke:#231f20;}</style></defs><g id="Layer_2" data-name="Layer 2"><g id="OBJECTS"><ellipse class="cls-1" cx="32" cy="71.47" rx="32" ry="3.75"/><path class="cls-2" d="M42.09,57.5c-.06-.16-.11-.33-.16-.5s0-.11,0-.17a5,5,0,0,1-.11-.53s0,0,0-.07c0-.2,0-.4-.07-.59s0-.11,0-.16,0-.29,0-.43,0-.1,0-.15,0-.35,0-.51V54.3l0-.4a.66.66,0,0,1,0-.14l0-.32a.28.28,0,0,0,0-.09c0-.12,0-.23,0-.33v0l-.56,0-.4,0-1.18,0H39.5c-.65,0-1.29,0-1.94-.08v0c-.06.24-.12.49-.16.74a.78.78,0,0,1,0,.14c0,.24-.06.48-.07.72a.45.45,0,0,1,0,.11c0,.23,0,.45,0,.67v.06c0,.22,0,.44,0,.64v.06a3.47,3.47,0,0,1,.4.3l.14.13a2.25,2.25,0,0,1,.21.24,1.13,1.13,0,0,1,.1.13,2.09,2.09,0,0,1,.19.36l0,0h0c0,.08,0,.15.07.22l0,.09,0,.23s0,0,0,.06a1.93,1.93,0,0,1,0,.24v0a3.6,3.6,0,0,1,0,.36l.89.25.7.19.13-.12c.1-.1.2-.21.31-.31l.19-.15A5.79,5.79,0,0,1,42,57.66l.14-.07A.32.32,0,0,1,42.09,57.5Z"/><path class="cls-2" d="M9.2,54.59l21.87,5.64a4.52,4.52,0,0,1,.42-1.29l.15-.26.13-.22c.08-.13.17-.25.26-.37l.06-.1L9.37,51.78a2.4,2.4,0,0,0-.69,1.7A1.84,1.84,0,0,0,9.2,54.59Z"/><path class="cls-3" d="M42.8,53.69s0,.08,0,.13,0,.08,0,.12l0,.46V55a.86.86,0,0,0,0,.16,3.37,3.37,0,0,0,0,.44s0,.11,0,.17.06.39.1.6c0,0,0,0,0,.06,0,.18.09.36.14.54l.06.18c0,.06,0,.12.08.19h.59c0-.11,0-.23,0-.35v-.18c0-.21,0-.44,0-.67,0,0,0-.1,0-.14a5.32,5.32,0,0,1,.06-.56,2,2,0,0,1,0-.24c0-.1,0-.2,0-.31Q43.37,54.31,42.8,53.69Z"/><path class="cls-2" d="M39.05,60.5a3.48,3.48,0,0,1,.22-.36.83.83,0,0,1,.09-.16l-1.64-.45-.32-.09-.08,0a1,1,0,0,0-.25.12l0,0a1.5,1.5,0,0,0-.23.2l0,0a1.88,1.88,0,0,0-.16.23s0,0,0,0a.72.72,0,0,0-.09.2s0,.1,0,.15a.29.29,0,0,1,0,.09,3.39,3.39,0,0,0,0,1l1.84.48.35.09A4,4,0,0,1,39.05,60.5Z"/><path class="cls-3" d="M35.88,55.72l.16,0h.17v0c0-.19,0-.39,0-.6V55c0-.18,0-.36,0-.54a1.8,1.8,0,0,1,0-.22c0-.15,0-.3,0-.46a1.7,1.7,0,0,1,0-.22,4.35,4.35,0,0,1,.1-.52l0-.13c-.43,0-.85-.11-1.28-.19v.06c0,.16,0,.33,0,.51v.14c0,.22,0,.44,0,.67,0,0,0,.08,0,.12,0,.2.06.41.11.62l0,.14a6.36,6.36,0,0,0,.21.71l0,.06h.14Z"/><path class="cls-3" d="M60.34,61.26a.61.61,0,0,1-.17.15l-.09.05a6.66,6.66,0,0,1-2.95.59,13.32,13.32,0,0,1-6.4-1.86,26,26,0,0,0,2.18,2.61l.29.3c.32.32.65.63,1,.94l.3.27.62.52.31.24c.34.26.7.52,1.07.77l.53.35a17.08,17.08,0,0,0,7.55,2.6c0-2.07-.27-9.35-3.37-14.56A47.87,47.87,0,0,1,60.43,61v0A.54.54,0,0,1,60.34,61.26Z"/><path class="cls-4" d="M52.9,26.15c-.66-.95-1.35-1.82-2-2.65-.15-.17-.29-.35-.43-.52s-.51-.57-.77-.84L49,21.47l-.65-.64c-.28-.28-.56-.54-.84-.8s-.3-.28-.46-.41q-.62-.56-1.23-1.05l-.08-.06c-3.89-3.1-7.68-4.69-10.1-5h-.06a6.68,6.68,0,0,0-.74-.06h-.16a2.9,2.9,0,0,0-.43,0l-.12,0a1.4,1.4,0,0,0-.32.06l-.12,0-.24.09-.1.06a.83.83,0,0,0-.18.13l0,0c-2,2-5.44,12.58,1.3,26.15a50.12,50.12,0,0,0,4.87,7.81c.28.38.57.75.85,1.11,0,0,0,0,0,0,.27.35.55.69.82,1l.09.1c.24.3.49.59.73.88v0h0l.06.07.11.13.05.06.75.85.23.26.67.73.33.34c.23.25.47.48.7.71l.33.32c.21.22.43.42.65.63l.46.42.6.54.46.38.42.34c.27.22.53.43.79.62l.24.18A19.18,19.18,0,0,0,54,60.43l.35.11.05,0a10,10,0,0,0,2.72.41,6,6,0,0,0,2.27-.4c.4-2.15,2.84-17.23-3.91-30.14a38.39,38.39,0,0,0-2.59-4.27Z"/><path class="cls-2" d="M44.9,55.8c0,.21,0,.42,0,.62v.16a5.8,5.8,0,0,0,0,.59v.1q0,.25,0,.48l.22.17a2.07,2.07,0,0,1,.24.17,2.23,2.23,0,0,1,.59.84h0c0,.06,0,.11.05.16s.06.24.08.36,0,.07,0,.1a1.7,1.7,0,0,1,0,.22s0,0,0,.07a2,2,0,0,1-.09.53,1.24,1.24,0,0,1-.07.2l0,.06L50.73,62l-.17-.22-.18-.23-.47-.61-.21-.29-.36-.51c-.07-.12-.14-.22-.21-.33l-.27-.41L48.64,59l-.14-.22A34.59,34.59,0,0,1,44.9,55.8Z"/><path class="cls-5" d="M11.24,4.59l-.08.14a.93.93,0,0,0-.05.1c-.08.15-.14.3-.2.44v0c-.05.14-.09.28-.13.41l0,.1-.09.4v.06c0,.11,0,.22-.05.33a.28.28,0,0,1,0,.09c0,.11,0,.22,0,.33v.05a2,2,0,0,0,0,.25v0c0,.09,0,.17,0,.23h0l0,0,.26.1h0l0,0h0l.38.17,0,0,0,0,.43.23h0l.47.3.05,0,.05,0a5,5,0,0,1,.46.37l0,0L13,9a5.14,5.14,0,0,1,.41.4l0,0,0,0a0,0,0,0,1,0,0,3.42,3.42,0,0,1,.4.52s.05.08.08.11a6.14,6.14,0,0,1,.34.62,4.07,4.07,0,0,1,.22.58h0a1.16,1.16,0,0,1,0,.18,3,3,0,0,1,.1.43,1.64,1.64,0,0,1,0,.22,2.85,2.85,0,0,1,0,.41,2.09,2.09,0,0,1,0,.25c0,.13,0,.26,0,.4s0,.18,0,.27,0,.27-.05.4,0,.2-.07.29-.06.27-.1.41-.07.2-.11.3-.09.28-.14.42l-.14.32c-.05.12-.1.25-.16.37s0,.18,0,.32l-.08.74a48.92,48.92,0,0,0,.34,11.57,5.37,5.37,0,0,0,1.65.26h0c1.78,0,3.8-.85,6-2.53,6.11-4.66,5.57-13.94,4-21-.29-.29-.58-.57-.88-.83l-.19-.18c-.27-.24-.53-.46-.8-.68l-.36-.29-.44-.32L23,3c-.21-.15-.41-.29-.62-.42L22,2.38h0c-.25-.16-.51-.3-.76-.43L21,1.81a7.11,7.11,0,0,0-.82-.34L20,1.4a5.65,5.65,0,0,0-.86-.24H19a5.12,5.12,0,0,0-.82-.09H18a4.87,4.87,0,0,0-.89.07h0c-.34.07-.67.14-1,.23l-.57.17-.35.1-.44.17c-.13.05-.26.09-.39.15L14,2.11l-.39.2-.3.18L13,2.73a2.43,2.43,0,0,0-.25.2,3,3,0,0,0-.35.27c-.08.07-.14.14-.21.21s-.21.2-.3.3-.12.16-.18.24l-.25.33C11.35,4.38,11.3,4.49,11.24,4.59ZM19,6.33a1.76,1.76,0,1,1-1.76,1.76A1.76,1.76,0,0,1,19,6.33Z"/><path class="cls-5" d="M13.05,15.21c0-.1.09-.19.13-.29s.07-.22.11-.32.07-.19.09-.27.06-.22.09-.33l.06-.25c0-.11,0-.21.05-.32l0-.24c0-.1,0-.2,0-.31s0-.15,0-.22,0-.21,0-.31a1.41,1.41,0,0,0,0-.2c0-.11-.05-.21-.08-.32l0-.16a3.75,3.75,0,0,0-.17-.47,4.91,4.91,0,0,0-.28-.5L13,10.61a3.39,3.39,0,0,0-.33-.42l-.06-.07-.35-.34-.05,0c-.13-.11-.27-.21-.4-.3l-.08-.06c-.14-.09-.27-.18-.4-.25l0,0-.35-.18-.07,0-.32-.14-.06,0-.22-.08h0l0,0L10,8.81a.3.3,0,0,0-.08.08L9.75,9l-.1.11-.18.19-.12.13-.19.22L9,9.85l-.2.27-.12.16-.24.36-.08.12q-.15.26-.3.54L8,11.44l-.21.45c0,.08-.05.16-.08.23s-.11.28-.15.42,0,.18-.08.28-.08.28-.11.43l-.06.3L7.28,14a1.66,1.66,0,0,0,0,.32,4.18,4.18,0,0,0,0,.5c0,.11,0,.22,0,.33s0,.39,0,.59a2.85,2.85,0,0,0,0,.29c0,.31.09.62.16.94L9,14.91H9l.32-.43,0,0,0,0L11,12.72a.54.54,0,0,1,.77.77l-1.33,1.33h0l.09.08.12.11.17.14.15.11.13.09.21.11.13.07.27.09.1,0a1.24,1.24,0,0,0,.76,0l.13-.06.21-.11C13,15.37,13,15.29,13.05,15.21Z"/><path class="cls-3" d="M42,51.3c-.45-.52-.9-1.06-1.39-1.68s-.87-1.1-1.35-1.73-.8-1.09-1.18-1.63l-.22-.33c-.3-.43-.59-.86-.86-1.28l-.44-.71q-.28-.44-.54-.87l-.44-.77c-.15-.26-.31-.52-.45-.79l-.39-.74L34.34,40l-.23-.47L34,39.2c-.12-.24-.23-.48-.34-.72s-.16-.37-.24-.56l-.07-.17c-.11-.25-.22-.5-.32-.75s-.13-.33-.19-.49l-.13-.33-.24-.62-.23-.67c-.08-.25-.17-.5-.24-.75s-.12-.39-.2-.66-.15-.48-.21-.72-.1-.36-.14-.54l-.05-.2c-.05-.21-.11-.41-.15-.61s-.08-.34-.11-.51l0-.13c0-.22-.1-.45-.14-.67s-.07-.41-.11-.63-.07-.43-.11-.64,0-.41-.08-.63-.05-.41-.08-.61,0-.39-.06-.61l-.12-2.29V23.61c0-.18,0-.36,0-.54l0-.51,0-.51c0-.16,0-.32,0-.49s0-.32.05-.47l.14-.93c0-.14,0-.29.07-.43l.08-.43.6-2.28.72-1.77.72-1.19-.8-.59h0L33,14l.45-.57-.41-.6c-.14-.22-.29-.44-.45-.67h0L32.46,12h0A57.29,57.29,0,0,0,27.93,6.2L25.56,3.58l.64,3.47c1.2,6.4,1.4,15-4.38,19.38C19.6,28.12,17.56,29,15.76,29a5.71,5.71,0,0,1-1.22-.14l-1.49-.35.28,1.5a35.07,35.07,0,0,0,2.17,7.41l.06.12c.14.34.29.66.45,1l.19.4.4.77.32.58.37.61c.14.23.28.46.45.71l.32.48c.17.25.35.49.57.79l.31.4.61.74.36.41c.22.24.46.48.69.72l.11.11.27.27c.25.24.52.48.79.72l.12.1.25.22c.38.32.78.63,1.19.92l.09.07c.39.28.79.54,1.19.8l.29.19,1.22.74A28.3,28.3,0,0,0,34.5,52.5l.17,0a24.41,24.41,0,0,0,2.46.37c.77.07,1.57.11,2.37.11h.27c.5,0,1,0,1.51-.06l1.93-.26Z"/><path class="cls-5" d="M42.92,63.69l0,0a.5.5,0,0,1,0-.12h0a.68.68,0,0,0,0-.14.19.19,0,0,0,0-.08v0a1.79,1.79,0,0,1,0-.23s0-.06,0-.1v-.28h0V62.5c0-.13,0-.25,0-.38v-.06a3.69,3.69,0,0,1,.11-.45l0-.09a2.52,2.52,0,0,1,.15-.34l.06-.12.09-.16a1.5,1.5,0,0,1,.11-.13l.11-.13a2.89,2.89,0,0,1,.32-.29l0,0h0s0,0,0,0a2.5,2.5,0,0,1,.43-.23l0,0a3.06,3.06,0,0,1,.56-.17,1.22,1.22,0,0,0-.07-.51.08.08,0,0,0,0,0,.71.71,0,0,0-.13-.22L44.72,59l-.13-.14-.11-.08-.17-.12-.11-.07-.35-.16a0,0,0,0,0,0,0,1.59,1.59,0,0,0-.87,0h0A3.89,3.89,0,0,0,41.8,59l0,0a4.81,4.81,0,0,0-.57.44h0a6.63,6.63,0,0,0-.52.54l-.14.18-.16.2-.14.22c-.05.08-.09.16-.14.23a2.8,2.8,0,0,0-.37,1.93,1.86,1.86,0,0,0,.33.71,3.45,3.45,0,0,0,.23.28,1.75,1.75,0,0,0,1.22.67,1.16,1.16,0,0,0,.42-.08h0l.16-.07,0,0,.14-.08.06,0a.57.57,0,0,0,.13-.08l.06,0,.1-.09.06-.05.08-.07,0,0Z"/><path class="cls-5" d="M35.39,62.1a4.12,4.12,0,0,1-.07-.46s0-.08,0-.12,0-.28,0-.43v-.17a4.12,4.12,0,0,1,.05-.48l0-.1a2.08,2.08,0,0,1,.11-.41s0-.08,0-.12a2.32,2.32,0,0,1,.22-.41l0,0v0a2.05,2.05,0,0,1,.34-.38.5.5,0,0,1,.08-.07,3.09,3.09,0,0,1,.37-.26l.14-.07a2.32,2.32,0,0,1,.44-.16l.09,0h0l.16-.05a1.35,1.35,0,0,0-.06-.5l0-.07a.64.64,0,0,0-.08-.14l-.14-.18L37,57.33l-.15-.12-.11-.07L36.6,57l-.31-.15a1.42,1.42,0,0,0-.87,0h0a4.6,4.6,0,0,0-2,1.21l0,0a6.33,6.33,0,0,0-.49.56l-.09.12-.19.29-.06.11a3,3,0,0,0-.47,1.7h0a1.92,1.92,0,0,0,.11.54v0a1.63,1.63,0,0,0,.25.47h0a2.3,2.3,0,0,0,1.08.88,1.19,1.19,0,0,0,.37.06l.23,0A2.46,2.46,0,0,0,35.39,62.1Z"/><path class="cls-2" d="M52,63.44,46.74,62l-2.36-.64,0,0c-.05.07-.11.14-.15.21l0,0a1.3,1.3,0,0,0-.1.25L44,62a1.84,1.84,0,0,0-.05.25.19.19,0,0,0,0,.08,2.13,2.13,0,0,0,0,.25v.22c0,.08,0,.15,0,.23l0,.14v.13a2.86,2.86,0,0,0,.06.31h0l7.9,2,1.54.4h0l2.14.55c-.18-.12-.36-.26-.54-.4l-.08,0A23.43,23.43,0,0,1,52,63.44Z"/><line class="cls-6" x1="43.85" y1="58.45" x2="43.85" y2="58.45"/><path class="cls-7" d="M54.37,60.54l.05,0a10,10,0,0,0,2.72.41,6,6,0,0,0,2.27-.4A54.35,54.35,0,0,0,60.12,49C55,44.08,52,35.39,52,35.39c.17,6.66,4.5,14.66,4.5,14.66s0,1.67-3.83-.33S42.33,35.39,42.33,35.39c.17,7.5,7.34,16.5,7.34,16.5s-2.34-.67-10.34-10C33.46,35,31.59,24.31,31,19.09c-1,4.77-.85,12.24,3.46,20.94a50.12,50.12,0,0,0,4.87,7.81c.28.38.57.75.85,1.11,0,0,0,0,0,0,.27.35.55.69.82,1l.09.1c.24.3.49.59.73.88v0h0l.06.07.11.13.05.06.75.85.23.26.67.73.33.34c.23.25.47.48.7.71l.33.32c.21.22.43.42.65.63l.46.42.6.54.46.38.42.34c.27.22.53.43.79.62l.24.18A19.18,19.18,0,0,0,54,60.43Z"/><path class="cls-2" d="M20.79,8.09H17.27l-.08.28c-.39,1.3-1.81,6.69,1,6.77C21.33,15.22,22.17,9.79,20.79,8.09Z"/><path class="cls-2" d="M9,14.91l.32-.43,0,0,0,0L11,12.72a.54.54,0,0,1,.77.77l-1.33,1.33h0l.09.08.12.11.17.14.15.11.13.09.21.11.13.07.27.09.1,0a1.24,1.24,0,0,0,.76,0l.13-.06.21-.11c0-.09.08-.17.11-.25s.09-.19.13-.29.07-.22.11-.32.07-.19.09-.27.06-.22.09-.33l.06-.25c0-.11,0-.21.05-.32l0-.24c0-.1,0-.2,0-.31s0-.15,0-.22,0-.21,0-.31a1.41,1.41,0,0,0,0-.2c0-.11-.05-.21-.08-.32l0-.16a3.75,3.75,0,0,0-.17-.47,4.91,4.91,0,0,0-.28-.5L13,10.61a2.35,2.35,0,0,0-.19-.25C8.87,11.51,7.45,17,7.45,17L9,14.91Z"/><path class="cls-2" d="M21.08,23.8a6.4,6.4,0,0,1-7.45,0,47.35,47.35,0,0,0,.48,4.87,5.37,5.37,0,0,0,1.65.26c1.78,0,3.8-.85,6-2.53,3.15-2.41,4.53-6.05,4.91-10A12.81,12.81,0,0,1,21.08,23.8Z"/><path class="cls-8" d="M26.62,48.39a27.25,27.25,0,0,0,8.15,3.14h0a24.08,24.08,0,0,0,5,.47c.48,0,1,0,1.45-.06h0c-.45-.53-.91-1.08-1.37-1.66l0,0c-.44-.54-.88-1.11-1.33-1.7l0,0c-.42-.55-.83-1.11-1.21-1.66L37,46.5c-.3-.44-.59-.87-.87-1.3-.12-.18-.22-.36-.33-.54-.23-.36-.46-.72-.67-1.08L34.81,43c-.18-.32-.37-.64-.55-1l-.34-.65-.47-.91c-.12-.23-.22-.45-.33-.68s-.28-.58-.4-.86-.2-.46-.3-.69-.24-.55-.35-.82l-.27-.69-.3-.79c-.08-.23-.15-.46-.23-.69s-.18-.51-.26-.77-.13-.45-.2-.67-.15-.5-.22-.75-.11-.44-.17-.66-.12-.49-.18-.72-.09-.44-.14-.66-.1-.46-.14-.69-.08-.43-.11-.64-.08-.45-.11-.67-.06-.42-.09-.63-.06-.43-.08-.65l-.06-.61c0-.21,0-.42-.05-.62s0-.4,0-.59,0-.4,0-.6,0-.38,0-.57v-.58c0-.19,0-.37,0-.55s0-.37,0-.55l0-.53c0-.18,0-.35,0-.53s0-.34.05-.51,0-.33,0-.5l0-.24a44.91,44.91,0,0,0-2.78,12.33,28.55,28.55,0,0,0,3.42,14.09S23.75,41.39,23.58,36c0,0-1.2,8.06,1.86,11.7l1.1.67Z"/><path class="cls-1" d="M39.84,50.24c-.44-.54-.88-1.11-1.33-1.7l0,0c-.42-.55-.83-1.11-1.21-1.66L37,46.5c-.3-.44-.59-.87-.87-1.3-.12-.18-.22-.36-.33-.54-.23-.36-.46-.72-.67-1.08L34.81,43c-.18-.32-.37-.64-.55-1l-.34-.65-.47-.91c-.12-.23-.22-.45-.33-.68s-.28-.58-.4-.86-.2-.46-.3-.69-.24-.55-.35-.82l-.27-.69-.3-.79c-.08-.23-.15-.46-.23-.69s-.15-.43-.22-.64C32,40,34.09,48.13,39,52h.77c.48,0,1,0,1.45-.06h0c-.45-.53-.91-1.08-1.37-1.66Z"/><path class="cls-1" d="M43.21,63l12.17,3.37-.13-.75-12-3.24A1.86,1.86,0,0,1,43.21,63Z"/><path class="cls-1" d="M39.3,61.35l-3.54-1a1.52,1.52,0,0,1,.06.6l3.37.94A1.28,1.28,0,0,1,39.3,61.35Z"/><path class="cls-1" d="M31.87,59.34,8.31,53l.37.51,23.11,6.4A1.61,1.61,0,0,1,31.87,59.34Z"/><path class="cls-1" d="M64,62.7a24.8,24.8,0,0,0-2.84-8.47A47.87,47.87,0,0,1,60.43,61v0a.54.54,0,0,1-.08.21.61.61,0,0,1-.17.15l-.09.05a6.66,6.66,0,0,1-2.95.59,13.32,13.32,0,0,1-6.4-1.86S57.24,65.43,64,62.7Z"/><path class="cls-9" d="M59.89,60.94s-7.82,4.69-21-12.77S30.31,16,32.78,13.5,48.55,16,56,30.18,59.89,60.94,59.89,60.94Z"/><path class="cls-9" d="M38.91,48.17C25.75,30.7,30.31,16,32.78,13.5l.11-.09C29.3,8,22.66-.48,17,.59,8.8,2.16,10.1,8,10.1,8s6.26,1.7,3.26,7.82c0,0-3.26,21.64,10.3,31.28C31,52.38,37.76,53,42.35,52.39,41.25,51.15,40.1,49.75,38.91,48.17Z"/><path class="cls-9" d="M26.28,5.12C23.31,2.17,20,0,17,.59,8.8,2.16,10.1,8,10.1,8s6.26,1.7,3.26,7.82A47.66,47.66,0,0,0,13.6,29c2.06.83,4.83.56,8.5-2.23C28.6,21.83,27.8,11.89,26.28,5.12Z"/><path class="cls-9" d="M10.1,8A9,9,0,0,0,7.24,18.19L9.71,14.8s1.83,2.35,3.65,1C16.36,9.72,10.1,8,10.1,8Z"/><path class="cls-1" d="M9.71,15.34a.51.51,0,0,1-.38-.16.54.54,0,0,1,0-.76L11,12.72a.54.54,0,0,1,.77.77L10.1,15.18A.54.54,0,0,1,9.71,15.34Z"/><path class="cls-1" d="M20.79,8.09A1.76,1.76,0,1,1,19,6.33,1.76,1.76,0,0,1,20.79,8.09Z"/><path class="cls-9" d="M37.87,58.79s.71-1.56-1.37-2.41-6.39,3.26-4.43,5.86,3.91,0,3.91,0S35.06,59.05,37.87,58.79Z"/><path class="cls-9" d="M36.5,56.38l.31.14a9.41,9.41,0,0,1,.37-4.08c-.8-.08-1.63-.2-2.48-.37a8.12,8.12,0,0,0,.58,4.28A1.94,1.94,0,0,1,36.5,56.38Z"/><path class="cls-9" d="M45.43,60.35s.71-1.56-1.37-2.41-6.39,3.26-4.43,5.87,3.91,0,3.91,0S42.62,60.61,45.43,60.35Z"/><path class="cls-9" d="M40.26,59.66l-2.88-.79c-1.86.48-1.58,2.54-1.45,3.18l3.28.84A3.84,3.84,0,0,1,40.26,59.66Z"/><path class="cls-9" d="M33.08,57.7,9.19,51.17c-2.21,2.34-.26,3.91-.26,3.91l22.66,5.85A4.42,4.42,0,0,1,33.08,57.7Z"/><path class="cls-9" d="M44.06,57.94l.31.15a10.2,10.2,0,0,1,.16-3.41c-.65-.64-1.31-1.33-2-2.09h-.1a8.9,8.9,0,0,0,.41,5.32A2,2,0,0,1,44.06,57.94Z"/><path class="cls-9" d="M60.71,52.54a49.17,49.17,0,0,1-.82,8.4s-4,2.37-11-2.56c2,3.44,7.25,10.47,16.22,11C65.11,69.37,65.47,58.79,60.71,52.54Z"/><path class="cls-9" d="M52.3,63l-8.06-2.2c-1.31.92-.7,3.06-.7,3.06l-.15.17,13,3.35a2.26,2.26,0,0,0,.62-.52A21.44,21.44,0,0,1,52.3,63Z"/></g></g></svg>