<svg xmlns="http://www.w3.org/2000/svg" viewBox="0 0 71.78 92.46"><defs><style>.cls-1{fill:#231f20;}.cls-2{fill:#e6305e;}.cls-3{fill:#fff;}.cls-4{fill:#97305e;}.cls-5{fill:#2b799d;}.cls-6{fill:none;stroke:#231f20;stroke-linecap:round;stroke-linejoin:round;}</style></defs><g id="Layer_2" data-name="Layer 2"><g id="OBJECTS"><path class="cls-1" d="M64.22,90.1c0,1.3-11.41,2.36-25.5,2.36s-25.5-1.06-25.5-2.36,11.42-2.35,25.5-2.35S64.22,88.81,64.22,90.1Z"/><path class="cls-2" d="M6.08,44.75a.55.55,0,0,1-.15.08H5.76l-.13,0-.06,0a.52.52,0,0,1-.17-.12l-1.8-2h0L1.18,40A24.7,24.7,0,0,0,5.76,53.8C7.7,51,10,44.15,10.93,41.12L6.09,44.75Z"/><path class="cls-3" d="M37.58,62.38l.56,0,.3,0,.52,0,.37,0,.48-.06.38-.06.49-.08.4-.08.5-.1.42-.11.5-.13.43-.12.49-.16.44-.15.5-.18.45-.19.5-.21.45-.21.5-.24.46-.26.48-.26.42-.26.05,0,.47-.3.47-.34.47-.33.46-.37.45-.37.47-.42.37-.35v-.08a1.09,1.09,0,0,0,0-.19s0-.1,0-.14a1.09,1.09,0,0,1,0-.18v-.21a1.69,1.69,0,0,0,0-.23c0-.07,0-.14,0-.22s0-.17,0-.26a2.62,2.62,0,0,1,0-.28,2.81,2.81,0,0,1,0-.29v-.28s0-.08,0-.12v-.23c0-.09,0-.18,0-.28v-.17c0-.08,0-.16,0-.24v-.25c0-.08,0-.15,0-.23V52.7c0-.06,0-.13,0-.2v-.28c0-.12,0-.25,0-.38V47.92c0-.09,0-.19,0-.28V47a2.44,2.44,0,0,1,0-.27c0-.13,0-.27,0-.39V46c0-.08,0-.17,0-.25s0-.31,0-.47a2.72,2.72,0,0,0,0-.28v-.19c0-.17,0-.33,0-.49s0-.18,0-.28a2.18,2.18,0,0,0,0-.25c0-.14,0-.28,0-.42s0-.21,0-.32,0-.19,0-.29,0-.23,0-.35,0-.24,0-.35a3,3,0,0,0,0-.31c0-.1,0-.2,0-.29l0-.39c0-.11,0-.23,0-.34s0-.15,0-.23l0-.4c0-.1,0-.2,0-.3s0-.19,0-.29l0-.35c0-.17,0-.34-.05-.51s0-.27,0-.4l0-.22,0-.3c0-.13,0-.26,0-.4s0-.19,0-.28l0-.24c0-.13,0-.25-.05-.37a2,2,0,0,0,0-.26,2.51,2.51,0,0,0,0-.27c0-.11,0-.22-.05-.33l0-.23c0-.1,0-.2,0-.3L50,34.75l0-.16c0-.12,0-.23-.07-.35s0-.24-.07-.35v0l0-.2c-1.14,5.63-5.42,20.53-19.32,24.1L30,61.51h0l.37.1h0l.48.12.13,0,.6.13.1,0,.62.11.17,0,.78.11.18,0,.78.08.15,0c.3,0,.61,0,.94.06h.22c.34,0,.68,0,1,0h.75Z"/><path class="cls-4" d="M48.37,8.23c.08.11.15.23.22.35l.06.1a6.48,6.48,0,0,1,.54,1.2,3.86,3.86,0,0,0,2.68-1.82,8.25,8.25,0,0,0,.62-5.12,9.35,9.35,0,0,1-4.36,4.61c.06.13.11.27.16.4S48.34,8.14,48.37,8.23Z"/><path class="cls-2" d="M24.4,35.42C23.54,29.85,21,20.7,13.54,21.22c-8.35.57-9.12,14.66-9,20.91l1.36,1.51.52-.39c0-6,.77-19.29,8.16-19.53h.16c5,0,7.63,7.53,8.88,12.72C23.83,36.09,24.11,35.75,24.4,35.42Z"/><path class="cls-4" d="M31.71,8.47h0A4.77,4.77,0,0,0,32.2,9V9a8.47,8.47,0,0,0,1.53,1.12l0,0a7.48,7.48,0,0,0,.82.4l0,0,.28.11,0,0,.17.06h0a1.2,1.2,0,0,0,.6-.26l0,0A1.57,1.57,0,0,0,36,10.3a.34.34,0,0,1,.08-.09,1.77,1.77,0,0,0,.17-.2,1.18,1.18,0,0,0,.13-.18,1.43,1.43,0,0,0,.14-.2,3.87,3.87,0,0,0,.28-.5,4.09,4.09,0,0,0,.43-1.46,7.41,7.41,0,0,1-1-.13l-.18,0a8.06,8.06,0,0,1-.91-.25l-.09,0a6.4,6.4,0,0,1-1.68-.9l-.05,0h0A7.42,7.42,0,0,1,31,3.09a5.81,5.81,0,0,0,0,4.2A5.58,5.58,0,0,0,31.71,8.47Z"/><path class="cls-5" d="M35.27,16.53a1.94,1.94,0,0,1,0,.24l.12,0c1.42-.17,1.91-1.92,2.48-4.53a14.07,14.07,0,0,1,1-3.29,5.75,5.75,0,0,1,5-3l.56,0,.17,0,.38.06.2,0,.34.09.19.07.36.14.12,0A7.86,7.86,0,0,0,40.34,4,10.67,10.67,0,0,0,35,5.52c-.17.09-.34.21-.52.33a5.93,5.93,0,0,0,.72.34l0,0a5.5,5.5,0,0,0,.72.23l.36.07c.16,0,.31.07.47.09a8.82,8.82,0,0,0,.92.07.51.51,0,0,1,.5.43,4.48,4.48,0,0,1-.52,2.49c-1,2-2.13,2.2-2.58,2.2a.55.55,0,0,1-.16,0l-.07,0h0l-.12,0h0l-.18-.06,0,0-.16-.07-.11,0-.14-.06-.59-.28-.07,0L33.19,11h0a7.29,7.29,0,0,1-.83-.54h0a9.52,9.52,0,0,1-.86-.73h0a8.93,8.93,0,0,0-.39,1A6.15,6.15,0,0,1,35.27,16.53Z"/><path class="cls-2" d="M30.65,20.5l.18.07a5.71,5.71,0,0,0,.71.19l.21,0a6.48,6.48,0,0,0,.77.08h.2a7.07,7.07,0,0,0,1,0h.06a.5.5,0,0,1,.13,0,.12.12,0,0,1,.08,0,.52.52,0,0,1,.19.14.28.28,0,0,1,.06.15.26.26,0,0,1,.05.09.6.6,0,0,1,0,.26l0,.07,0,.08v0c0,.05,0,.1,0,.16v0a7.05,7.05,0,0,0,.91,5.87h0a5.56,5.56,0,0,0,.65.72l.07.07a7.84,7.84,0,0,0,1.66,1.14l.18.09c.32.15.65.3,1,.43h0c.46.16.92.31,1.4.44l.6.14c.27.06.55.13.84.18l.75.12c.24,0,.49.07.73.09l.81.08.81,0q1,0,2,0l.22,0c.38,0,.75-.06,1.12-.11l.22,0q.57-.07,1.14-.18a.45.45,0,0,1,.37-.07c.87-.18,1.56-.38,2-.5l-.75-2.94a7.54,7.54,0,0,1-2.57.48,6.24,6.24,0,0,1-4-1.36.57.57,0,0,1-.05-.81.58.58,0,0,1,.81,0,5.48,5.48,0,0,0,5.49.62L50.28,25c-3.63-.36-3.9-3-3.9-3.06a.57.57,0,0,1,.53-.61.56.56,0,0,1,.61.52c0,.08.24,1.89,3.18,2.05A.55.55,0,0,1,51,24l4,1.14a14,14,0,0,0-6.29-9,.53.53,0,0,1-.24-.53,13.27,13.27,0,0,0-.2-5h0a6.93,6.93,0,0,0-.25-.73s0,0,0-.06a6.49,6.49,0,0,0-.29-.59l0-.07a3.1,3.1,0,0,0-.27-.4c-.08-.11-.15-.19-.22-.27s-.21-.24-.32-.34l0,0a4.69,4.69,0,0,0-2.2-1.08A4.28,4.28,0,0,0,43.89,7a4.71,4.71,0,0,0-4.11,2.43,13.78,13.78,0,0,0-.89,3l-.21,1,0,.1-.09.38s0,.1,0,.15l-.09.32c0,.06,0,.12,0,.18l-.09.29-.06.18c0,.09-.07.18-.1.26s-.05.13-.07.19l-.11.24a1.42,1.42,0,0,1-.08.18l-.11.22-.1.17a1.37,1.37,0,0,1-.13.2.58.58,0,0,1-.11.15,1.33,1.33,0,0,1-.14.19l-.12.13c0,.06-.11.11-.16.16l-.14.12-.18.13-.15.09-.2.1-.17.07-.22.07-.19,0-.25,0-.2,0h-.12l-.28,0-.09,0a1.22,1.22,0,0,1-.93.45h0c-.86,0-1.55-.92-2.28-1.89-.49-.67-1.11-1.49-1.55-1.6a.49.49,0,0,0-.43,0,1.45,1.45,0,0,0-.17,1,.52.52,0,0,1-.44.58.51.51,0,0,1-.58-.43,2.38,2.38,0,0,1,.5-1.93,1.42,1.42,0,0,1,1.37-.27c.8.2,1.44,1.06,2.13,2,.44.59,1.11,1.49,1.45,1.49.09,0,.22-.15.27-.22a.41.41,0,0,1,.12-.11,2.11,2.11,0,0,0,0-.25,5.23,5.23,0,0,0-4-5.13h0a15.25,15.25,0,0,0-4.48-.64,13.27,13.27,0,0,0,2.08,7.4,6.36,6.36,0,0,0,2.07,1.92A5.42,5.42,0,0,0,30.65,20.5Zm9.08-6.35a.57.57,0,0,1,.71.38c.16.49.74,1.82,1.62,2,.52.14,1.13-.12,1.83-.77a.57.57,0,0,1,.81,0,.58.58,0,0,1,0,.81,3.47,3.47,0,0,1-2.33,1.12,2.3,2.3,0,0,1-.58-.07c-1.67-.45-2.38-2.73-2.41-2.83A.58.58,0,0,1,39.73,14.15Z"/><path class="cls-2" d="M49,32.05a22.27,22.27,0,0,1-2.56.28h0c-.4,0-.81,0-1.23,0H45.1c-.51,0-1,0-1.51-.06l-.72-.08c-.29,0-.58-.06-.87-.11L41.28,32l-.92-.2-.59-.14c-.5-.14-1-.28-1.47-.46a9.84,9.84,0,0,1-1-.44l-.21-.1a9.43,9.43,0,0,1-.83-.47l-.08-.05a7.43,7.43,0,0,1-1.57-1.36l0,0a31.23,31.23,0,0,0-16.8,25c0,.09-.71,10.51,2.57,16.6h0l0,0a.53.53,0,0,1,0,.39h0v.08s0,.08,0,.14v0c0,.15-.07.36-.1.62v0l0,.37v.09c0,.12,0,.25,0,.38v.09a4,4,0,0,0,0,.48s0,.06,0,.1a2.63,2.63,0,0,0,.06.39A4.21,4.21,0,0,0,21.56,76a5.43,5.43,0,0,0,3.72,1.43,9.11,9.11,0,0,0,4-1.11l-.27-.14h0l-.07,0-.32-.2a1.88,1.88,0,0,1-.23-.16l-.18-.16a3.07,3.07,0,0,1-.26-.25l-.13-.17a3,3,0,0,1-.19-.3s0-.06-.05-.09a.43.43,0,0,1-.05-.16l-.06-.11a.38.38,0,0,1,0-.1,1.42,1.42,0,0,1,0-.2,2,2,0,0,1,0-.25v-.2a2.7,2.7,0,0,1,0-.28,1.62,1.62,0,0,1,0-.19,2.35,2.35,0,0,1,.15-.42.14.14,0,0,1,0-.06c-1.17-1.36-5.89-7.65-4.85-19.18a.52.52,0,0,1,.29-.42A17.23,17.23,0,0,0,31.4,42.3a.5.5,0,0,1,.59-.37.5.5,0,0,1,.41.56L30.6,56.64C45,52.62,48.46,35.67,49,32.05Z"/><path class="cls-2" d="M28.72,73h0a2.31,2.31,0,0,0-.17.36.88.88,0,0,0-.05.15,1.21,1.21,0,0,0-.05.18.81.81,0,0,0,0,.15,1,1,0,0,0,0,.17.59.59,0,0,1,0,.13.58.58,0,0,0,.05.14.72.72,0,0,0,.09.2l.06.1a1.71,1.71,0,0,0,.18.2l.05,0,.24.2h0a2.09,2.09,0,0,0,.28.17l19,3.85c0-.09.05-.18.07-.28s.05-.23.08-.35c.09-.32.18-.65.29-1,0-.07,0-.14.05-.21L28.73,73Z"/><path class="cls-2" d="M19.28,71,1.42,67.21a1.68,1.68,0,0,0-.36,1.4c.21.66,1.11,1.06,1.44,1.16l16.66,3.36A8,8,0,0,1,19.28,71Z"/><path class="cls-5" d="M33.63,27.38c0-.06-.06-.11-.08-.17s-.12-.29-.18-.45a1.19,1.19,0,0,1-.08-.2c-.07-.19-.12-.38-.17-.57l-.06-.22c0-.19-.07-.37-.1-.55l0-.22c0-.18,0-.36,0-.53s0-.14,0-.2,0-.35,0-.52v-.17c0-.18,0-.35,0-.52a.34.34,0,0,0,0-.1c0-.2,0-.38.08-.54v0c0-.17.07-.33.1-.47h0a6.81,6.81,0,0,1-.91,0l-.43,0-.44-.08a6.25,6.25,0,0,1-1.14-.34c.1.95.21,1.72.3,2.23a4.37,4.37,0,0,0,3.16,3.76Z"/><path class="cls-2" d="M50.08,77c-.06.24-.13.48-.18.73s-.22.71-.31,1.05a7.43,7.43,0,0,0,.73,6C53,88.9,59.73,89.9,60.64,90l2.12-.66c-2.45-.52-6.42-1.54-8.15-3.11a4.45,4.45,0,0,1-.92-5.6.5.5,0,0,1,.58-.23l8.36,2.28a.51.51,0,0,1,.38.5l0,1.24,5.89-1.5-4.34-4.17-.6,1a.52.52,0,0,1-.58.24L55,77.74a.51.51,0,0,1-.38-.48,4.25,4.25,0,0,1,3.6-4.21,5.73,5.73,0,0,1,1.15-.1,26.68,26.68,0,0,1,7.38,1.58L65.3,73a21.16,21.16,0,0,0-7.51-1.65c-4.1,0-6.69,1.89-7.7,5.6C50.08,77,50.09,77,50.08,77Z"/><path class="cls-2" d="M69.35,49.12a11.35,11.35,0,0,0-4.23,1.38.51.51,0,0,1-.73-.64c.94-2.28,1.5-4.67,1.17-5-.64,0-2.43,2.89-3.84,6.18a.54.54,0,0,1-.31.28,6.91,6.91,0,0,1-2,.3A4.57,4.57,0,0,1,56,50.26c-1.14-1.19-1.66-3.13-1.55-5.76a16.31,16.31,0,0,0-3.69-11.22v.06l0,.12c.05.21.1.43.14.65a2,2,0,0,1,0,.24c0,.19.08.39.11.58s0,.18,0,.27.06.41.1.62l0,.25c0,.25.08.52.11.78,0,0,0,.07,0,.11,0,.31.07.63.11.95a.41.41,0,0,0,0,.11c0,.28.06.56.08.84l0,.26.06.72c0,.09,0,.19,0,.28,0,.25,0,.5,0,.75a1.94,1.94,0,0,1,0,.24l.06,1v0c0,.35,0,.7,0,1.06v0c0,.33,0,.66,0,1,0,.06,0,.13,0,.19,0,.28,0,.55,0,.82a1.7,1.7,0,0,1,0,.22c0,.28,0,.56,0,.84v.15c0,1,0,2,0,3v1.9c0,1.18,0,2.24-.06,3.13h0c0,1-.06,1.82-.08,2.29a15.15,15.15,0,0,0,1.72.09,31.54,31.54,0,0,0,7.72-1.1c5.36-1.38,8.74-3.66,9.31-5.19a.88.88,0,0,0-.07-.88A1.35,1.35,0,0,0,69.35,49.12Z"/><path class="cls-2" d="M50.91,58.2l-.45.38L50,59l-.46.35L49,59.7l-.46.31-.51.33-.46.27L47,60.9c-.16.08-.31.17-.47.24l-.51.25-.47.22-.51.22-.47.18-.51.18-.46.16-.5.15-.46.14-.49.12-.46.11-.47.1-.45.09-.46.08-.45.07-.45,0-.42.05-.44,0-.41,0-.44,0-.37,0H36.6l-1.05,0h-.24l-1-.06h-.08l-.83-.09-.22,0-.79-.11-.12,0L31.68,63l-.18,0c-.21,0-.42-.08-.6-.13l-.12,0-.43-.11-.13,0-.39-.11h0l-1,4.81c3.43.85,12.9,3.14,20.39,4.42,1.11-2.92,3.1-9.16,1.89-13.72Z"/><path class="cls-4" d="M49,32.05a22.27,22.27,0,0,1-2.56.28h0c-.4,0-.81,0-1.23,0H45.1c-.51,0-1,0-1.51-.06l-.72-.08c-.29,0-.58-.06-.87-.11L41.28,32l-.92-.2-.59-.14c-.5-.14-1-.28-1.47-.46a9.84,9.84,0,0,1-1-.44l-.21-.1a9.43,9.43,0,0,1-.83-.47l-.08-.05a7.43,7.43,0,0,1-1.57-1.36l0,0A32.25,32.25,0,0,0,29,32.43c8.53,6.93,17.22,2.3,19.91.53C48.94,32.6,49,32.29,49,32.05Z"/><path class="cls-5" d="M50.23,36.06a.78.78,0,0,0,0-.14c0-.11,0-.22-.05-.33l0-.23c0-.1,0-.2,0-.3L50,34.75l0-.16c0-.12,0-.23-.07-.35s0-.24-.07-.35v0l0-.2c-1.14,5.63-5.42,20.53-19.32,24.1L30,61.51h0l.37.1h0l.48.12.13,0,.6.13.1,0,.62.11.17,0,.78.11.18,0,.78.08.15,0c.3,0,.61,0,.94.06h.22c.34,0,.68,0,1,0h.75l.23,0,.56,0,.3,0,.52,0,.37,0,.34,0c8.12-2.87,7.68-9.47,7.68-9.47-3.25,4.12-12.5,5.75-12.5,5.75C47.35,55.4,49.77,41.62,50.23,36.06Z"/><path class="cls-4" d="M31.19,43c-2.55,1.09-8.26,4.21-8.38,10.27a2.67,2.67,0,0,0,0,.4.52.52,0,0,1,.29-.42A17.19,17.19,0,0,0,31.19,43Z"/><path class="cls-4" d="M57,51a4.13,4.13,0,0,1-1-.75c-1.14-1.19-1.66-3.13-1.55-5.76a16.31,16.31,0,0,0-3.69-11.22v.06l0,.12c.05.21.1.43.14.65a2,2,0,0,1,0,.24c0,.19.08.39.11.58s0,.18,0,.27.06.41.1.62l0,.25c0,.25.08.52.11.78,0,0,0,.07,0,.11,0,.31.07.63.11.95a.41.41,0,0,0,0,.11c0,.28.06.56.08.84l0,.26.06.72c0,.09,0,.19,0,.28,0,.25,0,.5,0,.75a1.94,1.94,0,0,1,0,.24l.06,1v0c0,.35,0,.7,0,1.06v0c0,.33,0,.66,0,1,0,.06,0,.13,0,.19,0,.28,0,.55,0,.82a1.7,1.7,0,0,1,0,.22c0,.28,0,.56,0,.84v.15c0,.29,0,.57,0,.85C53,49.4,54.61,51,57,51Z"/><path class="cls-4" d="M29,16.35s1.46,2.63,2.84,2.38.41-3.4-1.8-4S29,16.35,29,16.35Z"/><path class="cls-4" d="M51.35,22.85c-2-.75-2.13-3.75-3.63-4s-.81,2.43-.81,2.43a.56.56,0,0,1,.61.52c0,.08.24,1.89,3.18,2.05A.55.55,0,0,1,51,24l3.31.94A9.12,9.12,0,0,0,51.35,22.85Z"/><path class="cls-4" d="M51.45,60.52A11.77,11.77,0,0,0,51.09,58l-.18.16-.45.38L50,59l-.46.35L49,59.7l-.46.31-.51.33-.46.27L47,60.9c-.16.08-.31.17-.47.24l-.51.25-.47.22-.51.22-.47.18-.51.18-.46.16-.5.15-.46.14-.49.12-.46.11-.47.1-.45.09-.46.08-.45.07-.45,0-.42.05-.44,0-.41,0-.44,0-.37,0H36.6l-1.05,0h-.24l-1-.06h-.08l-.83-.09-.22,0-.79-.11-.12,0L31.68,63l-.18,0c-.21,0-.42-.08-.6-.13l-.12,0-.43-.11-.13,0-.39-.11h0l-.44,2.16C34.17,65.82,44,67,51.45,60.52Z"/><path class="cls-4" d="M48.87,33s-4.55,16.95-18,21.42l-.29,2.26C44.07,52.89,48,37.9,48.87,33Z"/><path class="cls-4" d="M6.09,44.75h0a.55.55,0,0,1-.15.08H5.76l-.13,0-.06,0a.52.52,0,0,1-.17-.12l-1.8-2h0L1.18,40q0,.67.09,1.32C2.53,44.07,4.73,48.6,5.6,48.6s3.11-3.17,4.66-5.42c.26-.78.49-1.49.67-2.06Z"/><path class="cls-4" d="M54.44,86.09a4.45,4.45,0,0,1-.83-5.29L52,80A6.26,6.26,0,0,0,54.44,86.09Z"/><path class="cls-4" d="M54.65,76.73a4.25,4.25,0,0,1,2.45-3.32,11,11,0,0,0-4.5,2.69Z"/><ellipse class="cls-4" cx="39.1" cy="23.98" rx="2.13" ry="1.63"/><path class="cls-4" d="M48.54,78.77c0-.11.05-.23.08-.35s.09-.27.12-.4c-2.45-.5-15.12-3.08-17.21-3.48a3.55,3.55,0,0,1-2.43-1.49L28.73,73v0h0a2.31,2.31,0,0,0-.17.36.88.88,0,0,0-.05.15,1.21,1.21,0,0,0-.05.18.81.81,0,0,0,0,.15,1,1,0,0,0,0,.17.59.59,0,0,1,0,.13.58.58,0,0,0,.05.14.72.72,0,0,0,.09.2l.06.1a1.71,1.71,0,0,0,.18.2l.05,0,.24.2h0a2.09,2.09,0,0,0,.28.17l19,3.85C48.49,79,48.52,78.87,48.54,78.77Z"/><path class="cls-4" d="M1,68.24a.92.92,0,0,0,0,.37c.21.66,1.11,1.06,1.44,1.16l16.66,3.36a7.66,7.66,0,0,1,0-.82Z"/><path class="cls-4" d="M23.57,36.43c.26-.34.54-.68.83-1-.72-4.68-2.65-11.86-7.66-13.74a12.06,12.06,0,0,0-4.48,2.6,5.43,5.43,0,0,1,2.27-.56h.16C19.65,23.71,22.32,31.24,23.57,36.43Z"/><path class="cls-2" d="M52.6,4c0-.37-.06-.72-.11-1.06a9.35,9.35,0,0,1-4.36,4.61c.06.13.11.27.16.4s.05.19.08.28.15.23.22.35l.06.1,0,.06A8.15,8.15,0,0,0,52.6,4Z"/><path class="cls-2" d="M36,7.51a8.06,8.06,0,0,1-.91-.25l-.09,0a6.4,6.4,0,0,1-1.68-.9l-.05,0h0A7.42,7.42,0,0,1,31,3.09c-.08.27-.13.52-.19.77.43,1.95,1.78,4.59,5.85,5.56a2.69,2.69,0,0,0,.16-.29,4.09,4.09,0,0,0,.43-1.46,7.41,7.41,0,0,1-1-.13Z"/><path class="cls-6" d="M19.89,70.64a.25.25,0,0,1,0-.07L1.21,66.64c-2.1,2.67,1.14,3.62,1.14,3.62l17.43,3.52A7.11,7.11,0,0,1,19.89,70.64Z"/><path class="cls-6" d="M49.53,72.33c1.11-2.82,3.62-10.22,1.8-15.22C42,66.25,29.42,61.87,29.42,61.87l-1.21,5.85C30.66,68.33,41.39,71,49.53,72.33Z"/><path class="cls-6" d="M71,49.29c-1.34-1.91-6.1.76-6.1.76s2.28-5.52.76-5.71-4.38,6.47-4.38,6.47c-10.47,2.45-2.7-13.21-11.63-19.44,2.67,6.48,1.71,25.74,1.71,25.74C52.39,58.67,74.13,54.11,71,49.29Z"/><path class="cls-6" d="M.63,38.62l5.15,5.72,6.1-4.58S8.45,51.39,5.78,54.63C5.78,54.63.63,49.1.63,38.62Z"/><path class="cls-6" d="M34.94,17.27c-.63-.05,1.44-7-9.53-7-.57,0-.09,12,8.39,11.06C30,32.79,48.45,32.86,52.29,30.71l-1.62-6.29,5,1.43a14.59,14.59,0,0,0-6.67-10.2c1.6-5.24-3.73-13.8-9.72-6.48C38,11.74,38.37,17.56,34.94,17.27Z"/><path class="cls-6" d="M38.47,30.71a8,8,0,0,1-3.8-2.62c-10,3.44-23.89,23.75-14.78,42.55-2,8,7.75,8.36,10.67,5.53,0,0-3.81-.77-2.29-3.43,0,0-6.1-6.3-4.95-19.06,0,0,6.29-2.87,8.57-11.25L29.42,61.87S42,66.25,51.33,57.11c0,0,1-19.17-1.69-25.69A21.2,21.2,0,0,1,38.47,30.71Z"/><path class="cls-6" d="M33.8,21.37a6.64,6.64,0,0,1-4.2-.8c-.23,4.79,2.8,7.87,5.07,7.52C32.43,25.11,33.8,21.37,33.8,21.37Z"/><path class="cls-6" d="M47.24,7.74a5.42,5.42,0,0,1,1.59,2.73c6.4-.72,3.76-10,3.65-10-.19,4.86-5.15,6.86-5.15,6.86l-.15.34Z"/><path class="cls-6" d="M31,1.55c-3.63,7.45,4,9.72,4,9.72.85.53,3.12-2.85,2.67-4.09A6.66,6.66,0,0,1,31,1.55Z"/><path class="cls-6" d="M47.81,8.12c-1.07-4-8.64-6.84-14.2-2.24a6.8,6.8,0,0,0,4.1,1.3c-.33,4.24-2.84,5.55-6.39,1.62a13.24,13.24,0,0,0-.9,2.19c5.25,1.74,4,6.24,4.52,6.28,3.43.29,3.05-5.53,4.39-8.1a5.14,5.14,0,0,1,8.56-.7A2.21,2.21,0,0,0,47.81,8.12Z"/><path class="cls-1" d="M42.34,17.76c-2.44.23-4.15-5-1.9-3.23.16.49.74,1.82,1.62,2,.52.14,1.13-.12,1.83-.77C46.44,15.41,43.26,18.19,42.34,17.76Z"/><path class="cls-1" d="M50.67,25c-4.87,0-5-5.28-3.15-3.2,0,.09.24,1.9,3.18,2.06A.57.57,0,0,1,50.67,25Z"/><path class="cls-1" d="M48.35,27.92c-3,.15-5.69-2.5-3.21-2.21a5.57,5.57,0,0,0,5.87.47C53.74,26.81,49,28.22,48.35,27.92Z"/><path class="cls-6" d="M28.94,15.84s-.29-2,1.24-1.62,3,4.86,4.38,3"/><path class="cls-6" d="M13.5,20.7C4.56,21.31,3.89,36.39,4,42.33l1.8,2,1.11-.84C5.44,26.18,17.75,13.42,23.31,37.6c.53-.72,1.08-1.39,1.63-2C24.12,30,21.52,20.15,13.5,20.7Z"/><path class="cls-6" d="M60.69,90.54l4.21-1.31c-1.54-.09-14.52-2.46-10.77-8.32L62.5,83.2l0,1.9,7.43-1.89-5.47-5.27-.93,1.6-8.37-2.29c-.29-6.81,12.31-2.1,13.45-1.51l-3-3.18C47.45,64,41.32,89,60.69,90.54Z"/><path class="cls-6" d="M49.4,77.61c.06-.27.12-.52.19-.76L27.87,72.26c.24.31.4.48.4.48a1.93,1.93,0,0,0,1,3l19.63,4A11.64,11.64,0,0,1,49.4,77.61Z"/><path class="cls-6" d="M30,57.34l-.57,4.53S42,66.25,51.33,57.11c0,0,1-19.17-1.69-25.69C49.64,31.42,47.3,53.17,30,57.34Z"/></g></g></svg>