<svg xmlns="http://www.w3.org/2000/svg" viewBox="0 0 57.18 95.1"><defs><style>.cls-1{fill:#eab38e;}.cls-2{fill:#231f20;}.cls-3{fill:#ead8b0;}.cls-4{fill:#2b799d;}.cls-5{fill:#b8f4ff;}.cls-6{fill:none;stroke:#231f20;stroke-linecap:round;stroke-linejoin:round;}</style></defs><g id="Layer_2" data-name="Layer 2"><g id="OBJECTS"><path class="cls-1" d="M5.17,26.06s1.67-3,4.33-1.27v1.8S9.5,25,5.17,26.06Z"/><path class="cls-2" d="M50.25,91.3c0,2.1-11.25,3.8-25.13,3.8S0,93.4,0,91.3s11.25-3.8,25.12-3.8S50.25,89.2,50.25,91.3Z"/><path class="cls-3" d="M53.14,29.66c-2.36,0-5.78,2.29-8.7,5.84-.63.76-1.35,1.48-2,2.17-1.69,1.66-3.43,3.39-4,5.94a.49.49,0,0,1-.31.33.46.46,0,0,1-.44-.08c-.16-.12-3.8-3.11-4.1-13.17S31.68,7.75,30.12,5.62a2.07,2.07,0,0,0-1.77-.9,4.5,4.5,0,0,0-2.06.6c-.09,2.2-.61,18.19,1.05,26.78a.47.47,0,0,1-.37.55h-.09a.47.47,0,0,1-.46-.39C24.63,23,25.35,5.29,25.36,5h0s.1-3.8-2.15-4.05-4.14,2.65-4.47,3.16c-.17,1.66-2.31,22.55-.6,31a.47.47,0,0,1-.36.55h-.1a.47.47,0,0,1-.46-.37c-1.76-8.68.4-29.51.59-31.26a1.7,1.7,0,0,0-1.49-1.25,2.73,2.73,0,0,0-1.27.4c-1.82,1-3.13,9.37-3.53,14.41h0v0c0,.15-2.36,15.15,0,20.24a.46.46,0,0,1-.23.62.45.45,0,0,1-.19,0,.47.47,0,0,1-.43-.28c-2.36-5.15-.3-19.1-.06-20.65-.15-.38-.82-1.78-2.15-1.78a2.34,2.34,0,0,0-.57.07c-2,.5-4,7.78-2.81,16.83,1,7.51,6.19,36.26,7.72,44.69h0l.39,2.15a4,4,0,0,0,.39.27,18.88,18.88,0,0,0,10.1,2.81,23.77,23.77,0,0,0,8.84-1.79,30.09,30.09,0,0,0,2.85-1.31c.06-2.24.7-16.39,5.87-21.17,3.26-3,4.15-5.87,5-8.64a18.77,18.77,0,0,1,3.08-6.54L51,41.09c4.48-5.6,6.53-8.38,4.38-10.53A3,3,0,0,0,53.14,29.66Z"/><path class="cls-4" d="M40.66,82.2l-.14.11-.22.15a29.25,29.25,0,0,1-8,3.48l-.19,0-1,.28-.34.08-1,.23-.36.08L28,86.94a20.46,20.46,0,0,1-3.72.32h0c-.41,0-.82,0-1.23,0h0c-6.4-.3-13.28-2.76-15.75-4.7v6.7a33,33,0,0,0,15,3.83c.82,0,1.66,0,2.47-.11a44.12,44.12,0,0,0,16-4.49L41,82Z"/><path class="cls-4" d="M36.25,79.66v.19a.46.46,0,0,1-.25.4,26.24,26.24,0,0,1-12.37,3.34h0a18.9,18.9,0,0,1-11.22-3.38.48.48,0,0,1-.17-.29s-.12-.68-.32-1.76c-2,.81-4.19,2-4.67,2.94,0,0,0,0,0,0a3.41,3.41,0,0,0,1.32,1.15,34.75,34.75,0,0,0,11,3.64h0l.62.09.18,0,.51.06.28,0,.44,0,.33,0,.43,0,.34,0,.47,0h.29l.75,0h0A19.55,19.55,0,0,0,27.85,86c.51-.09,1-.19,1.48-.3l.59-.14.81-.19.64-.17.68-.19.63-.19.6-.18.58-.2.57-.2.54-.2.51-.19.5-.21.47-.2.45-.2.43-.2c.14-.06.27-.13.4-.2l.39-.19c.13-.06.24-.13.35-.19l.35-.19.3-.18.3-.17.26-.17.26-.17.2-.14.21-.16.16-.13c.05,0,.12-.09.16-.14l.11-.1.12-.12a.47.47,0,0,0,.06-.09l.06-.08A11.65,11.65,0,0,0,36.34,78c-.05.8-.08,1.39-.09,1.68Z"/><path class="cls-2" d="M36.34,78c-.05.8-.08,1.39-.09,1.68v.22a.46.46,0,0,1-.25.4,26.24,26.24,0,0,1-12.37,3.34h0a19.45,19.45,0,0,1-10.6-3,23,23,0,0,0,16.06,5.12l.24-.05.59-.14.81-.19.64-.17.68-.19.63-.19.6-.18.58-.2.57-.2.54-.2.51-.19.5-.21.47-.2.45-.2.43-.2c.14-.06.27-.13.4-.2l.39-.19c.13-.06.24-.13.35-.19l.35-.19.3-.18.3-.17.26-.17.26-.17.2-.14.21-.16.16-.13c.05,0,.12-.09.16-.14l.11-.1.12-.12a.47.47,0,0,0,.06-.09l.06-.08A11.65,11.65,0,0,0,36.34,78Z"/><path class="cls-5" d="M40.93,83.45,41,82l-.33.24-.14.11-.22.15a29.25,29.25,0,0,1-8,3.48l-.19,0-1,.28-.34.08-1,.23-.36.08L28,86.94a20.46,20.46,0,0,1-3.72.32h0c-.41,0-.82,0-1.23,0h0A36.25,36.25,0,0,1,8.45,83.29c2.24,3.59,7.62,10.31,16.28,9.65C31.31,92.44,37.1,87.61,40.93,83.45Z"/><path class="cls-1" d="M29.5,51.8c2-8,5.57-7,8.09-7.95-.15-.12-1.77-1.5-2.93-5.32a.86.86,0,0,1-.16.1C26.83,42.3,29.5,51.8,29.5,51.8Z"/><path class="cls-1" d="M39.17,60.3S24.49,80.6,13.07,79.2l.07.37a4,4,0,0,0,.39.27,18.88,18.88,0,0,0,10.1,2.81,23.77,23.77,0,0,0,8.84-1.79,30.09,30.09,0,0,0,2.85-1.31c.06-2,.59-13.87,4.55-19.62Z"/><path class="cls-1" d="M25.36,5S25.43,2.22,24,1.28l-.39,1.77S22.43,20.19,26,29.71C24.74,20.09,25.35,5.27,25.36,5Z"/><path class="cls-1" d="M10.65,34.42c-.08-1-.16-2.29-.2-3.72A31.17,31.17,0,0,0,10.65,34.42Z"/><path class="cls-1" d="M17.22,35.3c-1.76-8.68.4-29.51.59-31.26a2,2,0,0,0-1-1.15C16.56,5,15.71,12.74,15.5,20.3,15.25,29.18,16.94,35.92,17.22,35.3Z"/><path class="cls-1" d="M9.73,34.63c-.77-6.26.64-15.76.83-17a2.87,2.87,0,0,0-1.75-1.73C8.41,19.63,7.7,28,9.73,34.63Z"/><path class="cls-1" d="M19,18.3s2.13-3.5,5.5-1.5v2.13S24.5,17.05,19,18.3Z"/><path class="cls-1" d="M12.25,20.06s1.67-3,4.33-1.27v1.8S16.58,19,12.25,20.06Z"/><path class="cls-1" d="M28.58,18.9s1.68-3,4.34-1.28v1.81S32.92,17.84,28.58,18.9Z"/><path class="cls-2" d="M26.14,82.49a24.93,24.93,0,0,0,6.33-1.63,30.09,30.09,0,0,0,2.85-1.31,68.35,68.35,0,0,1,.73-7.89C34.3,75.29,31.2,79.93,26.14,82.49Z"/><path class="cls-6" d="M12.71,79.84s9.2,7.39,23.07,0c0,0,.31-16.11,5.73-21.11,5.88-5.43,4.22-10.26,8.14-15.23,5.18-6.57,8.9-10.41,6-13.28s-8.07.69-11.61,5c-2.11,2.56-5.28,4.52-6.18,8.3,0,0-3.62-2.87-3.92-12.82S32.16,7.61,30.5,5.34,25.83,5,25.83,5,26,.82,23.26.52s-5,3.46-5,3.46-.76-2.71-3.47-1.2-3.77,14.78-3.77,14.78-.91-2.72-3.32-2.11S3.36,23.89,4.56,32.79,12.71,79.84,12.71,79.84Z"/><path class="cls-2" d="M26.88,32.66a.47.47,0,0,1-.46-.39C24.62,23,25.35,5.2,25.36,5a.48.48,0,0,1,.49-.45.48.48,0,0,1,.45.49c0,.18-.74,17.85,1,27a.47.47,0,0,1-.37.55Z"/><path class="cls-2" d="M17.68,35.67a.47.47,0,0,1-.46-.37c-1.8-8.87.5-30.45.6-31.36a.47.47,0,0,1,.52-.42.47.47,0,0,1,.41.52c0,.22-2.38,22.34-.61,31.07a.47.47,0,0,1-.36.55Z"/><path class="cls-2" d="M11.05,38.54a.47.47,0,0,1-.43-.28c-2.44-5.34-.14-20.15,0-20.78a.47.47,0,0,1,.54-.39.47.47,0,0,1,.39.54c0,.15-2.36,15.15,0,20.24a.46.46,0,0,1-.23.62A.45.45,0,0,1,11.05,38.54Z"/><path class="cls-6" d="M35.91,77.34c-.11,1.53-.13,2.5-.13,2.5-13.87,7.39-23.07,0-23.07,0l-.43-2.33c-1.9.74-4.83,2.13-5.46,3.39-.9,1.8,12.22,7.23,21.12,5.58s13.72-5.13,13.57-5.89C41.39,80,38.67,78,35.91,77.34Z"/><path class="cls-6" d="M27.94,86.48C19.62,88,7.62,83.38,6.82,81.29v8.2a32.47,32.47,0,0,0,18,3.92,43.29,43.29,0,0,0,16.44-4.67l.3-8.15C41.66,81.35,36.83,84.82,27.94,86.48Z"/></g></g></svg>