<svg xmlns="http://www.w3.org/2000/svg" viewBox="0 0 57.33 87.44"><defs><style>.cls-1{fill:#eaab40;}.cls-2{fill:#231f20;}.cls-3{fill:#2b799d;}.cls-4{fill:#fff;}.cls-5{fill:#315b8b;}.cls-6{fill:#b8f4ff;}.cls-7{fill:#2bc0e2;}.cls-8{fill:none;stroke:#231f20;stroke-linecap:round;stroke-linejoin:round;}</style></defs><g id="Layer_2" data-name="Layer 2"><g id="OBJECTS"><path class="cls-1" d="M55.88,67.92a1.87,1.87,0,0,1-.31.17l-.12,0a1.79,1.79,0,0,1-.41.13h0a2.3,2.3,0,0,1-.39,0V87.44H56V67.84l0,0Z"/><ellipse class="cls-2" cx="27.07" cy="85.69" rx="23.25" ry="1.75"/><path class="cls-3" d="M46.92,17.74,48.29,4.08a3.68,3.68,0,0,0-.59-2.4,1.72,1.72,0,0,0-1.29-.58c-.8,0-2.55-.06-5.2-.06C36.7,1,31.07,1.1,31,1.1S24.47,1,19.29,1c-3,0-5.06,0-6,.06a2.11,2.11,0,0,0-1.65.71,3.37,3.37,0,0,0-.58,2.26l1.57,13.67Z"/><polygon class="cls-4" points="46.81 18.82 12.78 18.82 13.41 24.33 46.26 24.33 46.81 18.82"/><path class="cls-3" d="M50.35,32.28H9.58c-.06,0-5.66.06-6.63,3.73H56.19C55.35,32.34,50.56,32.28,50.35,32.28Z"/><path class="cls-5" d="M50.35,32.28H21.6c.21,0,5,.06,5.84,3.73H56.19C55.35,32.34,50.56,32.28,50.35,32.28Z"/><path class="cls-2" d="M50.35,32.28H40.1c.21,0,5,.06,5.84,3.73H56.19C55.35,32.34,50.56,32.28,50.35,32.28Z"/><path class="cls-1" d="M54.08,49.55h.42a1.52,1.52,0,0,0,0-3H51.78a1.22,1.22,0,0,0,.07.17c.08.17.16.34.23.52s.12.31.17.46.13.36.18.54.12.45.17.67,0,.23.06.34.05.23.07.34Z"/><path class="cls-1" d="M51.56,49.17s0-.05,0-.08c-.06-.29-.14-.58-.23-.87l-.05-.11a8.11,8.11,0,0,0-.31-.82.2.2,0,0,1,0-.08,8.83,8.83,0,0,0-.43-.8,8.87,8.87,0,1,0,1.23,3.73A7.83,7.83,0,0,0,51.56,49.17Zm-9,9.29A7.41,7.41,0,1,1,50,51.05,7.42,7.42,0,0,1,42.55,58.46Z"/><path class="cls-5" d="M13.54,83.93a6.14,6.14,0,0,0,2.21-.4C23,80.87,26.45,77,26.48,77a.55.55,0,0,1,.4-.18h0a.5.5,0,0,1,.39.18S31,80.87,38.51,83.53a7,7,0,0,0,2.33.4c5,0,10-5.08,12.14-7.55a6.2,6.2,0,0,1-1,.09c-2.83,0-5.06-1.89-7.41-3.89-2.16-1.83-4.39-3.73-7.34-4.5a7.52,7.52,0,0,0-1.9-.25c-5.45,0-7.86,6.84-7.88,6.91a.55.55,0,0,1-.51.37h0a.54.54,0,0,1-.51-.37c0-.07-2.33-6.91-7.52-6.91a6.66,6.66,0,0,0-1.79.25c-2.82.77-4.95,2.66-7,4.49-2.26,2-4.39,3.89-7.11,3.9h0a6.45,6.45,0,0,1-1-.08C4,78.85,8.75,83.93,13.54,83.93Z"/><path class="cls-2" d="M51.7,76.45c-2.5,2.6-6.66,6.14-10.86,6.14a7,7,0,0,1-2.33-.39C31,79.53,27.32,75.65,27.28,75.61a.52.52,0,0,0-.39-.17h0a.52.52,0,0,0-.4.18S23,79.53,15.75,82.2a6.35,6.35,0,0,1-2.21.39c-4,0-8-3.54-10.37-6.14l-.23,0h0a6.45,6.45,0,0,1-1-.08c2,2.46,6.79,7.54,11.58,7.54a6.14,6.14,0,0,0,2.21-.4C23,80.87,26.45,77,26.48,77a.55.55,0,0,1,.4-.18h0a.5.5,0,0,1,.39.18S31,80.87,38.51,83.53a7,7,0,0,0,2.33.4c5,0,10-5.08,12.14-7.55a6.2,6.2,0,0,1-1,.09Z"/><path class="cls-6" d="M42.55,44.72a6.33,6.33,0,1,0,6.32,6.33A6.34,6.34,0,0,0,42.55,44.72Z"/><polygon class="cls-3" points="46.15 25.42 13.53 25.42 14.2 31.2 45.57 31.2 46.15 25.42"/><path class="cls-5" d="M26.36,25.42a25.5,25.5,0,0,1-12.31,4.51l.15,1.27H45.57l.58-5.78Z"/><path class="cls-7" d="M46.81,18.82H36.63A26.84,26.84,0,0,1,29,24.33H46.26Z"/><path class="cls-5" d="M37.63,17.74h9.29L48.29,4.08a3.68,3.68,0,0,0-.59-2.4,1.72,1.72,0,0,0-1.29-.58l-.45,0A39.9,39.9,0,0,1,37.63,17.74Z"/><path class="cls-3" d="M20.07,76.94a6.34,6.34,0,0,0-6-2.75s6.1-5.16,12.3.55c0-.07-2.33-6.91-7.52-6.91a6.66,6.66,0,0,0-1.79.25c-2.82.77-4.95,2.66-7,4.49-2.26,2-4.39,3.89-7.11,3.9h0a6.45,6.45,0,0,1-1-.08S11.32,83.19,20.07,76.94Z"/><path class="cls-3" d="M44.52,72.58c-2.16-1.83-4.39-3.73-7.34-4.5a7.52,7.52,0,0,0-1.9-.25c-4.12,0-6.51,3.92-7.43,5.86,6.44-4,12.37.5,12.37.5a7.39,7.39,0,0,0-6.76,2.75c7.47,4.74,15.33,2,18.7.36.3-.33.58-.64.82-.92a6.2,6.2,0,0,1-1,.09C49.1,76.47,46.87,74.58,44.52,72.58Z"/><path class="cls-5" d="M38.14,55.59a6.36,6.36,0,0,0,3.18,1.67l6.39-9.85A6.34,6.34,0,0,0,44.19,45Z"/><path class="cls-5" d="M48.87,51.05q0-.3,0-.6C47.57,52.1,45.49,55,44,57.21A6.34,6.34,0,0,0,48.87,51.05Z"/><path class="cls-2" d="M45.57,31.2l.58-5.78H40.82a24.71,24.71,0,0,1-10.5,5.77H45.57Z"/><path class="cls-3" d="M46.26,24.33l.55-5.51h-1a26.22,26.22,0,0,1-4,5.51Z"/><path class="cls-2" d="M46.41,17.74h.51l.15-1.51C46.88,16.71,46.66,17.21,46.41,17.74Z"/><path class="cls-8" d="M50.35,31.74H9.58s-6.73,0-7.28,4.81H56.83C56.34,31.74,50.35,31.74,50.35,31.74Z"/><path class="cls-8" d="M13.72,31.74H46.06L48.83,4.13S49.19.7,46.44.56,31,.56,31,.56,16.45.42,13.29.56s-2.75,3.57-2.75,3.57Z"/><polygon class="cls-8" points="12.93 24.87 46.75 24.87 47.41 18.28 12.17 18.28 12.93 24.87"/><path class="cls-8" d="M52.3,51.05a9.76,9.76,0,1,1-9.75-9.75A9.76,9.76,0,0,1,52.3,51.05Z"/><path class="cls-8" d="M49.41,51.05a6.87,6.87,0,1,1-6.86-6.87A6.86,6.86,0,0,1,49.41,51.05Z"/><path class="cls-8" d="M54.5,46H51.61a2,2,0,0,0-.68.13,9.57,9.57,0,0,1,1.32,4H54.5a2.06,2.06,0,0,0,0-4.12Z"/><path class="cls-8" d="M54.5,50.09h-.42V70.28h2.48V48A2.06,2.06,0,0,1,54.5,50.09Z"/><path class="cls-8" d="M37.31,67.56c-7.37-1.92-10.42,7-10.42,7s-2.92-8.93-10-7S6.94,78.14.5,75.39c0,0,8,11.4,15.44,8.65s11-6.73,11-6.73,3.68,4,11.44,6.73,16.15-8.65,16.15-8.65C47.74,78.14,44.69,69.48,37.31,67.56Z"/></g></g></svg>