<svg xmlns="http://www.w3.org/2000/svg" viewBox="0 0 60 102.13"><defs><style>.cls-1{fill:#231f20;}.cls-2{fill:#2bc0e2;}.cls-3{fill:#b8f4ff;}.cls-4{fill:#2b799d;}.cls-5{fill:#e6305e;}.cls-6{fill:#fff;}.cls-7{fill:#97305e;}.cls-8{fill:#cccecf;}.cls-9{fill:#ff90bd;}.cls-10{fill:none;stroke:#231f20;stroke-linecap:round;stroke-linejoin:round;}</style></defs><g id="Layer_2" data-name="Layer 2"><g id="OBJECTS"><path class="cls-1" d="M60,99.18c0,1.63-13.43,2.95-30,2.95S0,100.81,0,99.18s13.43-3,30-3S60,97.55,60,99.18Z"/><path class="cls-2" d="M21.92,8.64l.25.06c.11,0,.21,0,.32,0H35.34a2.18,2.18,0,0,0,1-.24h0A2.11,2.11,0,0,0,37.55,6.6V3.17A2.18,2.18,0,0,0,35.34,1H22.49a2.17,2.17,0,0,0-2.2,2.13V6.6a2.13,2.13,0,0,0,1.62,2Z"/><path class="cls-3" d="M35.34,1H33.17a2.18,2.18,0,0,1,2.21,2.13V6.6a2.11,2.11,0,0,1-1.22,1.89h0a2.22,2.22,0,0,1-1,.24h2.17a2.18,2.18,0,0,0,1-.24h0A2.11,2.11,0,0,0,37.55,6.6V3.17A2.18,2.18,0,0,0,35.34,1Z"/><path class="cls-4" d="M25.59,8.64h0A2.14,2.14,0,0,1,24,6.6V3.17A2.18,2.18,0,0,1,26.16,1H22.49a2.17,2.17,0,0,0-2.2,2.13V6.6a2.13,2.13,0,0,0,1.62,2h0l.25.06c.11,0,.21,0,.32,0h3.67a3.16,3.16,0,0,1-.32,0Z"/><path class="cls-5" d="M41.2,74.33a28.32,28.32,0,0,1,2.06-7.25C45,62.63,46.7,58,45.08,52.69c-.83-2.72-1.91-5.47-3-8.38-.34-.88-.7-1.78-1.05-2.7-8.39,3-16.73,3-24,.2l-1,2.54c-.91,2.18-1.78,4.27-2.52,6.33-.25.68-.49,1.36-.71,2-.13.43-.24.84-.33,1.25-1.08,4.81.62,9,2.29,13.12a30.77,30.77,0,0,1,2.09,6.4.07.07,0,0,1,0,.05c.05.27.08.55.11.83v0A41.87,41.87,0,0,0,41.2,74.33Z"/><path class="cls-6" d="M31.25,61.85C37,65.81,41,66.51,43.68,66c1.19-3.19,2.26-6.48,2-10.07-6.59,5.27-15.06,4.7-21.18-1.06-4.28-4-8.68-3.11-12-1.21,0,.11-.07.22-.09.33a14.31,14.31,0,0,0-.29,4.29C16.5,55.53,22.36,55.71,31.25,61.85Z"/><path class="cls-2" d="M11.91,97.69A4.63,4.63,0,0,0,14,100.24l30.05,0c.62-.39,3.55-2.53,1.13-7a34.7,34.7,0,0,1-4-17.73,46.41,46.41,0,0,1-12.62,1.8A39.15,39.15,0,0,1,17,75.55a33,33,0,0,1-4.24,17.68A5.66,5.66,0,0,0,11.91,97.69Z"/><path class="cls-2" d="M40.59,40.59a61.86,61.86,0,0,1-4.38-18A109.67,109.67,0,0,1,36,9.75a3.36,3.36,0,0,1-.63.06h-13a104.57,104.57,0,0,1-.24,12.8c-.44,6.7-2.52,12.74-4.71,18.19C24.41,43.51,32.46,43.46,40.59,40.59Z"/><path class="cls-4" d="M35.88,12.9c0-1.28,0-2.32.09-3.15a3.36,3.36,0,0,1-.63.06h-13c.05.83.09,1.87.1,3.16H35.34A2,2,0,0,0,35.88,12.9Z"/><path class="cls-4" d="M19.5,92.1c2.77-2.25,3.14-9.06,2.19-15.44A39,39,0,0,1,17,75.55a33,33,0,0,1-4.24,17.68,5.66,5.66,0,0,0-.82,4.46A4.63,4.63,0,0,0,14,100.24l30.05,0a4.49,4.49,0,0,0,2.07-3.87H25.25C20.75,96.35,15.5,95.35,19.5,92.1Z"/><path class="cls-7" d="M19.75,68.85C17.55,63,18,52.83,20.91,43A30.89,30.89,0,0,1,17,41.81l-1,2.54c-.91,2.18-1.78,4.27-2.52,6.33-.25.68-.49,1.36-.71,2-.13.43-.24.84-.33,1.25-1.08,4.81.62,9,2.29,13.12a30.77,30.77,0,0,1,2.09,6.4.07.07,0,0,1,0,.05c.05.27.08.55.11.83v0a37.24,37.24,0,0,0,4.6,1.14A37.26,37.26,0,0,0,19.75,68.85Z"/><path class="cls-8" d="M12.19,55.28c0,.24-.06.49-.08.73s0,.2,0,.3,0,.5,0,.74a2.09,2.09,0,0,0,0,.25c0,.31,0,.62,0,.93v0a10.94,10.94,0,0,1,6.36-1.67c.09-1.47.24-3,.46-4.52a10.61,10.61,0,0,0-6.44,1.57c0,.11-.07.22-.09.33-.08.34-.14.68-.19,1Z"/><path class="cls-4" d="M23.5,35.85c3.15-7.23,3.28-19.94,3.13-26H22.37a104.57,104.57,0,0,1-.24,12.8c-.44,6.7-2.52,12.74-4.71,18.19A28,28,0,0,0,21.23,42,59,59,0,0,1,23.5,35.85Z"/><path class="cls-3" d="M44,100.22c.62-.39,3.55-2.53,1.13-7a34.7,34.7,0,0,1-4-17.73c-1.31.37-2.62.68-3.94.94a17.89,17.89,0,0,0,.54,5.45C39.38,88,44.34,96.08,42,100.22Z"/><path class="cls-9" d="M37.29,75.28c1.31-.26,2.61-.57,3.91-1a28.32,28.32,0,0,1,2.06-7.25C45,62.63,46.7,58,45.08,52.69c-.83-2.72-1.91-5.47-3-8.38-.34-.88-.7-1.78-1.05-2.7-.66.24-1.32.45-2,.65,2.79,6.18,4.82,12.16,3,17.09S37.8,69.75,37.29,75.28Z"/><path class="cls-6" d="M45.68,55.91A18.07,18.07,0,0,1,42.4,58a10.9,10.9,0,0,1-.4,1.38c-.76,2-1.62,4.24-2.42,6.5a10.14,10.14,0,0,0,4.1.13s0,0,0-.06l.4-1.08a.24.24,0,0,0,0-.08c.28-.79.55-1.58.78-2.39,0,0,0,0,0,0a23.43,23.43,0,0,0,.57-2.48h0A16.43,16.43,0,0,0,45.68,55.91Z"/><path class="cls-3" d="M36.21,22.59A109.67,109.67,0,0,1,36,9.75a3.36,3.36,0,0,1-.63.06H33.55c-.39,5.51-.93,18.89,2.2,25.54.92,2,1.89,3.94,2.79,5.9.68-.2,1.37-.41,2.05-.66A61.86,61.86,0,0,1,36.21,22.59Z"/><path class="cls-10" d="M38.09,6.6a2.71,2.71,0,0,1-2.75,2.67H22.49A2.71,2.71,0,0,1,19.74,6.6V3.17A2.71,2.71,0,0,1,22.49.5H35.34a2.71,2.71,0,0,1,2.75,2.67Z"/><path class="cls-10" d="M45.63,92.94A34.55,34.55,0,0,1,41.7,75c.24-6.51,6.6-13.56,3.89-22.42s-8.09-18.24-8.84-30A102.78,102.78,0,0,1,36.56,9a2.78,2.78,0,0,1-1.22.29H22.49a2.83,2.83,0,0,1-.71-.1,96.8,96.8,0,0,1-.19,13.4c-.77,11.73-6.5,21.12-9.36,30S16.15,68.46,16.42,75a32.86,32.86,0,0,1-4.16,18c-3.12,5.48,1.57,7.82,1.57,7.82H44.17S48.57,98.41,45.63,92.94Z"/><path class="cls-10" d="M16.71,41.11c-1.61,4-3.3,7.77-4.48,11.45C9.39,61.35,16,68.34,16.4,74.81c10,3.32,19.54,1.66,25.31-.07.37-6.46,6.56-13.44,3.88-22.21C44.46,48.8,42.84,45,41.3,40.92,30.36,45,21.87,43.22,16.71,41.11Z"/><path class="cls-10" d="M45.63,92.94A34.55,34.55,0,0,1,41.7,75c.24-6.51,6.6-13.56,3.89-22.42s-8.09-18.24-8.84-30A102.78,102.78,0,0,1,36.56,9a2.78,2.78,0,0,1-1.22.29H22.49a2.83,2.83,0,0,1-.71-.1,96.8,96.8,0,0,1-.19,13.4c-.77,11.73-6.5,21.12-9.36,30S16.15,68.46,16.42,75a32.86,32.86,0,0,1-4.16,18c-3.12,5.48,1.57,7.82,1.57,7.82H44.17S48.57,98.41,45.63,92.94Z"/></g></g></svg>