<svg xmlns="http://www.w3.org/2000/svg" viewBox="0 0 59.46 95.2"><defs><style>.cls-1{fill:#231f20;}.cls-2{fill:#fff460;}.cls-3{fill:#eaab40;}.cls-4{fill:#fff;}.cls-5{fill:none;stroke:#231f20;stroke-linecap:round;stroke-linejoin:round;}</style></defs><g id="Layer_2" data-name="Layer 2"><g id="OBJECTS"><ellipse class="cls-1" cx="31.79" cy="91.7" rx="27.67" ry="3.5"/><path class="cls-2" d="M53.09,10.82C48.73,4.33,40.5,1,28.62,1H27.7c-11.23.16-19,3.44-23.18,9.75-7.49,11.4-.76,28.42,0,30.33C7,47,6.7,48.11,5.74,50.31A15.57,15.57,0,0,0,4.42,55a5.5,5.5,0,0,0,1,4.27c2.15,2.77,6.69,3.34,6.74,3.34a.56.56,0,0,1,.48.57l-.57,10,.09.09.11.1.17.12.12.06a.9.9,0,0,0,.21.08l.1,0a1.84,1.84,0,0,0,.33,0h0a4,4,0,0,0,2.32-1.16.54.54,0,0,1,.35-.29.55.55,0,0,1,.63.25,3.94,3.94,0,0,0,2.75,1.16A5,5,0,0,0,21.61,73a.55.55,0,0,1,.34-.19.58.58,0,0,1,.57.28,3.85,3.85,0,0,0,2.65,1.17A5,5,0,0,0,28.23,73a.62.62,0,0,1,.49-.28.57.57,0,0,1,.45.26,5.6,5.6,0,0,0,3.22,1.19,4.18,4.18,0,0,0,2.91-1.25.58.58,0,0,1,.58-.29.55.55,0,0,1,.31.16,2.69,2.69,0,0,0,.32.14,5.49,5.49,0,0,0,2.09.44,4.32,4.32,0,0,0,3.14-1.34.53.53,0,0,1,.75,0,4.73,4.73,0,0,0,2.6,1.22,2.22,2.22,0,0,0,.38,0l.11,0,.24-.08L46,73l.2-.14.12-.1.09-.1-.88-10a.54.54,0,0,1,.46-.59c.05,0,5-.73,7.19-3.69A5.28,5.28,0,0,0,54,54.28a14.75,14.75,0,0,0-1.54-4.61c-1.09-2.18-1.43-3.3,1-9.24C54.21,38.58,60.62,22,53.09,10.82ZM16.87,46.55A10.58,10.58,0,1,1,27.45,36,10.6,10.6,0,0,1,16.87,46.55Zm19.6,10.33a2.87,2.87,0,0,1-2.4,1.33c-1.85,0-3.73-1.77-4.55-2.65-.77.83-2.47,2.41-4.25,2.42a3.12,3.12,0,0,1-2.59-1.5,2.88,2.88,0,0,1-.45-2.33c.74-3.49,7-7.28,7.27-7.44a.55.55,0,0,1,.54,0c.25.15,6.22,3.55,7,7.24A3.56,3.56,0,0,1,36.47,56.88ZM42,46.55A10.58,10.58,0,1,1,52.61,36,10.59,10.59,0,0,1,42,46.55Z"/><path class="cls-3" d="M19.34,85.65c1.46.19,3,.33,4.37.44L23.05,83c-1.53-.07-2.95-.16-4.22-.24Z"/><path class="cls-1" d="M35.94,53.92a2.7,2.7,0,0,1-.35.7,1.82,1.82,0,0,1-1.52.88c-1.57,0-3.52-2-4.14-2.73a.52.52,0,0,0-.42-.2.56.56,0,0,0-.42.21c-.55.69-2.3,2.49-3.82,2.49a2.06,2.06,0,0,1-1.7-1,1.43,1.43,0,0,1-.15-.27,3.38,3.38,0,0,0-.13.42,1.82,1.82,0,0,0,.28,1.48,2.07,2.07,0,0,0,1.7,1c1.52,0,3.27-1.8,3.82-2.49a.55.55,0,0,1,.42-.2.52.52,0,0,1,.42.2c.62.76,2.57,2.73,4.14,2.73a1.81,1.81,0,0,0,1.52-.89,2.38,2.38,0,0,0,.35-2.32Z"/><path class="cls-3" d="M46.27,74.08a2.21,2.21,0,0,1-.51.18l-.07,0a2.91,2.91,0,0,1-.6.06h0a4.65,4.65,0,0,1-2.41-.81L42,78.87A8.63,8.63,0,0,0,45,78.43c1.25-.77,1.51-3,1.49-4.43l-.09,0Z"/><path class="cls-3" d="M17,74.18l1.21,4.42,4,.18-.64-4.53a5.76,5.76,0,0,1-2.28.49A4.81,4.81,0,0,1,17,74.18Z"/><path class="cls-1" d="M16.42,41.2c-4.58-.11-7.21-1.42-8.73-2.84A9.49,9.49,0,0,0,26.37,36a9.83,9.83,0,0,0-.23-2C24.91,37.37,22.23,41.34,16.42,41.2Z"/><path class="cls-1" d="M42,45.46a9.52,9.52,0,0,0,9.32-7.71C50,39.38,47.28,41.07,42,41.2S34,38,32.63,34.71a8.68,8.68,0,0,0-.1,1.26A9.51,9.51,0,0,0,42,45.46Z"/><path class="cls-3" d="M18.16,85.48l-.49-2.85c-1.61-.11-2.88-.23-3.62-.3l.55,2.43A33.78,33.78,0,0,0,18.16,85.48Z"/><path class="cls-3" d="M40.6,85.5a28.61,28.61,0,0,0,3.95-.83l.26-2.88a31.87,31.87,0,0,1-3.56.68Z"/><path class="cls-3" d="M29.29,86.38h.29c.18,0,1.94,0,4.28-.2l.27-3.13c-1.26,0-2.57.07-4,.07h-1Z"/><path class="cls-3" d="M23.37,78.82c1.47.06,3,.1,4.63.14l.11-4.5a5.66,5.66,0,0,1-2.94.92,4.56,4.56,0,0,1-2.38-.69Z"/><path class="cls-3" d="M35.27,83,35,86.11c1.39-.1,2.91-.25,4.4-.44l.65-3C38.61,82.81,37,82.93,35.27,83Z"/><path class="cls-3" d="M24.21,83l.67,3.16.57,0h.07l.43,0h.14l.36,0h.17l.32,0,.45,0h0l.44,0h.3l-.1-3.23C26.73,83.09,25.45,83.06,24.21,83Z"/><path class="cls-3" d="M29.26,74.36,29.14,79c1.79,0,3.59.05,5.32.05l.6-4.54a5.05,5.05,0,0,1-2.67.78A6.27,6.27,0,0,1,29.26,74.36Z"/><path class="cls-3" d="M35.62,79c2.23,0,3.94-.05,5.24-.11l.65-5.32a5.28,5.28,0,0,1-2.91.86h0a6.3,6.3,0,0,1-1.94-.31L36.28,74Z"/><path class="cls-3" d="M15.73,73.8a4.41,4.41,0,0,1-2.5,1,2.5,2.5,0,0,1-.54-.07l-.1,0-.18,0c.49,1.86,1.1,3.41,1.44,3.59a28.33,28.33,0,0,0,3.18.29Z"/><path class="cls-2" d="M6.15,67.79a2.45,2.45,0,0,0-.39,4.87.55.55,0,0,1,.46.49c.34,3.72,1.39,12.67,3.92,15.23C11.8,90.06,17.5,91,25.79,91,28,91,29.53,91,29.55,91s1.58.08,3.74.08c8.12,0,13.71-1,15.34-2.65,2.47-2.56,3.51-11.5,3.84-15.23a.54.54,0,0,1,.45-.49,2.44,2.44,0,1,0-2.73-2.41,2.5,2.5,0,0,0,1.06,2,.53.53,0,0,1,.23.52c-.67,4.65-2,10.53-4.72,12.1a7.68,7.68,0,0,1-1.51.65s0,0,0,0l-.24.07-.08,0a35.4,35.4,0,0,1-5.85,1.12h0c-.94.12-1.89.21-2.8.29l-.16,0-.47,0-.27,0-.35,0-.32,0-.27,0-.36,0h-.21l-.37,0h-.16l-.41,0h0l-2.07.1H29.57c-.43,0-10.43-.22-15.58-1.76h0a9.3,9.3,0,0,1-1.92-.78c-2.74-1.56-4.13-7.44-4.81-12.1a.56.56,0,0,1,.23-.53,2.46,2.46,0,0,0-1.33-4.5Z"/><path class="cls-3" d="M53.09,10.82C48.73,4.33,40.5,1,28.62,1H27.7a38.55,38.55,0,0,0-13.81,2.4c7.38-.38,25.66-.36,30.9,6.5,6.5,8.5-11.25,9.75-15.25,17.75a20.2,20.2,0,0,0-2.1,8.18s0,.06,0,.09c0,.22,0,.43,0,.65C27.37,41.18,28.8,45,30,46.7c.09,0,.82.48,1.79,1.15,4,1.53,12.59,1.64,13.21,4.35.75,3.25-7,25.16-32.37,10.95l-.57,10,.09.09.11.1.17.12.12.06a.9.9,0,0,0,.21.08l.1,0a1.84,1.84,0,0,0,.33,0h0a4,4,0,0,0,2.32-1.16.54.54,0,0,1,.35-.29.55.55,0,0,1,.63.25,3.94,3.94,0,0,0,2.75,1.16A5,5,0,0,0,21.61,73a.55.55,0,0,1,.34-.19.58.58,0,0,1,.57.28,3.85,3.85,0,0,0,2.65,1.17A5,5,0,0,0,28.23,73a.62.62,0,0,1,.49-.28.57.57,0,0,1,.45.26,5.6,5.6,0,0,0,3.22,1.19,4.18,4.18,0,0,0,2.91-1.25.58.58,0,0,1,.58-.29.55.55,0,0,1,.31.16,2.69,2.69,0,0,0,.32.14,5.49,5.49,0,0,0,2.09.44,4.32,4.32,0,0,0,3.14-1.34.53.53,0,0,1,.75,0,4.73,4.73,0,0,0,2.6,1.22,2.22,2.22,0,0,0,.38,0l.11,0,.24-.08L46,73l.2-.14.12-.1.09-.1-.88-10a.54.54,0,0,1,.46-.59c.05,0,5-.73,7.19-3.69A5.28,5.28,0,0,0,54,54.28a14.75,14.75,0,0,0-1.54-4.61c-1.09-2.18-1.43-3.3,1-9.24C54.21,38.58,60.62,22,53.09,10.82ZM42,46.55A10.58,10.58,0,1,1,52.61,36,10.59,10.59,0,0,1,42,46.55Z"/><path class="cls-1" d="M52.46,49.67c-1.09-2.18-1.43-3.3,1-9.24.76-1.85,7.17-18.41-.36-29.61A18.34,18.34,0,0,0,51.65,9c2.1,4.87,4.76,12.75,2.89,18.1-2.73,7.85-.95.54-9.6-1.26a10.23,10.23,0,0,1,3.31,1.63,9.47,9.47,0,0,1,0,17.07,10.76,10.76,0,0,1-1.66,1A4.64,4.64,0,0,1,50,48.82c1.75,4.88,3.3,11-4.1,13.29.05,0,5-.73,7.19-3.69A5.28,5.28,0,0,0,54,54.28,14.75,14.75,0,0,0,52.46,49.67Z"/><path class="cls-4" d="M24.54,7.7C24,7.54,15.79,6.2,9.42,9.82S3.67,23.07,7.54,21.45s6.63-7,11.5-6.38S29.29,9.2,24.54,7.7Z"/><path class="cls-3" d="M8.42,41.45s.37,6.5,7,7.12S25.67,41.2,25.67,41.2,15.42,51.7,8.42,41.45Z"/><path class="cls-3" d="M35.74,57.62a2.68,2.68,0,0,1-1.67.59c-1.85,0-3.73-1.77-4.55-2.65-.77.83-2.47,2.41-4.25,2.42a3,3,0,0,1-2.36-1.23c.14,1,1,2.73,5,3.7A7.67,7.67,0,0,0,35.74,57.62Z"/><polygon class="cls-2" points="13.79 73.95 15.17 78.82 17.79 79.2 16.04 72.7 13.79 73.95"/><path class="cls-3" d="M47.15,84.65a2.48,2.48,0,0,1-.39.27,7.68,7.68,0,0,1-1.51.65s0,0,0,0l-.24.07-.08,0a35.4,35.4,0,0,1-5.85,1.12h0c-.94.12-1.89.21-2.8.29l-.16,0-.47,0-.27,0-.35,0-.32,0-.27,0-.36,0h-.21l-.37,0h-.16l-.41,0h0l-2.07.1H29.57c-.43,0-10.43-.22-15.58-1.76h0a9.3,9.3,0,0,1-1.92-.78,3,3,0,0,1-.49-.33,15.63,15.63,0,0,0,7.2,6.16c2.06.18,4.41.28,7,.28C28,91,29.53,91,29.55,91s1.58.08,3.74.08c1.59,0,3.08,0,4.46-.11C42.33,89.82,45.19,87.87,47.15,84.65Z"/><polygon class="cls-2" points="19.92 74.45 20.42 78.82 22.67 79.07 21.79 73.57 19.92 74.45"/><path class="cls-2" d="M26.29,75s.38,4.29.5,4.21a9,9,0,0,1,1.59,0l.25-5.33Z"/><path class="cls-2" d="M33.46,74.7a46.37,46.37,0,0,0-.54,4.75c.16,0,1.87.37,1.91.25s1-5.67,1-5.67Z"/><path class="cls-2" d="M39.38,74.11s-.17,5.21,0,5.13a11.76,11.76,0,0,1,2,.37l1-6.41Z"/><path class="cls-2" d="M45.25,74.11,44.13,79s1.66,0,2.16-1.25a21.23,21.23,0,0,0,.79-4.13Z"/><polygon class="cls-2" points="16.17 82.2 16 85.57 14.08 85.2 13.5 81.78 16.17 82.2"/><path class="cls-2" d="M19.79,82.36l.75,4.21s-1.5-.21-1.46-.33-.62-4-.62-4Z"/><polygon class="cls-2" points="26 82.66 26.46 86.95 24.96 86.91 23.79 82.74 26 82.66"/><path class="cls-2" d="M31,83l.09,4.08a9.6,9.6,0,0,1-2.21-.33c0-.17,0-4.21,0-4.21Z"/><polygon class="cls-2" points="37.13 82.45 36.25 86.57 34.67 86.91 34.92 82.49 37.13 82.45"/><polygon class="cls-2" points="40.71 82.24 40.13 86.24 41.92 85.91 42.64 81.76 40.71 82.24"/><polygon class="cls-2" points="42.67 81.61 42.64 81.76 42.88 81.7 42.67 81.61"/><path class="cls-4" d="M15.71,54.28s-4.5-2.17-6.42-.5S12.13,60.53,15,59.2,17.13,55.36,15.71,54.28Z"/><path class="cls-2" d="M43.79,55S48,51.45,50,53s-3.42,6.75-5.33,6.17S41.79,56.45,43.79,55Z"/><path class="cls-2" d="M50,12.53S48,24,39.79,23.36C39.79,23.36,52.63,26.2,50,12.53Z"/><path class="cls-3" d="M20.42,61.2S33.29,68.32,43.29,59l-1.87,6.12S29.79,70.07,20.42,61.2Z"/><path class="cls-5" d="M42.12,72.43c-2.83,2.83-6.32.79-6.32.79-3.4,3.35-7.09.1-7.09.1s-3.39,3.35-6.68.09a4.82,4.82,0,0,1-6-.61s-2.67,2.82-4.5.59c0,0,1,4.81,2.06,5.33s29.37,1.56,31.63.17,1.69-6,1.69-6C45,75.17,42.12,72.43,42.12,72.43Z"/><path class="cls-1" d="M17.7,79.38a.58.58,0,0,1-.56-.42L15.5,73a.58.58,0,0,1,.4-.7.57.57,0,0,1,.71.4l1.64,6a.58.58,0,0,1-.4.7Z"/><path class="cls-1" d="M22.82,79.64a.58.58,0,0,1-.57-.49l-.79-5.66a.57.57,0,0,1,.49-.65.57.57,0,0,1,.64.49l.8,5.66a.57.57,0,0,1-.49.65Z"/><path class="cls-1" d="M28.56,80h0A.59.59,0,0,1,28,79.4l.15-6.1a.6.6,0,0,1,.59-.56.57.57,0,0,1,.56.59l-.15,6.1A.57.57,0,0,1,28.56,80Z"/><path class="cls-1" d="M35,80h-.08a.58.58,0,0,1-.49-.65l.81-6.2a.58.58,0,0,1,.65-.49.57.57,0,0,1,.49.64l-.81,6.2A.58.58,0,0,1,35,80Z"/><path class="cls-1" d="M41.42,79.64h-.07a.57.57,0,0,1-.5-.64l.78-6.34a.59.59,0,0,1,.64-.51.58.58,0,0,1,.5.65L42,79.14A.57.57,0,0,1,41.42,79.64Z"/><path class="cls-5" d="M54,40.64C57.67,31.55,65.47,0,27.69.51-7.89,1,.31,32.35,4.05,41.34s.81,6.41-.17,13.55,8.25,8.23,8.25,8.23l-.58,10.27c1.83,2.23,4.5-.59,4.5-.59a4.82,4.82,0,0,0,6,.61c3.29,3.26,6.68-.09,6.68-.09s3.69,3.25,7.09-.1c0,0,3.49,2,6.32-.79,0,0,2.92,2.74,4.81.46L46,62.65s9.77-1.35,8.52-8.46S50.25,49.73,54,40.64ZM16.87,46a10,10,0,1,1,10-10A10,10,0,0,1,16.87,46ZM36,56.56c-2.37,3.3-6.52-1.82-6.52-1.82s-3.91,4.95-6.38,1.43,6.65-9,6.65-9S39,52.39,36,56.56ZM42,46a10,10,0,1,1,10-10A10,10,0,0,1,42,46Z"/><path class="cls-5" d="M52.55,67.25a2.94,2.94,0,0,0-2.9,3,3,3,0,0,0,1.29,2.49c-.54,3.8-1.83,10.18-4.45,11.71-3.79,2.22-16.91,2.48-16.91,2.48s-13.39-.26-17.25-2.48c-2.67-1.53-4-7.91-4.55-11.71a3,3,0,1,0-2.1.46c.38,4.2,1.46,12.92,4.07,15.56,3.48,3.51,19.83,2.73,19.83,2.73s16,.78,19.43-2.73c2.56-2.64,3.62-11.36,4-15.56a3,3,0,0,0-.46-6Z"/><path class="cls-5" d="M29.58,86.93s10.58-.21,15.48-1.86l.36-4c-10.17,3-32.07.65-32.07.65l.79,3.47C19.28,86.73,29.58,86.93,29.58,86.93Z"/><path class="cls-1" d="M18.83,86.58a.57.57,0,0,1-.56-.47l-.65-3.78a.56.56,0,0,1,.46-.65.55.55,0,0,1,.65.46l.65,3.78a.55.55,0,0,1-.46.65Z"/><path class="cls-1" d="M24.36,87a.56.56,0,0,1-.55-.45L23,82.88a.56.56,0,0,1,.44-.67.57.57,0,0,1,.67.43l.78,3.72a.57.57,0,0,1-.44.67Z"/><path class="cls-1" d="M28.73,87.24a.56.56,0,0,1-.56-.55L28,82.85a.56.56,0,0,1,.54-.59.57.57,0,0,1,.59.55l.13,3.84a.58.58,0,0,1-.55.59Z"/><path class="cls-1" d="M34.4,87.11h0a.56.56,0,0,1-.51-.61l.32-3.84a.57.57,0,0,1,.62-.52.56.56,0,0,1,.51.61L35,86.59A.58.58,0,0,1,34.4,87.11Z"/><path class="cls-1" d="M39.94,86.45h-.12a.56.56,0,0,1-.43-.67l.78-3.65a.57.57,0,0,1,.67-.43.56.56,0,0,1,.44.67L40.49,86A.56.56,0,0,1,39.94,86.45Z"/></g></g></svg>