<svg xmlns="http://www.w3.org/2000/svg" viewBox="0 0 56.19 89.54"><defs><style>.cls-1{fill:#33ab4d;}.cls-2{fill:#33744d;}.cls-3{fill:#231f20;}.cls-4{fill:#fff460;}.cls-5{fill:none;stroke:#231f20;stroke-linecap:round;stroke-linejoin:round;}</style></defs><g id="Layer_2" data-name="Layer 2"><g id="OBJECTS"><path class="cls-1" d="M17.23,7a.54.54,0,1,1-.41-1C16.92,6,24.43,3,31.61,5,29.38,2.37,26.9,1,24.21,1c-5.06,0-9.52,4.66-10.87,6.2a14.29,14.29,0,0,0,6.57,1.44A30.56,30.56,0,0,0,31.37,6C24.55,4.11,17.33,7,17.23,7Z"/><path class="cls-1" d="M52.16,28.1a.55.55,0,0,1-.36.95.59.59,0,0,1-.37-.14c-.32-.29-6.07-5.6-7.41-12.78-1.27,3-1.36,5.78-.26,8.15C45.93,28.91,52,31,54,31.51c.09-7-6.21-13.3-8.92-15.67C46.39,22.78,52.08,28,52.16,28.1Z"/><path class="cls-1" d="M34.17,17.1A11.53,11.53,0,0,0,32.83,17a11.1,11.1,0,0,0-1.28.07h0a11,11,0,0,0-1.28.19h0a11.5,11.5,0,0,0-7.71,5.43,50.91,50.91,0,0,0-3.34,6.83C16.84,35,14.4,40.68,7.72,44.84,2.91,47.83-.67,59.05,1.91,69c1.56,6.07,6.75,16.37,24,17.26,1,.06,2.08.08,3.08.08h0c10.18,0,17.55-2.79,21.9-8.32,5.06-6.41,4.54-14.8,3.95-17.24-1-4.37-3.27-8.32-5.41-12.13-2.94-5.23-6-10.64-6.11-17.26C43.07,20.07,39.49,17.49,34.17,17.1Z"/><path class="cls-1" d="M32.82,15.94h.09A19.46,19.46,0,0,1,48.76,7.65a16.79,16.79,0,0,1,2.12.13L51,7a22.85,22.85,0,0,0-2.58-.15A20.92,20.92,0,0,0,31.29,16,14.41,14.41,0,0,1,32.82,15.94Z"/><path class="cls-2" d="M49.39,48.69c-2.94-5.23-6-10.64-6.11-17.26-.09-5.08-.86-8.39-2.16-10.55,1.41,10.93-5.45,23.15-17.4,18.5A13.45,13.45,0,0,1,17,34.32a27.23,27.23,0,0,1-4.72,6.84c4.11,6.17,15.33,6.68,19.93,7.72C40,50.63,42.72,71.63,21.47,74.13,9.82,75.5,4,67.09,1.19,59.22A28.74,28.74,0,0,0,1.91,69c1.56,6.07,6.75,16.37,24,17.26,1,.06,2.08.08,3.08.08h0c10.18,0,17.55-2.79,21.9-8.32,5.06-6.41,4.54-14.8,3.95-17.24C53.75,56.45,51.53,52.5,49.39,48.69Z"/><path class="cls-3" d="M36.47,80.13c-6.7,4.51-16.47,4-24.36,2.51A30.29,30.29,0,0,0,25.87,86.3c.7,0,1.4.06,2.09.07,9.78-.14,16.9-2.92,21.14-8.31,5.06-6.41,4.54-14.8,3.95-17.24-1-4.37-3.27-8.32-5.41-12.13a74.07,74.07,0,0,1-4-7.79c-1.27,5.39-5.94,5.23-5.94,5.23C48.22,53.13,49.47,71.38,36.47,80.13Z"/><path class="cls-4" d="M28.72,21.63s-9.5,5-5.75,7.75S31.72,21.88,28.72,21.63Z"/><path class="cls-3" d="M53.22,86.54c0,1.66-11.34,3-25.33,3s-25.33-1.34-25.33-3,11.34-3,25.33-3S53.22,84.88,53.22,86.54Z"/><path class="cls-5" d="M34.2,16.56a12.52,12.52,0,0,0-12.13,5.86c-4.39,7.11-5.23,16.11-14.64,22s-14,40.79,18.41,42.46S56.16,64.16,55.33,60.7c-2.51-10.46-11.3-18-11.51-29.28S40.06,17,34.2,16.56Z"/><path class="cls-5" d="M33.18,16.48C40.74,6.12,51.35,8.41,51.35,8.41l.21-1.88C39.15,4.89,32.47,13.09,30.15,16.75A13.55,13.55,0,0,1,33.18,16.48Z"/><path class="cls-5" d="M17,6.53S29.71,1.32,37.71,9"/><path class="cls-5" d="M33,5.84S20.85,12.27,12.51,7.4C12.51,7.4,23.63-7,33,5.84Z"/><path class="cls-5" d="M51.8,28.51S41.65,19.32,44.94,8.85"/><path class="cls-5" d="M44.22,14.41s11,8.2,10.31,17.79C54.53,32.2,36.92,28.37,44.22,14.41Z"/><path class="cls-4" d="M13.22,48.88s-7.5,5.5-5.75,9S19.47,50.13,13.22,48.88Z"/></g></g></svg>