<svg xmlns="http://www.w3.org/2000/svg" viewBox="0 0 63.57 95.36"><defs><style>.cls-1{fill:#231f20;}.cls-2{fill:#2b799d;}.cls-3{fill:#fff;}.cls-4{fill:#e6305e;}.cls-5{fill:#eaab40;}.cls-6{fill:#315b8b;}.cls-7{fill:#fff460;}.cls-8{fill:#ead8b0;}.cls-9{fill:#eab38e;}.cls-10{fill:none;stroke:#231f20;stroke-linecap:round;stroke-linejoin:round;stroke-width:0.93px;}</style></defs><g id="Layer_2" data-name="Layer 2"><g id="OBJECTS"><path class="cls-1" d="M58.35,91.87c0,1.92-11.77,3.49-26.3,3.49S5.74,93.79,5.74,91.87s11.78-3.5,26.31-3.5S58.35,89.94,58.35,91.87Z"/><path class="cls-2" d="M30.31,1A10.86,10.86,0,0,0,20.24,7.74H40.38A10.86,10.86,0,0,0,30.31,1Z"/><path class="cls-1" d="M30.31,1A9.76,9.76,0,0,0,29,1.06a10.83,10.83,0,0,1,8.75,6.68h2.64A10.86,10.86,0,0,0,30.31,1Z"/><path class="cls-3" d="M27.59,31.9a.48.48,0,0,1-.25-.43V29.78L27,29.66c-.15-.06-.3-.11-.44-.18l-.23-.11h0c-.27-.13-.54-.28-.8-.43l-.28-.17-.4-.27a3.15,3.15,0,0,1-.29-.22,5.19,5.19,0,0,1-.46-.36l-2.47,3.9,2.48,5H26.2a.49.49,0,0,1,.4.2.51.51,0,0,1,.09.43L26,40.21l2.27,2.27L29,32.71Z"/><path class="cls-2" d="M40.22,13.8h5.23a2.53,2.53,0,0,0,0-5.05H15.18a2.53,2.53,0,1,0,0,5.05h25Z"/><path class="cls-1" d="M45.77,8.79a2.61,2.61,0,0,1,.18.93,2.52,2.52,0,0,1-2.52,2.53H13.16a1.65,1.65,0,0,1-.32,0,2.52,2.52,0,0,0,2.34,1.59H45.45a2.51,2.51,0,0,0,.32-5Z"/><path class="cls-3" d="M36.4,36.78h2l2.41-5L38,27.15l-.11.12-.17.17c-.2.2-.41.39-.62.57l-.15.11c-.17.14-.35.28-.54.41l-.25.17-.52.31-.08,0-.16.09-.28.14v2.18a.49.49,0,0,1-.26.43l-1.61.94L34.5,42.4l2.12-2.19-.71-2.8a.51.51,0,0,1,.49-.63Z"/><path class="cls-4" d="M34.09,29.73l-.25.08-.06,0-.11,0-.15.05a7.62,7.62,0,0,1-.79.2h0l-.21,0-.49.08-.15,0h-.3l-.26,0h-.22l-.43,0h-.32l-.46,0h-.18l-.23,0-.29,0-.22,0-.18,0-.22,0h-.06l-.12,0v1.1l2.87,1.65,1.21-.7h0l1.66-1Z"/><path class="cls-2" d="M46.82,31.92v.54c0,2-.09,5.14-.2,8.69l2.93,3.07a.62.62,0,0,1,.11.17h2.42l.18,0c.23,0,.62,0,1.09,0a13.46,13.46,0,0,1,2.11.17h0L46.82,31.61v.31Z"/><path class="cls-4" d="M31.47,33.85a.52.52,0,0,1-.51,0l-1-.58-.79,10.15,2.21,2.21,2.24-2.31-1.33-9.94Z"/><path class="cls-5" d="M55.64,45.54h0a12.56,12.56,0,0,0-2.31-.2,9.42,9.42,0,0,0-1.2.06H46.48c0,.15,0,.3,0,.44,0,1.14-.09,2.28-.13,3.4h6.08a7.85,7.85,0,0,1,.9,0,6.93,6.93,0,0,1,4.47,1.4A4.39,4.39,0,0,1,59,54a4.25,4.25,0,0,1-1,3.18,3.26,3.26,0,0,1-2.2.75h-.27l-.27,0a1.85,1.85,0,0,0-1.78,1.66A1.91,1.91,0,0,0,55,61.69a6,6,0,0,0,.8.05,6.7,6.7,0,0,0,4.5-1.66c1-.95,2.27-2.78,2.27-6.12a8.26,8.26,0,0,0-2.46-6.3A9,9,0,0,0,55.64,45.54Z"/><path class="cls-6" d="M46.3,50.28c-.08,1.86-.15,3.54-.23,5l4.44-5.08H46.3Z"/><path class="cls-7" d="M31,63.63c-.8,2.77-2,5.78-3.58,5.88l-1.6.09H25.7l-1.22,0-.36,0-1,0h-.36l2.65,24.43,5.6-.1Z"/><path class="cls-7" d="M35.19,69.5a1.5,1.5,0,0,1-.91-.49c-.92-.93-1.68-3-2.23-5.1V94l5.6-.11,3-24.19h0C39.15,69.73,37.33,69.65,35.19,69.5Z"/><path class="cls-2" d="M11.91,44.22,15,41c-.05-1.28-.09-2.59-.12-3.83v-.12c0-.12,0-.25,0-.38s0-.28,0-.42v-.1c0-.19,0-.39,0-.57v0c0-.63,0-1.22,0-1.77v-.48c0-.06,0-.11,0-.16v-.28a2.71,2.71,0,0,0,0-.29V31.46L6.05,44.39H11.8A.62.62,0,0,1,11.91,44.22Z"/><path class="cls-8" d="M22.44,24.16a8.92,8.92,0,0,0,.47.86c0,.06.07.12.11.17s.17.26.26.38l.18.24c.09.12.19.24.29.35a1.9,1.9,0,0,0,.19.21c.1.12.21.23.32.34l.07,0a8.87,8.87,0,0,0,2.87,1.9l.06,0a9.24,9.24,0,0,0,1.55.47l.13,0,.26,0a2.9,2.9,0,0,0,.41.06h.09l.38,0,.41,0h.43a4,4,0,0,0,.49,0l.46-.05.42-.07.45-.09.11,0c.1,0,.2-.06.3-.09s.28-.07.42-.12l.13-.05a1.69,1.69,0,0,0,.27-.11c.15-.06.3-.11.44-.18a1.51,1.51,0,0,0,.22-.11c.23-.11.45-.23.67-.36l.15-.09c.26-.17.51-.34.76-.53h0A9.2,9.2,0,0,0,37.66,26l0,0,.07-.08.3-.4.18-.27.26-.42c.08-.14.16-.28.23-.42a9.08,9.08,0,0,0,1-4.12V14.81H21.54v5.44A9,9,0,0,0,22.44,24.16Zm9.75-6A.59.59,0,0,1,33,18a2.38,2.38,0,0,0,2,.61,1.33,1.33,0,0,0,.69-.84.58.58,0,0,1,1.13.29,2.5,2.5,0,0,1-1.41,1.64,2.18,2.18,0,0,1-.76.14A4.19,4.19,0,0,1,32.34,19,.59.59,0,0,1,32.19,18.18Zm.38,6.18a.58.58,0,1,1,.69.93,5.09,5.09,0,0,1-3.11,1,6,6,0,0,1-3.32-1,.59.59,0,0,1-.13-.82.58.58,0,0,1,.81-.13A4.43,4.43,0,0,0,32.57,24.36Zm-8.45-7a.58.58,0,0,1,.7.42,1.32,1.32,0,0,0,.7.84c.46.17,1.14,0,2-.61a.58.58,0,0,1,.66,1,4.19,4.19,0,0,1-2.29.88,2.18,2.18,0,0,1-.76-.14,2.5,2.5,0,0,1-1.41-1.64A.58.58,0,0,1,24.12,17.38Z"/><path class="cls-2" d="M45,56.73c.12-2.25.22-4.65.32-7.06.07-1.61.13-3.22.18-4.79,0,0,0,0,0,0,0-1.19.08-2.36.11-3.48v0c.19-6.46.24-10.39.18-10.94h0v0a1.33,1.33,0,0,0-.13-.39.43.43,0,0,1,0,0c-.65-1.38-3.28-3.78-5.06-5.17l-.88-.07-.1.18-.18.33c-.11.2-.22.39-.34.57a1.3,1.3,0,0,0-.1.15c-.1.15-.2.29-.31.43l3.17,5.18a.51.51,0,0,1,0,.48L39.2,37.51a.5.5,0,0,1-.45.28h-1.7l.62,2.45a.5.5,0,0,1-.13.47l-3,3.14h0L31.74,46.7a.48.48,0,0,1-.36.15h0a.52.52,0,0,1-.36-.14L28.28,44h0L25,40.72a.54.54,0,0,1-.13-.49l.64-2.44H23.77a.51.51,0,0,1-.45-.28L20.57,32a.52.52,0,0,1,0-.5l2.73-4.31h0c-.09-.11-.19-.21-.28-.31s-.19-.22-.27-.33a5.84,5.84,0,0,1-.42-.56,3.42,3.42,0,0,1-.26-.4l-.21-.33-.23-.42,0-.09c-2.08,1.46-5.21,4-5.76,5.35v0a.68.68,0,0,0-.07.25h0v0c-.06.64,0,4.49.2,10.77v0c0,1.16.08,2.38.13,3.61,0,0,0,0,0,0,.06,1.56.12,3.15.2,4.74.12,2.7.24,5.17.37,7.36a.13.13,0,0,1,0,.06C17,63,17.42,67.7,17.8,68.37c0,0,.51.35,3.83.35h1.59l.46,0,.83,0,.65,0,.73,0,1.51-.09c1.22-.08,2.84-4.92,3.64-9.37a.52.52,0,0,1,.5-.42h0a.51.51,0,0,1,.5.42c.77,4.46,2.25,9.29,3.22,9.36l1.32.09.32,0,1.07.05.43,0,.88,0H41.2c2.38,0,2.77-.34,2.8-.37.34-.65.7-5.5,1-11.52C45,56.8,45,56.76,45,56.73Z"/><path class="cls-5" d="M15.28,49.24c-.06-1.23-.11-2.48-.16-3.71V45.4H2.77a1.92,1.92,0,0,0,0,3.84H15.28Z"/><path class="cls-6" d="M11,50.25l4.63,5.31c-.09-1.58-.18-3.34-.26-5.31Z"/><path class="cls-6" d="M16.83,59.51c.3,4.73.64,8.29,1,8.86,0,0,.51.35,3.83.35h1.59l.46,0,.83,0,.65,0,.73,0,1.51-.09c1.22-.08,2.84-4.92,3.64-9.37a.52.52,0,0,1,.5-.42h0a.51.51,0,0,1,.5.42c.77,4.46,2.25,9.29,3.22,9.36l1.32.09.32,0,1.07.05.43,0,.88,0H41.2c2.38,0,2.77-.34,2.8-.37.34-.65.7-5.5,1-11.52,0,0,0-.07,0-.1.12-2.25.22-4.65.32-7.06.07-1.61.13-3.22.18-4.79,0,0,0,0,0,0,0-1.19.08-2.36.11-3.48v0c.19-6.46.24-10.39.18-10.94C45.79,30.39,45.68,62.53,16.83,59.51Z"/><path class="cls-1" d="M34.25,67.21c.36.78.71,1.26,1,1.28l1.32.09.32,0,1.07.05.43,0,.88,0H41.2c2.38,0,2.77-.34,2.8-.37.34-.65.7-5.5,1-11.52,0,0,0-.07,0-.1l.06-1.11A24.82,24.82,0,0,1,34.25,67.21Z"/><path class="cls-5" d="M27.46,69.51l-1.6.09L28,94.1l3.07,0V63.63C30.24,66.4,29,69.41,27.46,69.51Z"/><path class="cls-5" d="M37.34,69.63,34.49,94l3.16-.06,3-24.19h0C39.67,69.73,38.57,69.69,37.34,69.63Z"/><path class="cls-6" d="M15.1,37.93a71.53,71.53,0,0,0-5.67,6.75l3.11.08,3.1-3.57L15.41,38"/><polygon class="cls-6" points="46.45 36.14 52.51 44.6 49.32 44.52 46.14 41.03 46.45 36.14"/><path class="cls-9" d="M25.59,27.78a9.28,9.28,0,0,0,1.61.87l.06,0a9.24,9.24,0,0,0,1.55.47l.13,0,.26,0a2.9,2.9,0,0,0,.41.06h.09l.38,0,.41,0h.43a4,4,0,0,0,.49,0l.46-.05.42-.07.45-.09.11,0c.1,0,.2-.06.3-.09s.28-.07.42-.12l.13-.05a1.69,1.69,0,0,0,.27-.11c.15-.06.3-.11.44-.18a1.51,1.51,0,0,0,.22-.11c.23-.11.45-.23.67-.36l.15-.09c.26-.17.51-.34.76-.53h0A9.2,9.2,0,0,0,37.66,26l0,0,.07-.08.3-.4.18-.27.26-.42c.08-.14.16-.28.23-.42a9.08,9.08,0,0,0,1-4.12V14.81H38.25C38.37,17,38.54,30.21,25.59,27.78Z"/><path class="cls-10" d="M21,20.25a9.59,9.59,0,1,0,19.18,0V14.3H21Z"/><path class="cls-10" d="M30.31.47a11.39,11.39,0,0,0-10.8,7.78h21.6A11.39,11.39,0,0,0,30.31.47Z"/><path class="cls-10" d="M45.45,8.25H15.18a3,3,0,1,0,0,6.05H45.45a3,3,0,0,0,0-6.05Z"/><path class="cls-10" d="M40.77,24.26l-1.38-.11a9.58,9.58,0,0,1-17.48.07l-.47,0s-5.93,4.12-6.17,6.07.95,37.14,2.14,38.35c.74.76,6.1.57,10,.33,2.37-.15,4.11-9.79,4.11-9.79S33.2,68.85,35.23,69c3.52.26,8.48.47,9.15-.31,1.06-1.21,2.12-36.41,1.91-38.35S40.77,24.26,40.77,24.26Z"/><path class="cls-10" d="M35.23,69c-2-.14-3.69-9.77-3.69-9.77S29.8,68.86,27.43,69c-1.63.1-3.51.19-5.2.21L25,94.66l13.11-.24,3.1-25.2C39.38,69.25,37.1,69.13,35.23,69Z"/><path class="cls-10" d="M41.41,31.78,38.05,26.3A9.52,9.52,0,0,1,24,27.11L21,31.78l2.75,5.51H26.2l-.81,3.07,6,6,5.8-6-.78-3.07h2.35Z"/><path class="cls-10" d="M30.63,29.84a9.85,9.85,0,0,1-2.79-.41v2l3.38,2,3.37-2V29A9.51,9.51,0,0,1,30.63,29.84Z"/><polygon class="cls-10" points="34.14 43.5 32.68 32.57 31.22 33.42 29.51 32.43 28.64 43.61 31.38 46.35 34.14 43.5"/><line class="cls-10" x1="31.54" y1="94.1" x2="31.54" y2="60.75"/><path class="cls-10" d="M15.6,44.89H2.77a2.43,2.43,0,0,0,0,4.86h13C15.73,48.12,15.66,46.49,15.6,44.89Z"/><path class="cls-10" d="M60.48,47.3c-3-2.8-7.4-2.52-8.4-2.41H46c-.06,1.6-.12,3.23-.19,4.86H52.2l.28,0c.9-.11,3.55-.11,5,1.21a4,4,0,0,1,1,3,3.76,3.76,0,0,1-.84,2.81,3,3,0,0,1-2.07.61A2.33,2.33,0,0,0,53,59.45a2.42,2.42,0,0,0,2,2.74,7.73,7.73,0,0,0,.88.05,7.15,7.15,0,0,0,4.84-1.79c1.11-1,2.43-3,2.43-6.49A8.67,8.67,0,0,0,60.48,47.3Z"/><path class="cls-10" d="M16.18,57c-.15-2.45-.28-5.09-.4-7.72l0,.47h-6Z"/><path class="cls-10" d="M12.54,44.89l-.26-.32,3.19-3.35c-.19-5.72-.28-10.23-.2-10.89a2.19,2.19,0,0,1,.11-.4l-.05-.25-10,14.89.28.32Z"/><path class="cls-10" d="M49.19,44.57l-.27.32h3.16a13.94,13.94,0,0,1,3.65.15l.41-.47-10-14.89,0,.09a2,2,0,0,1,.18.56c.07.66,0,5.24-.18,11Z"/><path class="cls-10" d="M45.81,49.75a2.44,2.44,0,0,0,0-.27c-.1,2.48-.2,5-.33,7.28l6.13-7Z"/><path class="cls-1" d="M25.86,19.87a2.18,2.18,0,0,1-.76-.14,2.5,2.5,0,0,1-1.41-1.64.58.58,0,0,1,1.13-.29,1.32,1.32,0,0,0,.7.84c.46.17,1.14,0,2-.61a.58.58,0,0,1,.66,1A4.19,4.19,0,0,1,25.86,19.87Z"/><path class="cls-1" d="M34.63,19.87A4.19,4.19,0,0,1,32.34,19,.58.58,0,1,1,33,18a2.38,2.38,0,0,0,2,.61,1.33,1.33,0,0,0,.69-.84.58.58,0,0,1,1.13.29,2.5,2.5,0,0,1-1.41,1.64A2.18,2.18,0,0,1,34.63,19.87Z"/><path class="cls-1" d="M30.15,26.33a6,6,0,0,1-3.32-1,.59.59,0,0,1-.13-.82.58.58,0,0,1,.81-.13,4.43,4.43,0,0,0,5.06,0,.58.58,0,1,1,.69.93A5.09,5.09,0,0,1,30.15,26.33Z"/></g></g></svg>