<?xml version="1.0" encoding="UTF-8"?>
<svg id="Layer_2" data-name="Layer 2" xmlns="http://www.w3.org/2000/svg" viewBox="0 0 310.99 193.62">
  <defs>
    <style>
      .cls-1 {
        fill: #ed4e4e;
      }

      .cls-2 {
        fill: #fff;
      }

      .cls-3 {
        fill: #f78d37;
      }

      .cls-4 {
        fill: #323738;
      }

      .cls-5 {
        fill: #ffc14f;
      }
    </style>
  </defs>
  <g id="OBJECTS">
    <g>
      <g>
        <path class="cls-4" d="M257.28,14.8l-23.42,10.58s6.94-20.66,25.02-25.38l-1.6,14.8Z"/>
        <path class="cls-5" d="M258.88,12.69l-24.54,9.99s-.14-5.26,10.82-9.49c10.97-4.23,13.82-4.01,13.72-.5Z"/>
        <g>
          <polygon class="cls-3" points="235.45 23.61 238.32 16.97 236.53 23.98 235.45 23.61"/>
          <polygon class="cls-3" points="239.29 23.28 241.19 15 240.42 23.46 239.29 23.28"/>
          <polygon class="cls-3" points="244.81 20.04 244.88 13.76 245.95 19.95 244.81 20.04"/>
          <polygon class="cls-3" points="247.39 18.55 247.31 12.69 248.53 18.42 247.39 18.55"/>
          <polygon class="cls-3" points="250.8 17.16 249.82 12.12 251.9 16.82 250.8 17.16"/>
          <polygon class="cls-3" points="254.18 14.75 252.23 11.18 255.1 14.07 254.18 14.75"/>
          <polygon class="cls-3" points="258.02 14.17 255.37 10.68 258.83 13.36 258.02 14.17"/>
        </g>
      </g>
      <path class="cls-4" d="M279.28,12.64l-21.88,5.84s8.99-16.97,25.39-18.48l-3.51,12.64Z"/>
      <g>
        <polygon class="cls-4" points="234.34 48.24 256.42 37.49 272.18 46.67 297.56 42.08 261.23 80.35 271.76 109.03 260.58 111.61 235.05 97.99 234.34 48.24"/>
        <path class="cls-3" d="M253.5,35.48c.08.42-10.59-3.22-10.59-3.22l-20.06,18.66,6.88,15.51,3.44,19.39,5.41,4.07c-3.77-31.69,15.01-53.99,15.01-53.99"/>
        <path class="cls-1" d="M238.89,83.38l.97-12.38s22.43-5.84,16.26,22.98c0,0-7.35-18.48-17.24-10.6Z"/>
        <g>
          <polygon class="cls-2" points="257.4 48.48 254.79 60.81 258.14 55.84 258.97 58.86 261.77 56.8 262.99 60.91 268.94 50.3 257.4 48.48"/>
          <polygon class="cls-2" points="272.09 50.87 272.76 59.19 275.91 55.03 277.67 56.8 282.41 48.48 272.09 50.87"/>
          <polygon class="cls-2" points="237.11 93.97 241.6 89 241.99 92.65 246.07 88.53 242.37 100.38 237.11 93.97"/>
          <polygon class="cls-2" points="247.05 103.44 250.97 98.94 251.54 102.19 255.65 97.42 255.17 102.01 257.76 99.51 256.8 108.02 247.05 103.44"/>
          <polygon class="cls-2" points="256.48 43.39 253.59 49.72 252.13 45.07 249.82 52.4 248.89 46.45 246.61 50.24 246.33 39.8 256.48 43.39"/>
          <polygon class="cls-2" points="259.95 108.02 262.58 101.6 263.11 104.81 265.21 102.72 264.83 109.23 259.95 108.02"/>
        </g>
      </g>
      <path class="cls-5" d="M242.08,16.99c-46.45,20.5-53.33,64.37-53.33,64.37-39.86-35.37-74.56-5.1-84.22,4.93C33.1,81.59,7.81,52.79,0,39.93c9.49,96.7,133.55,81.28,133.55,81.28,45.78,25.81,78.48-10.45,91.83-29.91-.57,7.17.52,14.83,5.66,20.59,13.05,14.64,42.87-2.15,42.87-2.15l-11.47-29.24,33.63-35.28c8.38-4.3,14.68-8.3,14.68-8.3,3.01-15.49-22.22-40.43-68.67-19.93ZM260.14,79.93l9.89,27.67c-41.32-.73-34.63-42.82-31.37-56.44,27.2-21.1,9.41,3.28,24.92,4.4,7.41.53,18.03-3.4,27.31-7.79l-30.75,32.16Z"/>
      <g>
        <path class="cls-3" d="M231.04,70.46s-4.79,9.83-5.66,20.84c-13.35,19.47-46.05,55.72-91.83,29.91,0,0-110.55,13.73-130.91-66.08,10.08,17.85,39.73,50.47,122.31,52.74l13.34,1.72s25.23-6.73,41.14,11.77l44.34-53.23c2.62,2.94,7.27,2.33,7.27,2.33Z"/>
        <g>
          <polygon class="cls-5" points="153.05 99.88 158.46 129.78 149.71 100.68 153.05 99.88"/>
          <polygon class="cls-5" points="164.57 101.45 167.77 130.08 162.3 101.79 164.57 101.45"/>
          <polygon class="cls-5" points="191.26 99.04 195.73 121.02 187.96 99.98 191.26 99.04"/>
          <polygon class="cls-5" points="195.28 91.93 209.03 110.55 193.5 93.38 195.28 91.93"/>
          <polygon class="cls-5" points="199.23 88.66 210.45 101.62 197.6 90.27 199.23 88.66"/>
          <polygon class="cls-5" points="207.68 78.3 222.35 95.54 205.24 80.72 207.68 78.3"/>
          <polygon class="cls-5" points="96.33 100.37 93.59 120.96 94.04 100.19 96.33 100.37"/>
          <polygon class="cls-5" points="91.74 101.64 90.21 115.03 89.45 101.57 91.74 101.64"/>
          <polygon class="cls-5" points="71.24 94.3 64.41 113.66 69.04 93.65 71.24 94.3"/>
          <polygon class="cls-5" points="65.13 94.58 61.48 109.23 61.72 94.13 65.13 94.58"/>
          <polygon class="cls-5" points="48.99 86.68 40.13 103.82 45.8 85.38 48.99 86.68"/>
          <polygon class="cls-5" points="33.03 80.39 24.46 86.03 31.56 78.63 33.03 80.39"/>
          <polygon class="cls-5" points="29.32 77.72 21.21 87.53 27.43 76.42 29.32 77.72"/>
        </g>
      </g>
      <path class="cls-3" d="M154.34,136.7l-3.44,10.9s21.36-2.44,26.53,6.31c5.16,8.75-4.47,16.92-4.47,16.92.77-2.92.53-5.06-.14-6.6-1.48,7.12-13.6,9.46-13.6,9.46,2.63-2.27,3.66-4.86,3.9-7.22-4.67,6.74-13.16.16-13.62-.22.42.15,7.85,2.66,7.14-3.89-.72-6.73-24.94-16.05-24.94-16.05l11.91-28.43h46.01c-9.04,43.55-35.27,18.82-35.27,18.82Z"/>
      <path class="cls-3" d="M149.47,166.23h.01s.01.01.01.01"/>
      <path class="cls-3" d="M195.73,113.42l2.04-3.59,10.87,14.21s9.45,4.15,8.41,4.57c-1.04.42-6.67-.35-6.67-.35,0,0,3.3,7.52,2.62,7.87-.69.35-5.76-6.05-5.76-6.05,0,0-.08,7.01-1.52,6.69-1.44-.31-1.03-6.84-1.03-6.84l-8.96-16.5Z"/>
      <g>
        <path class="cls-2" d="M243.08,21.21l9.14,7.92s-3.5,11.36-8.61,9.65c-5.12-1.71-.53-17.58-.53-17.58Z"/>
        <path class="cls-4" d="M249.82,29.58c0,1.04-.42,1.89-.93,1.89s-.93-.84-.93-1.89.42-1.89.93-1.89.93.84.93,1.89Z"/>
        <path class="cls-3" d="M241.7,22.67s-5.83,17.01,1.43,18.44c7.26,1.43,10.32-11.03,10.32-11.03,0,0-1.15,12.47-10.61,12.56-9.46.1-1.15-19.98-1.15-19.98Z"/>
        <polygon class="cls-3" points="242.29 17.91 255.37 30.99 240.1 20.56 242.29 17.91"/>
      </g>
      <g>
        <path class="cls-4" d="M283.8,37.49s-13.33-4.44-12.19-8.88c1.15-4.45,12.19,8.88,12.19,8.88Z"/>
        <path class="cls-3" d="M275.05,36.54s-8.13-4.02-5.93-9.85c2.2-5.83,14.24,5.97,14.24,5.97,0,0-9.64-12.23-14.62-7.29-4.98,4.95,6.3,11.16,6.3,11.16Z"/>
      </g>
      <g>
        <path class="cls-5" d="M179.97,113.46l4.05-.85-3.44,17.56s3.16,9.83,2.15,9.32c-1-.5-4.16-5.23-4.16-5.23,0,0-3.44,7.45-4.16,7.17-.72-.28.72-8.32.72-8.32,0,0-5.31,4.59-6.02,3.3-.71-1.29,4.44-5.31,4.44-5.31l6.42-17.64Z"/>
        <path class="cls-4" d="M177.38,115.1s1.05-5.74,7.74-4.88c0,0-6.42-4.26-7.74,4.88Z"/>
        <path class="cls-4" d="M176.75,110.19s2.82-5.16,10.53-2.07c0,0-6.45-6.27-10.53,2.07Z"/>
      </g>
      <path class="cls-3" d="M260.72,26.02s6.79-14.98,33.12-13.08c0,0-27.85-5.73-33.12,13.08Z"/>
      <path class="cls-3" d="M251.35,24.2s10.51-14.25,32.02-14.29c0,0-24.86-2.74-32.02,14.29Z"/>
      <path class="cls-3" d="M280.41,25.11s10.48-10.33,25.03-3.9c0,0-15.75-11.73-25.03,3.9Z"/>
      <path class="cls-4" d="M226.17,49.24c-11.61,23.36,4.88,21.22,4.88,21.22,0,0-13.05,26.81,0,41.43,1.38,1.54,2.95,2.74,4.64,3.64,0,0-17.21-14.49-2.69-46.61,0,0-10.05,1.4-9.94-5.54.11-6.94,3.1-14.15,3.1-14.15Z"/>
      <path class="cls-4" d="M233.86,60.81s1.44-11.57,7.74-14.24c0,0-7.84-2.39-7.74,14.24Z"/>
      <g>
        <g>
          <path class="cls-3" d="M209.87,70.27c-5.16-2.48-2.68-10.7-5.93-14.34-3.06,1.92-3.24,7.27-5.16,10.14-.64-3.22-.33-7.14.11-10.81h0c3.75-6.44,8.82-13.37,15.61-19.9-1.86,6.71-2.61,13.92-3.11,20.56-.19,4.01.95,10.9-1.52,14.34Z"/>
          <path class="cls-3" d="M210.13,70.17c-5.1-2.82-2.53-10.14-5.79-14.24-.14-.18-.61-.3-.81-.15-3.25,2.37-3.23,6.94-5.19,10.18.29.06.58.12.87.17-.55-3.25-.34-6.49,0-9.75.27-2.54,2.53-4.96,3.94-7.03,3.43-5.01,7.42-9.61,11.76-13.84-.28-.08-.57-.17-.85-.26-1.8,6.73-2.57,13.63-3.11,20.56-.36,4.72,1.19,10.08-1.52,14.34-.1.16.71.47.87.22,2.64-4.15,1.38-9.7,1.52-14.34.22-6.86,1.33-13.94,3.11-20.56.06-.25-.7-.41-.85-.26-4.8,4.68-9.07,9.8-12.79,15.37-1.45,2.16-2.79,3.98-3.07,6.59-.31,2.95-.38,5.91.12,8.83.04.24.74.38.87.17,1.94-3.21,1.92-7.75,5.14-10.1-.27-.05-.54-.1-.81-.16,3.41,4.28.67,11.45,6.07,14.44.24.13,1.03.09.52-.19Z"/>
        </g>
        <g>
          <path class="cls-3" d="M223.08,28.06c-1.19,3.25-2.19,6.53-3.07,9.72-1.15,4.21-1.15,9.94-3.25,13.76-1.65-5.52.75-14.4,1.96-20,1.39-1.18,2.85-2.34,4.36-3.47Z"/>
          <path class="cls-3" d="M222.64,28.02c-1.34,3.72-2.64,7.53-3.47,11.41-.87,4.07-.95,8.28-2.84,12.07.29.01.59.03.88.04-1.05-3.97-.44-8.15.27-12.13.35-1.92.78-3.82,1.21-5.73.61-2.72,2.65-3.92,4.77-5.53.27-.2-.59-.32-.78-.17-.87.66-4.19,2.51-4.42,3.57-.45,2.06-.93,4.11-1.35,6.16-.93,4.47-1.79,9.34-.61,13.84.07.25.78.25.89.04,1.63-3.25,2-6.88,2.56-10.42.7-4.46,2.23-8.83,3.75-13.05.1-.27-.79-.32-.87-.09Z"/>
        </g>
        <g>
          <path class="cls-3" d="M163.44,66.64c-1.29,5.07-2.04,10.38-3.07,15.29-.58,2.49-1.53,10.32-5.36,6.5-4.01-4.01,1.34-12.62-1.52-16.82-3.44,2.49-3.06,9.17-4.39,12.99-.77-2.1-.39-4.77-.2-6.88.15-4.51.3-9.01,1.85-13.05,4.07.08,8.32.7,12.7,1.97Z"/>
          <path class="cls-3" d="M163,66.66c-1.17,4.72-1.93,9.53-2.87,14.3-.5,2.55-.75,5.84-2.47,7.91-1.68,2.03-3.55-2.94-3.69-3.76-.26-1.55.03-3.2.24-4.73.41-2.92,1.29-6.18-.3-8.88-.12-.22-.68-.04-.82.07-3.7,3.07-3.11,8.85-4.43,13.04.29-.03.59-.05.88-.08-.59-2.02-.47-4-.27-6.07.25-2.67.24-5.35.54-8.02.15-1.32.44-2.61.76-3.9.48-1.9,1.38-1.66,3.06-1.53,3.23.24,6.4.93,9.51,1.79.22.06,1.05-.22.6-.34-4.2-1.17-8.43-1.85-12.79-1.99-.16,0-.57,0-.64.2-1.15,3.25-1.54,6.56-1.74,9.99-.18,3.25-.85,6.83.08,9.99.07.25.82.14.88-.08,1.32-4.19.68-9.9,4.36-12.95-.27.03-.55.05-.82.07,2.1,3.56.03,8.4-.05,12.24-.05,2.22,1.26,6.09,4.14,5.67,2.44-.35,2.91-4.15,3.3-6.02,1.18-5.65,2.03-11.38,3.42-16.98.07-.27-.81-.21-.88.03Z"/>
        </g>
        <g>
          <path class="cls-3" d="M133.03,87.86c-3.45-4.74-4.68-11.95-4.31-18.67.97-.42,1.98-.83,3.01-1.2-.66,6.63-.05,13.46,1.31,19.88Z"/>
          <path class="cls-3" d="M133.47,87.85c-1.89-2.75-2.97-5.76-3.67-9.01-.34-1.57-.49-3.17-.61-4.77-.22-2.9-.37-4.71,2.85-5.93-.25-.06-.5-.13-.75-.19-.59,6.68-.03,13.31,1.31,19.88.06.29.94.27.9.07-1.34-6.56-1.9-13.19-1.31-19.88.02-.25-.62-.24-.76-.19-1.03.39-2.06.8-3.08,1.23-.04.02-.06.05-.07.09-.28,6.46.57,13.28,4.32,18.72.16.22,1,.16.87-.02Z"/>
        </g>
        <g>
          <path class="cls-3" d="M172.6,81.93c-.58,4.59-.39,9.18-.39,13.76,0,1.34.19,2.67-.76,3.82-3.63-3.82-3.83-11.08-3.63-16.06,0-2.45.11-9.12,1.39-14.76,1.77.74,3.58,1.61,5.4,2.59-.96,3.5-1.61,7.08-2,10.64Z"/>
          <path class="cls-3" d="M172.15,81.88c-.32,2.82-.41,5.64-.42,8.47,0,2.73.81,6.65-.71,9.07.28.02.55.04.82.05-3.59-4.09-3.74-10.1-3.61-15.26.13-5.2.32-10.35,1.41-15.45-.23.03-.46.05-.69.07,1.18.51,2.34,1.04,3.5,1.61,1.88.92,1.3,2.28.92,3.97-.57,2.46-.93,4.97-1.23,7.47-.03.25.86.36.89.11.43-3.6,1.08-7.14,2-10.64.02-.06-.08-.12-.12-.14-1.79-.95-3.62-1.83-5.49-2.63-.13-.06-.65-.15-.69.08-1.19,5.57-1.37,11.24-1.44,16.91-.06,4.81.43,10.24,3.74,14,.12.14.7.25.82.05,1.28-2.04.78-4.73.76-7.04-.03-3.54,0-7.06.41-10.59.03-.25-.87-.36-.89-.11Z"/>
        </g>
        <g>
          <path class="cls-3" d="M83.32,97.61c-3.05-.77-3.62-5.74-5.73-7.85-.57.96-.57,2.29-.95,3.44-1.52-1.78-2.04-6.63-1.76-10.62,2.81.54,5.71,1.04,8.73,1.49.46,4.72,1.08,9.6-.28,13.54Z"/>
          <path class="cls-3" d="M83.48,97.47c-3.05-1.08-3.5-5.47-5.49-7.71-.13-.15-.73-.33-.84-.08-.48,1.12-.65,2.27-.95,3.44.28.03.56.05.84.09-1.43-1.96-1.62-4.66-1.76-6.98-.02-.35-.33-3.43.5-3.28,1.6.3,3.2.58,4.81.85.82.14,2.55-.06,2.68,1.21.13,1.35.25,2.7.35,4.05.2,2.86.11,5.71-.73,8.47-.07.23.8.44.88.18,1.34-4.41.72-9.03.28-13.53-.02-.21-.36-.27-.52-.29-2.88-.43-5.75-.93-8.61-1.47-.08-.01-.47-.08-.48.08-.19,3.4-.3,7.83,1.8,10.72.1.14.78.34.84.08.3-1.17.47-2.33.95-3.44-.28-.03-.56-.05-.84-.08,2.22,2.51,2.49,6.75,5.98,7.98.37.13.88-.09.31-.29Z"/>
        </g>
        <g>
          <path class="cls-3" d="M44.04,73.73c-.88,2.97-1.66,5.97-2.96,8.77,0-2.88-.39-6.6-.18-10.08,1.02.45,2.06.88,3.14,1.3Z"/>
          <path class="cls-3" d="M43.59,73.72c-.87,2.95-1.68,5.91-2.94,8.72.29.02.59.05.88.07-.03-3.37-.34-6.71-.18-10.08-.26.04-.51.07-.77.11,1.04.45,2.09.89,3.14,1.31.21.08,1.08-.07.64-.24-1.06-.42-2.1-.86-3.14-1.31-.13-.05-.76-.15-.77.11-.16,3.37.15,6.72.18,10.08,0,.25.8.26.89.06,1.27-2.85,2.1-5.84,2.98-8.82.05-.2-.82-.3-.9-.02Z"/>
        </g>
        <g>
          <path class="cls-3" d="M59.63,94.35c-1.17-2.35-3.96-10.69-4.38-16.64.98.31,1.99.61,3.02.9,0,.46,0,.93.02,1.4,0,4.58,2.1,9.94,1.34,14.33Z"/>
          <path class="cls-3" d="M60.07,94.37c-2.2-4.62-3.51-9.95-4.21-14.99-.3-2.19,1.96-.84,1.99.57.03,1.51.22,2.98.46,4.47.53,3.3,1.32,6.51.88,9.86-.03.26.86.39.89.14.69-5.24-1.31-10.48-1.37-15.73,0-.13-.2-.19-.3-.22-1.01-.3-2.01-.6-3.02-.91-.07-.02-.6-.1-.59.09.48,5.62,1.97,11.59,4.39,16.69.11.24.98.26.87.04Z"/>
        </g>
        <g>
          <path class="cls-3" d="M63.43,80.03c-.31,1.87-.63,3.73-1.13,5.54-.37-1.69-.8-3.97-.83-6.06.64.17,1.3.35,1.95.52Z"/>
          <path class="cls-3" d="M62.98,80c-.31,1.86-.64,3.72-1.12,5.54.3.01.6.03.9.04-.43-2-.78-4.01-.83-6.06-.23.04-.46.08-.68.12.65.17,1.3.35,1.95.51.26.07,1.03-.14.47-.29-.65-.17-1.3-.34-1.95-.52-.11-.03-.69-.11-.68.13.05,2.04.39,4.05.83,6.05.05.26.83.31.9.04.48-1.83.81-3.68,1.12-5.54.04-.23-.85-.31-.9-.04Z"/>
        </g>
      </g>
      <g>
        <path class="cls-5" d="M89.11,164.08s-7.74,3.87-4.01,12.47l4.01-11.61v-.86Z"/>
        <path class="cls-5" d="M145.17,147.88s-30.81,1.01-48.6,10.19l15.98,21.35s17.56-14.62,25.74,2.29c0,0-3.18-.39-6.77-.25,1.16,1.75,2.12,4.16,2.75,7.42,0,0-6.81-4.17-13.21-2.76,1.9,3.24.88,7.5.88,7.5,0,0-14.2-8.03-25.37-4.74,0,0-14.07-21.5-11.03-45.12,5.57-4.13,16.31-9.69,31.96-7.35l-17.34-39.86,28.54-.86s33.83,13.62,16.48,52.18Z"/>
        <path class="cls-3" d="M121.94,193.62s-3.76-2.14-8.95-3.74c.66-2.42,2.02-5.25,4.75-6.55,1.59.63,2.64,1.64,3.31,2.79,1.9,3.24.88,7.5.88,7.5Z"/>
        <path class="cls-3" d="M131.52,181.46c1.16,1.75,2.12,4.16,2.75,7.42,0,0-3.62-2.23-8.06-2.88-.4-1.03-.74-2.31-.72-3.67.04-1.46.48-3.03,1.73-4.49.58.21,1.15.51,1.7.89.25-1.53.77-3.14,1.75-4.57,2.86.98,5.54,3.25,7.62,7.55,0,0-3.18-.39-6.77-.25Z"/>
        <path class="cls-4" d="M120.15,138.84s-23.25-4.92-34.81,6.64c.06-.58.12-1.15.19-1.72,5.57-4.13,16.31-9.69,31.96-7.35l-17.34-39.86,20,42.29Z"/>
        <path class="cls-4" d="M128.69,95.7s33.83,13.62,16.48,52.18c0,0-30.81,1.01-48.6,10.19,0,0,11.03-10.33,47.74-11.48,0,0,15.35-32.83-15.62-50.89Z"/>
        <path class="cls-4" d="M114.63,180.57s15.77-11.47,19.64,8.31c0,0-3.58-15.63-19.64-8.31Z"/>
        <path class="cls-4" d="M121.94,193.61s3.44-14.34-14.05-10.32c0,0,14.55-2.51,14.05,10.32Z"/>
        <path class="cls-4" d="M111.23,187.89l-.56-.12c.01-.05,1.16-4.95,5.65-4.72l-.03.57c-4.02-.22-5.04,4.23-5.06,4.28Z"/>
        <path class="cls-4" d="M109.8,186.55l-.56-.11c.02-.12.61-3.08,4.74-3.65l.08.57c-3.7.51-4.23,3.08-4.25,3.19Z"/>
        <path class="cls-4" d="M123.77,184.14c-.06-.18-1.31-4.44,1.57-6.07l.28.5c-2.48,1.4-1.32,5.36-1.31,5.4l-.55.16Z"/>
        <path class="cls-4" d="M120.28,183.88c-.01-.05-1.06-4.91,3.59-6.31l.17.55c-4.14,1.25-3.24,5.46-3.2,5.64l-.56.13Z"/>
      </g>
      <polyline class="cls-4" points="259.95 83.58 267.45 80.28 264.8 85.16 269.46 83.65 263.73 94.91 259.95 83.87"/>
      <polygon class="cls-4" points="264.71 98.42 270.54 95.54 268.94 99.71 271.4 98.99 268.94 103.22 276.49 102.22 268.53 106.09 264.71 98.42"/>
    </g>
  </g>
</svg>